<svg width="11" height="14" viewBox="0 0 11 14" fill="none" xmlns="http://www.w3.org/2000/svg">
<mask id="mask0_2339_5" style="mask-type:alpha" maskUnits="userSpaceOnUse" x="0" y="5" width="11" height="9">
<rect x="0.737305" y="5.11182" width="9.68515" height="8.03696" fill="#C4C4C4"/>
</mask>
<g mask="url(#mask0_2339_5)">
<g clip-path="url(#clip0_2339_5)">
<path d="M0.737305 12.4913C0.737305 10.2447 0.737305 7.9981 0.737305 5.75152C0.889512 5.25836 1.23654 5.10007 1.7297 5.10616C3.48921 5.11833 5.25482 5.11224 7.01433 5.11224C7.06913 5.11224 7.11784 5.11224 7.18481 5.11224C7.18481 5.05136 7.18481 5.00266 7.18481 4.95395C7.18481 4.50342 7.18481 4.05897 7.18481 3.60844C7.1909 3.03005 7.30657 2.47601 7.56228 1.95242C8.26852 0.503406 9.94889 -0.312425 11.5197 0.0346078C13.1635 0.393817 14.3203 1.8063 14.3629 3.48667C14.3751 4.05897 13.9733 4.49733 13.407 4.52168C12.8956 4.53995 12.4512 4.11985 12.4207 3.57191C12.4147 3.46841 12.4086 3.37099 12.3903 3.26749C12.2746 2.46384 11.4771 1.83674 10.6673 1.9098C9.76016 1.98895 9.13306 2.67084 9.12088 3.58408C9.1148 4.05288 9.12088 4.52168 9.12088 4.99657C9.12088 5.0331 9.12697 5.06963 9.13306 5.11833C9.26091 5.11833 9.37659 5.11833 9.49227 5.11833C10.0098 5.12442 10.3325 5.43492 10.3385 5.95852C10.3446 8.07724 10.3446 10.2021 10.3385 12.3208C10.3385 12.8383 10.0098 13.161 9.49227 13.161C6.85604 13.161 4.21981 13.161 1.58967 13.161C1.29743 13.161 1.04781 13.0636 0.883424 12.8139C0.816453 12.7043 0.786011 12.5948 0.737305 12.4913ZM4.77993 9.922C4.78602 10.129 4.77993 10.336 4.78602 10.5491C4.7982 10.8535 5.01129 11.1214 5.29744 11.2127C5.80276 11.3771 6.28983 11.0179 6.302 10.4699C6.30809 10.0864 6.302 9.69673 6.30809 9.31317C6.30809 9.26446 6.32636 9.19749 6.36289 9.16096C6.66121 8.87481 6.80124 8.52778 6.76472 8.10769C6.70383 7.39536 5.95497 6.8535 5.26091 7.04223C4.78602 7.17009 4.46943 7.4745 4.35375 7.95548C4.23807 8.41819 4.3781 8.82002 4.71905 9.15487C4.75558 9.1914 4.77993 9.25837 4.78602 9.31317C4.77993 9.51408 4.77993 9.715 4.77993 9.922Z" fill="#FF6565"/>
</g>
</g>
<g clip-path="url(#clip1_2339_5)">
<mask id="mask1_2339_5" style="mask-type:alpha" maskUnits="userSpaceOnUse" x="-5" y="0" width="15" height="6">
<rect x="-4.48145" y="0.0180664" width="13.6317" height="5.14306" fill="#C4C4C4"/>
</mask>
<g mask="url(#mask1_2339_5)">
<path d="M-4.47559 12.5538C-4.47559 10.3072 -4.47559 8.0606 -4.47559 5.81402C-4.32338 5.32086 -3.97635 5.16257 -3.48319 5.16866C-1.72368 5.18083 0.0419277 5.17474 1.80144 5.17474C1.85624 5.17474 1.90495 5.17474 1.97192 5.17474C1.97192 5.11386 1.97192 5.06516 1.97192 5.01645C1.97192 4.56592 1.97192 4.12147 1.97192 3.67094C1.97801 3.09255 2.09368 2.53851 2.34939 2.01492C3.05563 0.565906 4.736 -0.249925 6.30678 0.0971078C7.95062 0.456317 9.1074 1.8688 9.15001 3.54917C9.16219 4.12147 8.76036 4.55983 8.19415 4.58418C7.68274 4.60245 7.23829 4.18235 7.20785 3.63441C7.20176 3.53091 7.19567 3.43349 7.17741 3.32999C7.06173 2.52634 6.26416 1.89924 5.45442 1.9723C4.54727 2.05145 3.92017 2.73334 3.90799 3.64658C3.90191 4.11538 3.90799 4.58418 3.90799 5.05907C3.90799 5.0956 3.91408 5.13213 3.92017 5.18083C4.04802 5.18083 4.1637 5.18083 4.27938 5.18083C4.79689 5.18692 5.11956 5.49742 5.12565 6.02102C5.13174 8.13974 5.13174 10.2646 5.12565 12.3833C5.12565 12.9008 4.79689 13.2235 4.27938 13.2235C1.64315 13.2235 -0.993082 13.2235 -3.62322 13.2235C-3.91546 13.2235 -4.16508 13.1261 -4.32947 12.8764C-4.39644 12.7668 -4.42688 12.6573 -4.47559 12.5538ZM-0.432959 9.9845C-0.426871 10.1915 -0.432959 10.3985 -0.426871 10.6116C-0.414694 10.916 -0.201604 11.1839 0.0845459 11.2752C0.589874 11.4396 1.07694 11.0804 1.08911 10.5324C1.0952 10.1489 1.08911 9.75923 1.0952 9.37567C1.0952 9.32696 1.11347 9.25999 1.15 9.22346C1.44832 8.93731 1.58835 8.59028 1.55182 8.17018C1.49094 7.45785 0.742082 6.916 0.0480162 7.10473C-0.426871 7.23259 -0.743462 7.537 -0.85914 8.01798C-0.974817 8.48069 -0.834786 8.88252 -0.493842 9.21737C-0.457312 9.2539 -0.432959 9.32087 -0.426871 9.37567C-0.432959 9.57658 -0.432959 9.77749 -0.432959 9.9845Z" fill="#FF6565"/>
<g clip-path="url(#clip2_2339_5)">
<mask id="mask2_2339_5" style="mask-type:alpha" maskUnits="userSpaceOnUse" x="1" y="0" width="15" height="6">
<rect width="13.6317" height="5.14306" transform="matrix(-1 0 0 1 15.5957 0.0180664)" fill="#C4C4C4"/>
</mask>
<g mask="url(#mask2_2339_5)">
<path d="M15.5898 12.5538C15.5898 10.3072 15.5898 8.0606 15.5898 5.81402C15.4376 5.32086 15.0906 5.16257 14.5975 5.16866C12.8379 5.18083 11.0723 5.17474 9.31281 5.17474C9.25802 5.17474 9.20931 5.17474 9.14234 5.17474C9.14234 5.11386 9.14234 5.06516 9.14234 5.01645C9.14234 4.56592 9.14234 4.12147 9.14234 3.67094C9.13625 3.09255 9.02058 2.53851 8.76487 2.01492C8.05862 0.565906 6.37826 -0.249925 4.80748 0.0971078C3.16364 0.456317 2.00686 1.8688 1.96424 3.54917C1.95207 4.12147 2.35389 4.55983 2.9201 4.58418C3.43152 4.60245 3.87597 4.18235 3.90641 3.63441C3.9125 3.53091 3.91859 3.43349 3.93685 3.32999C4.05253 2.52634 4.85009 1.89924 5.65984 1.9723C6.56699 2.05145 7.19409 2.73334 7.20626 3.64658C7.21235 4.11538 7.20626 4.58418 7.20626 5.05907C7.20626 5.0956 7.20018 5.13213 7.19409 5.18083C7.06623 5.18083 6.95056 5.18083 6.83488 5.18083C6.31737 5.18692 5.99469 5.49742 5.98861 6.02102C5.98252 8.13974 5.98252 10.2646 5.98861 12.3833C5.98861 12.9008 6.31737 13.2235 6.83488 13.2235C9.47111 13.2235 12.1073 13.2235 14.7375 13.2235C15.0297 13.2235 15.2793 13.1261 15.4437 12.8764C15.5107 12.7668 15.5411 12.6573 15.5898 12.5538ZM11.5472 9.9845C11.5411 10.1915 11.5472 10.3985 11.5411 10.6116C11.529 10.916 11.3159 11.1839 11.0297 11.2752C10.5244 11.4396 10.0373 11.0804 10.0251 10.5324C10.0191 10.1489 10.0251 9.75923 10.0191 9.37567C10.0191 9.32696 10.0008 9.25999 9.96426 9.22346C9.66593 8.93731 9.5259 8.59028 9.56243 8.17018C9.62332 7.45785 10.3722 6.916 11.0662 7.10473C11.5411 7.23259 11.8577 7.537 11.9734 8.01798C12.0891 8.48069 11.949 8.88252 11.6081 9.21737C11.5716 9.2539 11.5472 9.32087 11.5411 9.37567C11.5472 9.57658 11.5472 9.77749 11.5472 9.9845Z" fill="#FF6565"/>
</g>
</g>
</g>
</g>
<defs>
<clipPath id="clip0_2339_5">
<rect width="9.68515" height="13.1933" fill="white" transform="translate(0.737305 -0.0444336)"/>
</clipPath>
<clipPath id="clip1_2339_5">
<rect width="7.26581" height="5.12638" fill="white" transform="translate(1.89014 0.0180664)"/>
</clipPath>
<clipPath id="clip2_2339_5">
<rect width="7.47432" height="5.12638" fill="white" transform="matrix(-1 0 0 1 9.43262 0.0180664)"/>
</clipPath>
</defs>
</svg>
