<svg width="22" height="24" viewBox="0 0 22 24" fill="none" xmlns="http://www.w3.org/2000/svg">
<path d="M0.724174 23.9658C0.141316 23.7258 -0.0301122 23.3144 0.00417354 22.7315C0.141316 18.7201 3.08989 15.2915 7.03274 14.6744C8.91846 14.3658 10.8385 14.3658 12.6899 14.9829C13.1699 15.1544 13.4442 15.5658 13.3413 16.0458C13.2385 16.6287 12.6899 16.9715 12.1413 16.7658C10.5985 16.2515 8.98703 16.2858 7.40989 16.4915C4.70132 16.8687 2.43846 19.1315 1.95846 21.8401C1.88989 22.1487 1.8556 22.4915 1.8556 22.8001C1.8556 23.3487 1.64989 23.7601 1.10132 23.9658C0.998459 23.9658 0.861316 23.9658 0.724174 23.9658Z" fill="#F9F9F9"/>
<path d="M16.3244 23.9658C15.7759 23.7601 15.5702 23.3486 15.6044 22.7658C15.6387 21.9086 15.6044 21.0858 15.6044 20.1944C15.5016 20.1944 15.433 20.1944 15.3302 20.1944C14.5073 20.1944 13.6844 20.1944 12.8616 20.1944C12.2444 20.1944 11.833 19.7829 11.833 19.2344C11.833 18.6858 12.2444 18.3086 12.8616 18.3086C13.6844 18.3086 14.473 18.3086 15.2959 18.3086C15.3644 18.3086 15.4673 18.3086 15.5702 18.3086C15.5702 18.2058 15.5702 18.1029 15.5702 18.0344C15.5702 17.2115 15.5702 16.3886 15.5702 15.5658C15.5702 14.8801 16.1873 14.4344 16.8044 14.6401C17.1816 14.7772 17.4216 15.1201 17.4216 15.6001C17.4216 16.4229 17.4216 17.2115 17.4216 18.0344C17.4216 18.1372 17.4216 18.2058 17.4216 18.3429C17.5244 18.3429 17.593 18.3429 17.6959 18.3429C18.5187 18.3429 19.3416 18.3429 20.1644 18.3429C20.7816 18.3429 21.193 18.7201 21.193 19.3029C21.193 19.8515 20.7816 20.2286 20.1644 20.2286C19.3416 20.2286 18.553 20.2286 17.7302 20.2286C17.6616 20.2286 17.5587 20.2286 17.4559 20.2286C17.4559 20.3315 17.4559 20.4001 17.4559 20.5029C17.4559 21.2572 17.4216 22.0458 17.4559 22.8001C17.4902 23.3829 17.2844 23.7944 16.7359 24.0001C16.5987 23.9658 16.4616 23.9658 16.3244 23.9658Z" fill="#F9F9F9"/>
<path d="M15.4327 6.30857C15.4327 9.77143 12.6212 12.6171 9.12411 12.6171C5.62696 12.6171 2.78125 9.77143 2.78125 6.30857C2.81554 2.84571 5.66125 0 9.12411 0C12.6212 0 15.4327 2.84571 15.4327 6.30857ZM13.5812 6.30857C13.5812 3.84 11.5927 1.85143 9.12411 1.85143C6.68982 1.85143 4.70125 3.84 4.70125 6.27429C4.70125 8.70857 6.68982 10.7314 9.15839 10.7314C11.5927 10.7657 13.5812 8.77714 13.5812 6.30857Z" fill="#F9F9F9"/>
</svg>
