<svg width="4" height="8" viewBox="0 0 4 8" fill="none" xmlns="http://www.w3.org/2000/svg">
<path d="M0.438715 7.67074e-08C0.555873 0.0416044 0.639018 0.128973 0.722162 0.224663C1.76903 1.3771 2.81589 2.52954 3.86275 3.68198C4.01015 3.84423 4.04038 4.03145 3.9459 4.20619C3.92322 4.2478 3.89677 4.28108 3.86653 4.31436C2.79699 5.49176 1.72745 6.67332 0.654133 7.85489C0.450051 8.07955 0.155267 8.03794 0.0381085 7.76752C-0.0223602 7.62606 -0.007243 7.48877 0.0721222 7.35979C0.094798 7.32235 0.125032 7.29323 0.151487 7.25994C1.11899 6.19488 2.08649 5.12981 3.05399 4.0689C3.07288 4.0481 3.09934 4.03145 3.12579 4.01481C3.12579 4.00233 3.12579 3.98985 3.12579 3.98153C3.10312 3.96489 3.07666 3.94825 3.05777 3.92744C2.08271 2.86237 1.10765 1.78898 0.136371 0.719754C-0.0110211 0.557497 -0.0412554 0.361957 0.0570063 0.19138C0.113696 0.087369 0.20062 0.0416043 0.298881 5.2258e-08C0.344233 6.01876e-08 0.393364 6.87779e-08 0.438715 7.67074e-08Z" fill="#5B5B5B"/>
</svg>
