<svg width="5" height="9" viewBox="0 0 5 9" fill="none" xmlns="http://www.w3.org/2000/svg">
<path d="M0.953363 0.601563C1.07052 0.643167 1.15367 0.730536 1.23681 0.826226C2.28367 1.97866 3.33054 3.1311 4.3774 4.28354C4.5248 4.4458 4.55503 4.63302 4.46055 4.80775C4.43787 4.84936 4.41142 4.88264 4.38118 4.91593C3.31164 6.09333 2.2421 7.27489 1.16878 8.45645C0.9647 8.68111 0.669915 8.63951 0.552757 8.36908C0.492288 8.22762 0.507405 8.09033 0.586771 7.96136C0.609446 7.92391 0.639681 7.89479 0.666136 7.86151C1.63364 6.79644 2.60114 5.73137 3.56863 4.67046C3.58753 4.64966 3.61399 4.63302 3.64044 4.61637C3.64044 4.60389 3.64044 4.59141 3.64044 4.58309C3.61777 4.56645 3.59131 4.54981 3.57241 4.52901C2.59736 3.46394 1.6223 2.39055 0.65102 1.32132C0.503627 1.15906 0.473393 0.96352 0.571655 0.792942C0.628344 0.688931 0.715268 0.643167 0.81353 0.601563C0.858881 0.601563 0.908012 0.601563 0.953363 0.601563Z" fill="#651DBD"/>
</svg>
