<svg width="14" height="16" viewBox="0 0 14 16" fill="none" xmlns="http://www.w3.org/2000/svg">
<path d="M3.60975 1.02636C3.60975 0.857467 3.60544 0.697234 3.60975 0.537C3.61836 0.220863 3.82944 0 4.13958 0C5.854 0 7.56841 0 9.28283 0C9.58436 0 9.79543 0.220863 9.80404 0.524008C9.80835 0.684242 9.80404 0.848806 9.80404 1.03502C9.86435 1.03502 9.92035 1.03502 9.97635 1.03502C10.6569 1.03502 11.3418 1.03502 12.0224 1.03502C12.8452 1.03502 13.4138 1.60234 13.4138 2.42949C13.4138 6.34006 13.4138 10.2506 13.4138 14.1612C13.4138 14.9884 12.8452 15.5557 12.0224 15.5557C8.47731 15.5557 4.92787 15.5557 1.38273 15.5557C0.5686 15.5557 0 14.984 0 14.1699C0 10.2593 0 6.34439 0 2.42516C0 1.611 0.5686 1.03935 1.37842 1.03935C2.1021 1.03935 2.83008 1.03935 3.55375 1.03935C3.56667 1.03502 3.57529 1.03069 3.60975 1.02636ZM3.60975 2.07438C2.86023 2.07438 2.12794 2.07438 1.39996 2.07438C1.13289 2.07438 1.03382 2.17831 1.03382 2.44681C1.03382 6.34872 1.03382 10.2463 1.03382 14.1482C1.03382 14.4167 1.13289 14.5206 1.40427 14.5206C4.94079 14.5206 8.47731 14.5206 12.0138 14.5206C12.2852 14.5206 12.3843 14.421 12.3843 14.1482C12.3843 10.2463 12.3843 6.34872 12.3843 2.44681C12.3843 2.17398 12.2852 2.07438 12.0181 2.07438C11.3289 2.07438 10.644 2.07438 9.95481 2.07438C9.90743 2.07438 9.86435 2.07871 9.80835 2.08304C9.80835 2.25627 9.81266 2.4165 9.80835 2.57673C9.80404 2.88854 9.58867 3.10507 9.27852 3.10507C7.56841 3.10507 5.86261 3.10507 4.1525 3.10507C3.84236 3.10507 3.62698 2.88421 3.62267 2.5724C3.60975 2.42083 3.60975 2.25627 3.60975 2.07438ZM8.76161 1.04802C7.38319 1.04802 6.01768 1.04802 4.65649 1.04802C4.65649 1.39447 4.65649 1.73226 4.65649 2.06572C6.03061 2.06572 7.3918 2.06572 8.76161 2.06572C8.76161 1.72793 8.76161 1.39447 8.76161 1.04802Z" fill="#5B5B5B"/>
<path d="M9.02868 5.18799C9.6102 5.18799 10.1874 5.18799 10.7689 5.18799C11.1135 5.18799 11.3462 5.39586 11.3505 5.70333C11.3505 6.01081 11.1179 6.22734 10.7776 6.22734C9.6102 6.22734 8.44716 6.22734 7.2798 6.22734C6.9395 6.22734 6.70689 6.01081 6.70689 5.70333C6.7112 5.39586 6.94381 5.18799 7.28842 5.18799C7.86994 5.18799 8.44716 5.18799 9.02868 5.18799Z" fill="#5B5B5B"/>
<path d="M9.02868 8.29736C9.6102 8.29736 10.1874 8.29736 10.7689 8.29736C11.1135 8.29736 11.3462 8.50523 11.3505 8.81271C11.3548 9.12019 11.1179 9.33672 10.7776 9.33672C9.6102 9.33672 8.44715 9.33672 7.2798 9.33672C6.9395 9.33672 6.70689 9.12019 6.70689 8.81271C6.7112 8.50523 6.94381 8.29736 7.28842 8.29736C7.86563 8.29736 8.44716 8.29736 9.02868 8.29736Z" fill="#5B5B5B"/>
<path d="M9.03299 11.4111C9.61451 11.4111 10.1917 11.4111 10.7732 11.4111C11.1135 11.4111 11.3505 11.6233 11.3505 11.9308C11.3505 12.2383 11.1135 12.4505 10.7732 12.4505C9.59728 12.4505 8.42131 12.4505 7.24534 12.4505C6.96104 12.4505 6.74136 12.2556 6.7112 11.9871C6.68536 11.7316 6.84904 11.4934 7.10319 11.4285C7.1635 11.4111 7.23242 11.4111 7.29272 11.4111C7.87425 11.4111 8.45146 11.4111 9.03299 11.4111Z" fill="#5B5B5B"/>
<path d="M3.60544 5.49549C4.00174 5.09707 4.38081 4.71598 4.75987 4.33488C4.8891 4.20496 5.03987 4.13567 5.22509 4.16166C5.42755 4.19197 5.5697 4.30457 5.63862 4.50378C5.71185 4.71165 5.66016 4.89787 5.50508 5.05377C5.13463 5.43053 4.75987 5.80297 4.38942 6.1754C4.25158 6.31399 4.11804 6.45257 3.9802 6.58682C3.75621 6.79902 3.46329 6.79902 3.24361 6.58249C2.899 6.24469 2.5587 5.89824 2.2184 5.55179C2.00733 5.33526 2.00733 5.01479 2.20979 4.81125C2.41224 4.60771 2.7267 4.60771 2.94638 4.81991C3.16607 5.04078 3.37714 5.26164 3.60544 5.49549Z" fill="#5B5B5B"/>
<path d="M3.60975 8.60926C4.00174 8.21084 4.38511 7.83408 4.75987 7.44865C4.8891 7.31873 5.03987 7.24944 5.22509 7.27543C5.42755 7.30574 5.5697 7.41834 5.63862 7.61322C5.71185 7.82109 5.66016 8.0073 5.50508 8.16321C5.13894 8.53564 4.76849 8.90375 4.40234 9.27618C4.26019 9.41909 4.12235 9.56201 3.9802 9.70059C3.75621 9.91279 3.46329 9.91279 3.24361 9.70059C2.899 9.3628 2.5587 9.01634 2.2184 8.66989C2.00733 8.45336 2.00733 8.13289 2.20979 7.92935C2.41224 7.72581 2.7267 7.72581 2.94638 7.93801C3.05838 8.04628 3.16607 8.15888 3.27807 8.27147C3.38145 8.37541 3.48914 8.48368 3.60975 8.60926Z" fill="#5B5B5B"/>
<path d="M3.60544 11.723C4.00174 11.3246 4.3808 10.9435 4.75987 10.5624C4.8891 10.4325 5.03986 10.3632 5.22509 10.3892C5.42754 10.4195 5.56969 10.5321 5.63861 10.727C5.71184 10.9349 5.66015 11.1211 5.50508 11.277C5.16047 11.6234 4.81587 11.9742 4.47126 12.3207C4.31188 12.4809 4.1525 12.6455 3.99312 12.8014C3.76051 13.0266 3.46329 13.0266 3.23499 12.8014C2.89469 12.4636 2.55439 12.1258 2.22271 11.7837C2.01163 11.5671 2.01163 11.2467 2.21409 11.0431C2.41655 10.8396 2.731 10.8396 2.95069 11.0518C3.16607 11.264 3.37714 11.4848 3.60544 11.723Z" fill="#5B5B5B"/>
</svg>
