<svg width="15" height="17" viewBox="0 0 15 17" fill="none" xmlns="http://www.w3.org/2000/svg">
<g clip-path="url(#clip0_3134_44)">
<path d="M4.24744 1.62793C4.24744 1.45903 4.24314 1.2988 4.24744 1.13856C4.25606 0.822425 4.46713 0.601562 4.77728 0.601562C6.49169 0.601562 8.20611 0.601562 9.92052 0.601562C10.2221 0.601562 10.4331 0.822425 10.4417 1.12557C10.446 1.2858 10.4417 1.45037 10.4417 1.63659C10.502 1.63659 10.558 1.63659 10.614 1.63659C11.2946 1.63659 11.9795 1.63659 12.6601 1.63659C13.4829 1.63659 14.0515 2.2039 14.0515 3.03105C14.0515 6.94162 14.0515 10.8522 14.0515 14.7628C14.0515 15.5899 13.4829 16.1572 12.6601 16.1572C9.11501 16.1572 5.56556 16.1572 2.02043 16.1572C1.2063 16.1572 0.637695 15.5856 0.637695 14.7714C0.637695 10.8609 0.637695 6.94595 0.637695 3.02672C0.637695 2.21256 1.2063 1.64092 2.01612 1.64092C2.73979 1.64092 3.46777 1.64092 4.19145 1.64092C4.20437 1.63659 4.21298 1.63226 4.24744 1.62793ZM4.24744 2.67594C3.49793 2.67594 2.76564 2.67594 2.03766 2.67594C1.77059 2.67594 1.67151 2.77988 1.67151 3.04838C1.67151 6.95029 1.67151 10.8479 1.67151 14.7498C1.67151 15.0183 1.77059 15.1222 2.04197 15.1222C5.57849 15.1222 9.11501 15.1222 12.6515 15.1222C12.9229 15.1222 13.022 15.0226 13.022 14.7498C13.022 10.8479 13.022 6.95029 13.022 3.04838C13.022 2.77555 12.9229 2.67594 12.6558 2.67594C11.9666 2.67594 11.2817 2.67594 10.5925 2.67594C10.5451 2.67594 10.502 2.68027 10.446 2.6846C10.446 2.85783 10.4504 3.01806 10.446 3.1783C10.4417 3.4901 10.2264 3.70663 9.91621 3.70663C8.20611 3.70663 6.50031 3.70663 4.7902 3.70663C4.48005 3.70663 4.26467 3.48577 4.26037 3.17396C4.24744 3.02239 4.24744 2.85783 4.24744 2.67594ZM9.39931 1.64958C8.02088 1.64958 6.65538 1.64958 5.29419 1.64958C5.29419 1.99603 5.29419 2.33382 5.29419 2.66728C6.6683 2.66728 8.0295 2.66728 9.39931 2.66728C9.39931 2.32949 9.39931 1.99603 9.39931 1.64958Z" fill="#651DBD"/>
<path d="M9.66651 5.79004C10.248 5.79004 10.8252 5.79004 11.4068 5.79004C11.7514 5.79004 11.984 5.99791 11.9883 6.30539C11.9883 6.61286 11.7557 6.82939 11.4154 6.82939C10.248 6.82939 9.08499 6.82939 7.91763 6.82939C7.57734 6.82939 7.34473 6.61286 7.34473 6.30539C7.34903 5.99791 7.58164 5.79004 7.92625 5.79004C8.50777 5.79004 9.08499 5.79004 9.66651 5.79004Z" fill="#651DBD"/>
<path d="M9.66651 8.89941C10.248 8.89941 10.8252 8.89941 11.4068 8.89941C11.7514 8.89941 11.984 9.10728 11.9883 9.41476C11.9926 9.72224 11.7557 9.93877 11.4154 9.93877C10.248 9.93877 9.08499 9.93877 7.91763 9.93877C7.57734 9.93877 7.34473 9.72224 7.34473 9.41476C7.34903 9.10728 7.58164 8.89941 7.92625 8.89941C8.50346 8.89941 9.08499 8.89941 9.66651 8.89941Z" fill="#651DBD"/>
<path d="M9.67114 12.0127C10.2527 12.0127 10.8299 12.0127 11.4114 12.0127C11.7517 12.0127 11.9886 12.2249 11.9886 12.5324C11.9886 12.8398 11.7517 13.052 11.4114 13.052C10.2354 13.052 9.05946 13.052 7.88349 13.052C7.59919 13.052 7.37951 12.8572 7.34936 12.5887C7.32351 12.3332 7.4872 12.095 7.74134 12.03C7.80165 12.0127 7.87057 12.0127 7.93088 12.0127C8.5124 12.0127 9.08962 12.0127 9.67114 12.0127Z" fill="#651DBD"/>
<path d="M4.24273 6.09706C4.63902 5.69864 5.01809 5.31754 5.39716 4.93644C5.52638 4.80653 5.67715 4.73723 5.86237 4.76322C6.06483 4.79353 6.20698 4.90613 6.2759 5.10534C6.34913 5.31321 6.29744 5.49943 6.14237 5.65533C5.77191 6.0321 5.39716 6.40453 5.0267 6.77697C4.88886 6.91555 4.75533 7.05413 4.61748 7.18838C4.39349 7.40058 4.10058 7.40058 3.88089 7.18405C3.53628 6.84626 3.19598 6.49981 2.85569 6.15335C2.64461 5.93682 2.64461 5.61636 2.84707 5.41281C3.04953 5.20927 3.36398 5.20927 3.58367 5.42148C3.80335 5.64234 4.01442 5.8632 4.24273 6.09706Z" fill="#651DBD"/>
<path d="M4.24703 9.21131C4.63902 8.8129 5.0224 8.43613 5.39716 8.0507C5.52638 7.92078 5.67715 7.85149 5.86237 7.87748C6.06483 7.90779 6.20698 8.02039 6.2759 8.21527C6.34913 8.42314 6.29744 8.60936 6.14237 8.76526C5.77622 9.13769 5.40577 9.5058 5.03963 9.87823C4.89748 10.0211 4.75963 10.1641 4.61748 10.3026C4.39349 10.5148 4.10058 10.5148 3.88089 10.3026C3.53628 9.96485 3.19598 9.61839 2.85569 9.27194C2.64461 9.05541 2.64461 8.73494 2.84707 8.5314C3.04953 8.32786 3.36398 8.32786 3.58367 8.54006C3.69566 8.64833 3.80335 8.76093 3.91535 8.87352C4.01873 8.97746 4.12642 9.08573 4.24703 9.21131Z" fill="#651DBD"/>
<path d="M4.2433 12.3246C4.6396 11.9262 5.01867 11.5451 5.39773 11.164C5.52696 11.0341 5.67772 10.9648 5.86295 10.9908C6.06541 11.0211 6.20756 11.1337 6.27648 11.3285C6.34971 11.5364 6.29802 11.7226 6.14294 11.8785C5.79834 12.225 5.45373 12.5758 5.10912 12.9222C4.94974 13.0825 4.79036 13.247 4.63098 13.4029C4.39837 13.6281 4.10115 13.6281 3.87285 13.4029C3.53255 13.0651 3.19225 12.7273 2.86057 12.3852C2.6495 12.1687 2.6495 11.8482 2.85195 11.6447C3.05441 11.4411 3.36886 11.4411 3.58855 11.6533C3.80393 11.8655 4.015 12.0864 4.2433 12.3246Z" fill="#651DBD"/>
</g>
<defs>
<clipPath id="clip0_3134_44">
<rect width="13.4138" height="15.56" fill="white" transform="translate(0.637695 0.601562)"/>
</clipPath>
</defs>
</svg>
