<svg width="1050" height="1000" viewBox="0 0 1050 1000" fill="none" xmlns="http://www.w3.org/2000/svg">
<g clip-path="url(#clip0_186_267)">
<path d="M28.2289 234.62L115.561 -0.484245L1383 -36V1091L578.571 1064.99C403.71 1042.18 302.749 910.42 274.126 847.392L38.9625 399.193C-2.57395 329.662 15.0558 268.135 28.2289 234.62Z" fill="url(#paint0_linear_186_267)"/>
<path d="M104.581 168.817V121.205C113.211 128.446 122.584 133.902 132.701 137.572C142.819 141.143 153.035 142.928 163.351 142.928C169.402 142.928 174.659 142.383 179.123 141.291C183.685 140.2 187.455 138.713 190.43 136.828C193.505 134.844 195.787 132.563 197.274 129.984C198.762 127.306 199.506 124.429 199.506 121.354C199.506 117.188 198.316 113.469 195.935 110.195C193.555 106.922 190.281 103.897 186.115 101.119C182.049 98.342 177.188 95.6639 171.534 93.0849C165.881 90.506 159.78 87.8774 153.234 85.1993C136.57 78.256 124.121 69.7752 115.889 59.757C107.755 49.7387 103.688 37.6375 103.688 23.4533C103.688 12.344 105.92 2.8217 110.384 -5.11353C114.847 -13.1479 120.898 -19.7441 128.535 -24.902C136.272 -30.0599 145.199 -33.8291 155.317 -36.2097C165.434 -38.6895 176.147 -39.9293 187.455 -39.9293C198.564 -39.9293 208.384 -39.235 216.914 -37.8464C225.544 -36.5569 233.479 -34.5235 240.72 -31.7461V12.7407C237.149 10.261 233.231 8.07879 228.966 6.19418C224.8 4.30956 220.485 2.77211 216.021 1.58182C211.558 0.292348 207.094 -0.64996 202.631 -1.2451C198.266 -1.84024 194.1 -2.13782 190.133 -2.13782C184.677 -2.13782 179.718 -1.59227 175.254 -0.501175C170.791 0.490729 167.021 1.92899 163.946 3.81361C160.872 5.69822 158.491 7.9796 156.805 10.6577C155.118 13.2367 154.275 16.1628 154.275 19.4361C154.275 23.0069 155.218 26.2306 157.102 29.1072C158.987 31.8845 161.665 34.5626 165.137 37.1416C168.608 39.6213 172.824 42.1011 177.783 44.5809C182.743 46.9614 188.347 49.4412 194.596 52.0201C203.127 55.591 210.764 59.4098 217.509 63.4766C224.353 67.4442 230.206 71.9574 235.066 77.0161C239.926 82.0748 243.646 87.8774 246.225 94.424C248.804 100.871 250.093 108.41 250.093 117.039C250.093 128.942 247.812 138.96 243.249 147.094C238.786 155.129 232.685 161.675 224.949 166.734C217.212 171.693 208.185 175.264 197.87 177.446C187.653 179.629 176.841 180.72 165.434 180.72C153.73 180.72 142.571 179.728 131.958 177.744C121.443 175.76 112.318 172.784 104.581 168.817ZM328.206 159.295H327.611V247.078H280.594V24.6436H327.611V47.5566H328.206C339.811 29.8015 356.128 20.9239 377.156 20.9239C396.895 20.9239 412.121 27.7185 422.833 41.3076C433.645 54.7975 439.051 73.1973 439.051 96.507C439.051 121.9 432.752 142.283 420.155 157.658C407.657 173.032 390.993 180.72 370.163 180.72C351.813 180.72 337.827 173.578 328.206 159.295ZM326.867 96.8046V109.005C326.867 119.519 329.644 128.099 335.199 134.745C340.753 141.391 348.044 144.714 357.07 144.714C367.783 144.714 376.065 140.597 381.917 132.364C387.869 124.032 390.844 112.278 390.844 97.1022C390.844 70.3208 380.429 56.9301 359.599 56.9301C349.978 56.9301 342.092 60.6001 335.943 67.9402C329.892 75.1811 326.867 84.8025 326.867 96.8046ZM606.435 114.212H507.046C508.633 136.332 522.569 147.392 548.855 147.392C565.618 147.392 580.348 143.424 593.044 135.489V169.412C578.959 176.95 560.658 180.72 538.142 180.72C513.543 180.72 494.449 173.925 480.86 160.336C467.271 146.648 460.476 127.603 460.476 103.202C460.476 77.9088 467.816 57.8724 482.496 43.093C497.176 28.3136 515.229 20.9239 536.654 20.9239C558.873 20.9239 576.033 27.5201 588.134 40.7124C600.334 53.9047 606.435 71.8086 606.435 94.424V114.212ZM562.841 85.3481C562.841 63.5262 554.013 52.6153 536.357 52.6153C528.818 52.6153 522.272 55.7398 516.717 61.9888C511.262 68.2378 507.939 76.0242 506.748 85.3481H562.841ZM761.172 177H716.685V155.129H716.09C705.873 172.189 690.747 180.72 670.71 180.72C655.931 180.72 644.276 176.554 635.745 168.222C627.314 159.79 623.099 148.582 623.099 134.596C623.099 105.037 640.606 87.9766 675.62 83.4139L716.982 77.9088C716.982 61.2448 707.956 52.9128 689.903 52.9128C671.752 52.9128 654.492 58.3187 638.126 69.1305V33.7195C644.673 30.347 653.6 27.3713 664.907 24.7924C676.314 22.2134 686.68 20.9239 696.004 20.9239C739.449 20.9239 761.172 42.597 761.172 85.9432V177ZM716.982 115.105V104.839L689.308 108.41C674.033 110.394 666.395 117.287 666.395 129.091C666.395 134.447 668.23 138.861 671.9 142.333C675.67 145.705 680.728 147.392 687.076 147.392C695.904 147.392 703.096 144.366 708.65 138.316C714.205 132.166 716.982 124.429 716.982 115.105ZM951.022 177H894.632L845.979 101.417H845.384V177H798.368V-48.5589H845.384V95.0192H845.979L891.359 24.6436H947.154L892.549 96.2094L951.022 177ZM1095.64 177H1051.15V155.129H1050.56C1040.34 172.189 1025.22 180.72 1005.18 180.72C990.401 180.72 978.746 176.554 970.215 168.222C961.784 159.79 957.569 148.582 957.569 134.596C957.569 105.037 975.076 87.9766 1010.09 83.4139L1051.45 77.9088C1051.45 61.2448 1042.43 52.9128 1024.37 52.9128C1006.22 52.9128 988.962 58.3187 972.596 69.1305V33.7195C979.143 30.347 988.07 27.3713 999.377 24.7924C1010.78 22.2134 1021.15 20.9239 1030.47 20.9239C1073.92 20.9239 1095.64 42.597 1095.64 85.9432V177ZM1051.45 115.105V104.839L1023.78 108.41C1008.5 110.394 1000.87 117.287 1000.87 129.091C1000.87 134.447 1002.7 138.861 1006.37 142.333C1010.14 145.705 1015.2 147.392 1021.55 147.392C1030.37 147.392 1037.57 144.366 1043.12 138.316C1048.67 132.166 1051.45 124.429 1051.45 115.105Z" fill="white" fill-opacity="0.09"/>
</g>
<defs>
<linearGradient id="paint0_linear_186_267" x1="246.7" y1="-23.9946" x2="1056.16" y2="1040.15" gradientUnits="userSpaceOnUse">
<stop stop-color="#8154EF"/>
<stop offset="1" stop-color="#9856F4"/>
</linearGradient>
<clipPath id="clip0_186_267">
<rect width="1050" height="1000" fill="white"/>
</clipPath>
</defs>
</svg>
