<svg width="90" height="30" viewBox="0 0 90 30" fill="none" xmlns="http://www.w3.org/2000/svg">
<rect width="90" height="30" rx="15" fill="#51DE8B" fill-opacity="0.1"/>
<path d="M40.0371 20V11.5977H42.7031C43.5156 11.5977 44.1582 11.7754 44.6309 12.1309C45.1074 12.4863 45.3457 12.9492 45.3457 13.5195C45.3457 13.9961 45.2109 14.4102 44.9414 14.7617C44.6719 15.1133 44.2988 15.3633 43.8223 15.5117V15.5352C44.4004 15.6016 44.8613 15.8164 45.2051 16.1797C45.5527 16.5391 45.7266 17.0078 45.7266 17.5859C45.7266 18.3047 45.4434 18.8867 44.877 19.332C44.3105 19.7773 43.5957 20 42.7324 20H40.0371ZM41.4258 12.7168V15.1074H42.3281C42.8125 15.1074 43.1914 14.9941 43.4648 14.7676C43.7422 14.5371 43.8809 14.2129 43.8809 13.7949C43.8809 13.0762 43.4004 12.7168 42.4395 12.7168H41.4258ZM41.4258 16.2266V18.8867H42.6152C43.1348 18.8867 43.5352 18.7676 43.8164 18.5293C44.1016 18.2871 44.2441 17.9551 44.2441 17.5332C44.2441 16.6621 43.6406 16.2266 42.4336 16.2266H41.4258ZM48.5039 20H47.1387V11.1172H48.5039V20ZM52.9395 20.1406C52.0137 20.1406 51.2734 19.8613 50.7188 19.3027C50.168 18.7402 49.8926 17.9961 49.8926 17.0703C49.8926 16.0625 50.1797 15.2754 50.7539 14.709C51.332 14.1426 52.1094 13.8594 53.0859 13.8594C54.0234 13.8594 54.7539 14.1348 55.2773 14.6855C55.8008 15.2363 56.0625 16 56.0625 16.9766C56.0625 17.9336 55.7793 18.7012 55.2129 19.2793C54.6504 19.8535 53.8926 20.1406 52.9395 20.1406ZM53.0039 14.9434C52.4727 14.9434 52.0527 15.1289 51.7441 15.5C51.4355 15.8711 51.2812 16.3828 51.2812 17.0352C51.2812 17.6641 51.4375 18.1602 51.75 18.5234C52.0625 18.8828 52.4805 19.0625 53.0039 19.0625C53.5391 19.0625 53.9492 18.8848 54.2344 18.5293C54.5234 18.1738 54.668 17.668 54.668 17.0117C54.668 16.3516 54.5234 15.8418 54.2344 15.4824C53.9492 15.123 53.5391 14.9434 53.0039 14.9434ZM61.7461 19.7246C61.2656 20.002 60.6973 20.1406 60.041 20.1406C59.1504 20.1406 58.4316 19.8633 57.8848 19.3086C57.3379 18.75 57.0645 18.0273 57.0645 17.1406C57.0645 16.1523 57.3574 15.3594 57.9434 14.7617C58.5332 14.1602 59.3203 13.8594 60.3047 13.8594C60.8516 13.8594 61.334 13.9551 61.752 14.1465V15.4121C61.334 15.0996 60.8887 14.9434 60.416 14.9434C59.8418 14.9434 59.3711 15.1387 59.0039 15.5293C58.6367 15.916 58.4531 16.4238 58.4531 17.0527C58.4531 17.6738 58.625 18.1641 58.9688 18.5234C59.3164 18.8828 59.7812 19.0625 60.3633 19.0625C60.8516 19.0625 61.3125 18.8887 61.7461 18.541V19.7246ZM68.543 20H66.8203L64.4883 17.1172H64.4648V20H63.0996V11.1172H64.4648V16.748H64.4883L66.6914 14H68.3262L65.8477 16.8945L68.543 20Z" fill="#2BAB60"/>
<rect x="3" y="3" width="24.9495" height="24.9495" rx="12.4747" fill="white"/>
<g clip-path="url(#clip0_533_8)">
<path d="M9.61572 20.9684C9.61572 18.7627 9.61572 16.5569 9.61572 14.3511C9.76517 13.8669 10.1059 13.7115 10.5901 13.7174C12.3177 13.7294 14.0512 13.7234 15.7788 13.7234C15.8326 13.7234 15.8804 13.7234 15.9461 13.7234C15.9461 13.6636 15.9461 13.6158 15.9461 13.568C15.9461 13.1257 15.9461 12.6893 15.9461 12.2469C15.9521 11.679 16.0657 11.1351 16.3168 10.621C17.0102 9.19828 18.66 8.39727 20.2023 8.738C21.8163 9.09068 22.952 10.4775 22.9939 12.1274C23.0058 12.6893 22.6113 13.1197 22.0554 13.1436C21.5533 13.1615 21.1169 12.7491 21.087 12.2111C21.081 12.1094 21.075 12.0138 21.0571 11.9122C20.9435 11.1231 20.1604 10.5074 19.3654 10.5791C18.4747 10.6568 17.859 11.3264 17.8471 12.223C17.8411 12.6833 17.8471 13.1436 17.8471 13.6098C17.8471 13.6457 17.853 13.6816 17.859 13.7294C17.9845 13.7294 18.0981 13.7294 18.2117 13.7294C18.7198 13.7354 19.0366 14.0402 19.0426 14.5543C19.0486 16.6346 19.0486 18.7208 19.0426 20.8011C19.0426 21.3092 18.7198 21.626 18.2117 21.626C15.6233 21.626 13.035 21.626 10.4526 21.626C10.1657 21.626 9.92059 21.5303 9.75919 21.2853C9.69343 21.1777 9.66354 21.0701 9.61572 20.9684ZM13.5849 18.4458C13.5909 18.6491 13.5849 18.8523 13.5909 19.0615C13.6029 19.3604 13.8121 19.6234 14.093 19.7131C14.5892 19.8745 15.0674 19.5218 15.0794 18.9838C15.0853 18.6072 15.0794 18.2247 15.0853 17.8481C15.0853 17.8002 15.1033 17.7345 15.1391 17.6986C15.4321 17.4177 15.5695 17.0769 15.5337 16.6645C15.4739 15.9651 14.7386 15.4331 14.0572 15.6184C13.5909 15.7439 13.2801 16.0428 13.1665 16.515C13.0529 16.9693 13.1904 17.3639 13.5252 17.6926C13.561 17.7285 13.5849 17.7943 13.5909 17.8481C13.5849 18.0453 13.5849 18.2426 13.5849 18.4458Z" fill="#51DE8B"/>
</g>
<defs>
<clipPath id="clip0_533_8">
<rect width="13.3841" height="12.9537" fill="white" transform="translate(9.61572 8.6604)"/>
</clipPath>
</defs>
</svg>
