<svg width="11" height="11" viewBox="0 0 11 11" fill="none" xmlns="http://www.w3.org/2000/svg">
<path d="M3.01855 0C3.21549 0.0465495 3.40169 0.118164 3.54492 0.268555C3.70605 0.44043 3.78841 0.644531 3.79557 0.880859C3.8099 1.36426 3.84928 1.84408 3.96387 2.31673C4.01042 2.51367 4.07487 2.71061 4.12142 2.90755C4.19303 3.20117 4.12142 3.46256 3.93522 3.70247C3.62728 4.09993 3.32292 4.50456 3.02214 4.90918C3.00423 4.93066 3.00423 4.98437 3.01855 5.01302C3.56641 6.04069 4.28613 6.91797 5.27083 7.55534C5.50358 7.70573 5.74707 7.84538 5.9834 7.99219C6.03711 8.02799 6.0765 8.01725 6.12663 7.98144C6.53483 7.66634 6.94661 7.35482 7.3584 7.04687C7.57682 6.88216 7.82747 6.83919 8.09245 6.90006C8.40755 6.97168 8.71908 7.07194 9.04134 7.12923C9.34928 7.18294 9.66797 7.22233 9.97949 7.22233C10.4844 7.22233 10.8926 7.44075 11.0143 8.00293C11.0143 8.74772 11.0143 9.49251 11.0143 10.2373C10.9534 10.377 10.9069 10.5309 10.8281 10.6598C10.6956 10.8675 10.4772 10.957 10.2409 11.0107C10.0618 11.0107 9.88281 11.0107 9.70378 11.0107C9.66797 11.0036 9.63216 11 9.59993 10.9964C9.20247 10.9499 8.80143 10.9248 8.40755 10.8604C7.30827 10.6813 6.26986 10.3161 5.29232 9.77897C3.74902 8.92676 2.49935 7.75586 1.5612 6.26269C0.73763 4.94499 0.24707 3.5306 0.0751953 2.00163C0.0501302 1.77246 0.0322266 1.53971 0.0107422 1.31055C0.0107422 1.13151 0.0107422 0.952474 0.0107422 0.773437C0.0716146 0.633789 0.118164 0.479818 0.200521 0.350911C0.333008 0.143229 0.551432 0.0537109 0.78418 0C1.52897 0 2.27376 0 3.01855 0Z" fill="#49E76C"/>
</svg>
