<svg width="31" height="30" viewBox="0 0 31 30" fill="none" xmlns="http://www.w3.org/2000/svg">
<path d="M0.333008 20.8467C0.454123 20.3062 0.527614 19.748 0.709287 19.2302C0.920943 18.6249 1.19492 18.0368 1.49712 17.4731C3.813 13.155 6.14887 8.84843 8.46416 4.53028C9.55066 2.50418 11.141 1.15488 13.2905 0.53494C16.6835 -0.443873 20.3011 1.08762 22.0537 4.29429C24.3455 8.48772 26.5949 12.7062 28.8667 16.9119C29.3535 17.813 29.8397 18.7075 30.099 19.7211C31.1902 23.9916 28.3517 28.4907 24.142 29.1278C23.7187 29.192 23.2884 29.2341 22.8609 29.2348C17.8347 29.2421 12.8084 29.2433 7.78156 29.2384C4.18751 29.2348 1.26489 26.7856 0.488811 23.1387C0.430017 22.8636 0.385334 22.5854 0.333596 22.3085C0.333008 21.8212 0.333008 21.3339 0.333008 20.8467ZM15.3354 26.7697C15.3354 26.7734 15.3354 26.7776 15.3354 26.7813C17.8241 26.7813 20.3122 26.7782 22.801 26.7831C23.5606 26.785 24.2926 26.67 24.994 26.3521C27.5139 25.2107 28.8585 21.872 27.3093 19.0217C26.4127 17.3722 25.5278 15.7166 24.6359 14.0647C23.0761 11.1759 21.5457 8.27007 19.9436 5.40699C18.9371 3.60894 17.3373 2.71388 15.3518 2.71144C13.2435 2.70838 11.6225 3.70187 10.5807 5.6222C8.15784 10.0865 5.75201 14.5623 3.34383 19.0358C2.82527 19.9987 2.60949 21.0264 2.71885 22.1355C2.96931 24.6769 4.97946 26.7086 7.43174 26.7575C10.0651 26.81 12.7008 26.7697 15.3354 26.7697Z" fill="#FF7C33"/>
<path d="M14.2049 12.3169C14.2055 11.1106 14.1996 9.90379 14.2078 8.69755C14.2114 8.19438 14.456 7.83184 14.894 7.62397C15.3349 7.41427 15.7518 7.48702 16.1245 7.79882C16.4061 8.03481 16.549 8.35395 16.5496 8.72811C16.5531 11.1308 16.5566 13.5341 16.5478 15.9368C16.5455 16.6118 16.0246 17.1272 15.3884 17.1315C14.7252 17.1358 14.2155 16.6375 14.2084 15.9362C14.1949 14.73 14.2043 13.5237 14.2049 12.3169Z" fill="#FF7C33"/>
<path d="M16.497 21.3325C16.497 21.5453 16.5017 21.758 16.4958 21.9702C16.4794 22.6268 15.9508 23.1569 15.3211 23.1514C14.7062 23.1465 14.1753 22.6213 14.1594 21.9861C14.1482 21.5514 14.1494 21.1155 14.1588 20.6802C14.1729 20.0199 14.6938 19.5064 15.3353 19.5088C15.9755 19.5112 16.4817 20.0266 16.4964 20.6949C16.5011 20.9076 16.497 21.1198 16.497 21.3325Z" fill="#FF7C33"/>
</svg>
