<svg width="14" height="14" viewBox="0 0 14 14" fill="none" xmlns="http://www.w3.org/2000/svg">
<path d="M11.6766 10.3274C12.2179 10.8687 12.7675 11.4017 13.2974 11.9533C13.9037 12.5865 13.662 13.5875 12.848 13.8333C12.3759 13.9748 11.9782 13.8333 11.6311 13.4821C10.154 11.996 8.67336 10.5154 7.18932 9.04032C7.10152 8.95252 7.00959 8.86781 6.87943 8.74592C6.77613 8.87608 6.69666 8.98247 6.60575 9.0744C5.12585 10.5564 3.64355 12.037 2.15882 13.5162C1.67022 14.0027 0.970888 14.012 0.519478 13.5585C0.0680687 13.1051 0.0845922 12.415 0.566991 11.9182C0.805608 11.6734 1.04939 11.4348 1.29007 11.1951L5.29587 7.19439C5.27988 7.15822 5.26056 7.12363 5.23807 7.0911L1.94395 3.79282C1.46155 3.30939 0.965727 2.83834 0.49779 2.33942C0.365024 2.20049 0.270285 2.0297 0.2227 1.84352C0.175115 1.65734 0.176306 1.46205 0.22613 1.27646C0.275954 1.09086 0.372742 0.921219 0.507171 0.783901C0.641601 0.646584 0.809104 0.546215 0.993597 0.492458C1.46877 0.355072 1.86233 0.513123 2.20734 0.860202C3.67692 2.33804 5.15029 3.81175 6.62744 5.28132C6.71628 5.37119 6.81128 5.45486 6.95176 5.59122C7.04576 5.47552 7.11913 5.36809 7.20899 5.28132C8.68133 3.80692 10.154 2.33288 11.627 0.859168C11.9627 0.521385 12.3501 0.371606 12.8098 0.498662C13.6795 0.738312 13.912 1.76508 13.2426 2.43858C11.7655 3.92399 10.2849 5.40459 8.80082 6.88037C8.71095 6.97023 8.62621 7.06527 8.52705 7.1696C8.62001 7.2729 8.69652 7.3545 8.77813 7.43611C9.7443 8.39884 10.7104 9.3626 11.6766 10.3274Z" fill="#666666"/>
</svg>
