<svg width="15" height="16" viewBox="0 0 15 16" fill="none" xmlns="http://www.w3.org/2000/svg">
<path d="M4.09091 4.10811C4.09091 3.74987 4.39617 3.45946 4.77273 3.45946H11.1364C11.5129 3.45946 11.8182 3.74987 11.8182 4.10811C11.8182 4.46635 11.5129 4.75676 11.1364 4.75676H4.77273C4.39617 4.75676 4.09091 4.46635 4.09091 4.10811Z" fill="#5B5B5B"/>
<path d="M4.77273 6.05405C4.39617 6.05405 4.09091 6.34446 4.09091 6.7027C4.09091 7.06094 4.39617 7.35135 4.77273 7.35135H9.31818C9.69474 7.35135 10 7.06094 10 6.7027C10 6.34446 9.69474 6.05405 9.31818 6.05405H4.77273Z" fill="#5B5B5B"/>
<path fill-rule="evenodd" clip-rule="evenodd" d="M4.31818 0C1.93332 0 0 1.83926 0 4.10811V12.7568C0 14.548 1.5263 16 3.40909 16H13.4091C14.2877 16 15 15.3224 15 14.4865V1.51351C15 0.677623 14.2877 0 13.4091 0H4.31818ZM13.6364 9.51351V1.51351C13.6364 1.3941 13.5346 1.2973 13.4091 1.2973H4.31818C2.68643 1.2973 1.36364 2.55574 1.36364 4.10811V10.1619C1.9334 9.75477 2.64163 9.51351 3.40909 9.51351H13.6364ZM13.6364 10.8108H3.40909C2.27942 10.8108 1.36364 11.682 1.36364 12.7568C1.36364 13.8315 2.27942 14.7027 3.40909 14.7027H13.4091C13.5346 14.7027 13.6364 14.6059 13.6364 14.4865V10.8108Z" fill="#5B5B5B"/>
</svg>
