<svg width="16" height="13" viewBox="0 0 16 13" fill="none" xmlns="http://www.w3.org/2000/svg">
<path d="M0.719727 7.68912C0.756419 7.40859 0.785774 7.12437 0.833474 6.84753C1.16371 4.96872 2.08103 3.44058 3.55241 2.24464C4.59081 1.39936 5.78333 0.878908 7.10427 0.686967C8.54262 0.47657 9.93328 0.657437 11.2689 1.25172C11.5918 1.39567 11.7312 1.72049 11.6028 2.02686C11.478 2.33323 11.1478 2.47349 10.8249 2.34061C10.3222 2.13021 9.81219 1.96042 9.27281 1.87183C9.12237 1.84599 8.9756 1.83123 8.80681 1.81277C8.80681 2.11176 8.81048 2.39967 8.80681 2.68758C8.79947 3.02348 8.56097 3.27079 8.24174 3.28186C7.91151 3.29293 7.64732 3.04193 7.63998 2.69496C7.63264 2.40705 7.63998 2.11914 7.63998 1.80539C5.55583 2.05639 3.97071 3.06408 2.82222 4.82846C3.08641 4.95765 3.33959 5.07946 3.59277 5.20127C3.75789 5.27878 3.88631 5.39321 3.94502 5.57408C4.01841 5.80662 3.96337 6.01333 3.79091 6.17943C3.60745 6.3566 3.38362 6.39352 3.15246 6.29016C2.86992 6.16835 2.5984 6.02809 2.31953 5.89521C1.70676 7.39751 1.70309 9.49041 2.70847 11.24C2.91395 11.1404 3.11943 11.0333 3.33225 10.9373C3.43132 10.8931 3.5414 10.8488 3.65148 10.8377C3.91567 10.8118 4.15417 10.9816 4.23856 11.2326C4.32296 11.4836 4.23856 11.7789 4.0074 11.9007C3.56708 12.1333 3.11943 12.3548 2.66811 12.5578C2.41493 12.6685 2.14341 12.5541 1.98563 12.3105C1.41322 11.4357 1.02428 10.4833 0.848151 9.44981C0.796781 9.15082 0.767427 8.84814 0.727065 8.54916C0.719727 8.26125 0.719727 7.97703 0.719727 7.68912Z" fill="#651DBD"/>
<path d="M8.22386 9.91062C7.51202 9.91062 6.88091 9.48983 6.60204 8.82911C6.33052 8.18315 6.45527 7.40432 6.96163 6.92447C7.27719 6.62548 7.63311 6.37079 7.98536 6.11979C9.54113 5.01982 11.1042 3.93093 12.6674 2.83834C12.8802 2.687 13.104 2.6464 13.3388 2.77559C13.5443 2.89002 13.6544 3.07458 13.6324 3.31081C13.6214 3.42893 13.5773 3.55443 13.5113 3.6504C12.2894 5.41478 11.0639 7.17177 9.83468 8.93246C9.70992 9.10964 9.57783 9.27943 9.42372 9.43077C9.10816 9.74821 8.67885 9.91062 8.22386 9.91062ZM10.7226 5.65839C10.7153 5.65101 10.708 5.63994 10.7006 5.63256C10.4768 5.79128 10.253 5.94261 10.0328 6.10503C9.32098 6.62179 8.60914 7.13855 7.8973 7.65901C7.68815 7.81035 7.59275 8.01705 7.65146 8.27543C7.70283 8.51167 7.85327 8.6667 8.0881 8.72207C8.34862 8.78112 8.55777 8.68515 8.71555 8.47107C8.82929 8.31604 8.95038 8.16839 9.06046 8.01336C9.61452 7.22345 10.1686 6.44092 10.7226 5.65839Z" fill="#651DBD"/>
<path d="M13.7347 11.2428C14.0246 10.726 14.2374 10.1908 14.3695 9.62234C14.6924 8.24554 14.575 6.90564 14.0209 5.60266C13.9475 5.42917 13.9072 5.25938 13.9769 5.07482C14.0613 4.85335 14.2704 4.70201 14.5052 4.69832C14.7731 4.69463 14.9749 4.82013 15.0666 5.07113C15.2281 5.503 15.4006 5.93117 15.507 6.3778C15.9986 8.49285 15.6354 10.4676 14.4722 12.2911C14.2924 12.5753 13.9989 12.6639 13.6943 12.5236C13.2907 12.339 12.8908 12.1471 12.4908 11.9478C12.1753 11.7928 12.0578 11.4532 12.2009 11.1542C12.344 10.8589 12.6779 10.7445 13.0008 10.8884C13.2467 11.0065 13.4889 11.1247 13.7347 11.2428Z" fill="#651DBD"/>
</svg>
