<svg width="14" height="8" viewBox="0 0 14 8" fill="none" xmlns="http://www.w3.org/2000/svg">
<path d="M12.9649 5.0757C12.8245 5.08088 12.6837 5.07722 12.5432 5.07722H4.27625C4.30977 5.11653 4.32866 5.14183 4.35091 5.16407C4.57885 5.39293 4.81045 5.61844 5.03504 5.85065C5.30017 6.12491 5.38549 6.45433 5.27487 6.81758C5.16456 7.18053 4.91041 7.40938 4.5371 7.48648C4.23358 7.54895 3.95597 7.47734 3.71736 7.275C3.65366 7.22106 3.59576 7.16041 3.53665 7.10129C2.78668 6.35164 2.03672 5.60198 1.28707 4.85202C0.821121 4.38577 0.819902 3.81957 1.28402 3.35514C2.06567 2.57288 2.84672 1.7897 3.6305 1.00927C4.10833 0.533571 4.8522 0.614937 5.18376 1.17444C5.40439 1.54683 5.35624 2.01917 5.05302 2.33305C4.80222 2.59238 4.54045 2.84136 4.28386 3.09459C4.28813 3.10526 4.2927 3.11623 4.29727 3.1269H4.77449C5.70303 3.1269 6.63157 3.12659 7.5598 3.12659V3.1269H8.29727C9.83285 3.1269 11.3681 3.12629 12.9037 3.1272C13.3703 3.1272 13.7341 3.3713 13.8786 3.77568C14.1035 4.40558 13.6509 5.05132 12.9649 5.0757Z" fill="#5BE4AB"/>
</svg>
