<svg width="15" height="12" viewBox="0 0 15 12" fill="none" xmlns="http://www.w3.org/2000/svg">
<path d="M0 7.08707C0.0366928 6.80654 0.066047 6.52232 0.113748 6.24548C0.443982 4.36667 1.3613 2.83853 2.83268 1.64259C3.87109 0.797312 5.0636 0.276857 6.38454 0.084916C7.8229 -0.125481 9.21355 0.0553867 10.5492 0.649665C10.8721 0.793621 11.0115 1.11844 10.8831 1.42481C10.7583 1.73118 10.4281 1.87144 10.1052 1.73856C9.6025 1.52816 9.09247 1.35837 8.55308 1.26978C8.40264 1.24394 8.25587 1.22918 8.08708 1.21072C8.08708 1.50971 8.09075 1.79762 8.08708 2.08553C8.07975 2.42143 7.84124 2.66874 7.52202 2.67981C7.19178 2.69088 6.92759 2.43988 6.92025 2.09291C6.91292 1.805 6.92025 1.51709 6.92025 1.20334C4.83611 1.45434 3.25098 2.46203 2.1025 4.22641C2.36668 4.3556 2.61986 4.47741 2.87304 4.59922C3.03816 4.67673 3.16659 4.79116 3.22529 4.97203C3.29868 5.20457 3.24364 5.41128 3.07118 5.57738C2.88772 5.75455 2.66389 5.79147 2.43273 5.68811C2.1502 5.5663 1.87867 5.42604 1.5998 5.29316C0.987035 6.79546 0.983366 8.88836 1.98875 10.638C2.19423 10.5383 2.39971 10.4313 2.61252 10.3353C2.71159 10.291 2.82167 10.2467 2.93175 10.2356C3.19594 10.2098 3.43444 10.3796 3.51884 10.6306C3.60323 10.8816 3.51884 11.1769 3.28767 11.2987C2.84736 11.5312 2.39971 11.7527 1.94839 11.9557C1.69521 12.0665 1.42368 11.952 1.2659 11.7084C0.693493 10.8336 0.30455 9.88128 0.128425 8.84775C0.0770548 8.54877 0.0477006 8.24609 0.00733855 7.94711C0 7.6592 0 7.37498 0 7.08707Z" fill="#5B5B5B"/>
<path d="M7.50367 9.30906C6.79183 9.30906 6.16072 8.88827 5.88185 8.22755C5.61033 7.58159 5.73508 6.80276 6.24144 6.3229C6.557 6.02392 6.91292 5.76923 7.26517 5.51823C8.82094 4.41826 10.3841 3.32936 11.9472 2.23678C12.16 2.08544 12.3838 2.04484 12.6186 2.17403C12.8241 2.28845 12.9342 2.47301 12.9122 2.70925C12.9012 2.82737 12.8571 2.95286 12.7911 3.04884C11.5692 4.81321 10.3437 6.57021 9.11448 8.3309C8.98973 8.50808 8.85763 8.67787 8.70353 8.82921C8.38797 9.14665 7.95866 9.30906 7.50367 9.30906ZM10.0024 5.05683C9.99511 5.04945 9.98777 5.03838 9.98043 5.03099C9.75661 5.18971 9.53278 5.34105 9.31263 5.50346C8.60079 6.02023 7.88895 6.53699 7.17711 7.05745C6.96796 7.20878 6.87256 7.41549 6.93126 7.67387C6.98263 7.91011 7.13308 8.06514 7.36791 8.1205C7.62843 8.17956 7.83758 8.08359 7.99535 7.8695C8.1091 7.71447 8.23019 7.56683 8.34027 7.4118C8.89433 6.62189 9.44839 5.83936 10.0024 5.05683Z" fill="#5B5B5B"/>
<path d="M13.0149 10.6417C13.3048 10.1249 13.5176 9.58971 13.6497 9.02127C13.9726 7.64446 13.8552 6.30457 13.3011 5.00158C13.2277 4.8281 13.1874 4.65831 13.2571 4.47375C13.3415 4.25228 13.5506 4.10094 13.7855 4.09725C14.0533 4.09356 14.2551 4.21906 14.3469 4.47006C14.5083 4.90192 14.6808 5.3301 14.7872 5.77673C15.2789 7.89177 14.9156 9.86655 13.7525 11.69C13.5727 11.9742 13.2791 12.0628 12.9746 11.9225C12.5709 11.738 12.171 11.546 11.771 11.3467C11.4555 11.1917 11.3381 10.8521 11.4812 10.5531C11.6243 10.2578 11.9582 10.1434 12.2811 10.2873C12.5269 10.4055 12.7691 10.5236 13.0149 10.6417Z" fill="#5B5B5B"/>
</svg>
