<svg width="27" height="27" viewBox="0 0 27 27" fill="none" xmlns="http://www.w3.org/2000/svg">
<path d="M19.1978 0C19.0622 0 18.9265 0 18.7908 0C18.1667 0.22392 17.9293 0.678544 17.9768 1.31638C17.9971 1.53351 17.9768 1.75064 17.9768 1.98135C14.646 1.98135 11.3491 1.98135 8.01835 1.98135C8.01835 1.75064 8.00478 1.53351 8.01835 1.31638C8.0794 0.678544 7.83519 0.22392 7.21109 0C7.07542 0 6.93974 0 6.80407 0C6.19354 0.210349 5.93576 0.651403 5.99003 1.28923C6.01038 1.51994 5.99003 1.75743 5.99003 2.00171C5.6712 2.00171 5.39307 2.00171 5.11493 2.00171C2.7203 2.03563 0.780165 3.4945 0.176418 5.72013C0.108582 5.97798 0.0610975 6.24261 4.44485e-05 6.50724C4.44485e-05 11.5013 4.44485e-05 16.4954 4.44485e-05 21.4895C0.0136118 21.5302 0.0339612 21.5641 0.0407448 21.6049C0.413847 24.2037 2.48965 26.0018 5.11493 26.0086C10.3723 26.0086 15.6228 26.0086 20.8802 26.0018C21.2736 26.0018 21.6807 25.9679 22.0606 25.8797C24.3941 25.3504 25.9951 23.3419 26.0019 20.9535C26.0087 16.319 26.0019 11.6777 26.0019 7.04329C26.0019 6.79902 25.9815 6.55474 25.9476 6.31046C25.6898 4.09162 23.6751 2.17813 21.45 2.03563C20.9819 2.00849 20.5071 2.02885 20.0119 2.02885C20.0119 1.74386 19.9983 1.51315 20.0119 1.28923C20.0662 0.651403 19.8084 0.210349 19.1978 0ZM23.9668 10.0289C23.9668 10.1375 23.9668 10.2257 23.9668 10.3071C23.9668 13.8287 23.9668 17.3504 23.9668 20.872C23.9668 22.6634 22.6711 23.9662 20.8802 23.973C15.6228 23.9798 10.3723 23.9798 5.11493 23.973C3.32404 23.973 2.02836 22.6702 2.02836 20.8788C2.02836 17.3572 2.02836 13.8355 2.02836 10.3139C2.02836 10.2257 2.02836 10.1375 2.02836 10.0357C9.35473 10.0289 16.6472 10.0289 23.9668 10.0289ZM5.99003 4.05091C5.99003 4.7091 5.98324 5.3605 5.99003 6.0119C5.99681 6.58188 6.43097 7.00936 6.98045 7.02293C7.55027 7.02972 7.998 6.60224 8.01156 6.02547C8.01835 5.76084 8.01156 5.503 8.01156 5.23836C8.01156 4.84481 8.01156 4.45125 8.01156 4.05091C11.3491 4.05091 14.646 4.05091 17.9496 4.05091C17.9564 4.08484 17.97 4.10519 17.97 4.11876C17.97 4.74303 17.97 5.37407 17.9768 5.99833C17.9836 6.59545 18.4313 7.02972 19.0079 7.02293C19.5709 7.01615 19.9983 6.58188 20.0051 5.99155C20.0119 5.42157 20.0051 4.85838 20.0051 4.2884C20.0051 4.20698 20.0119 4.12555 20.0187 4.05091C22.9628 3.71164 24.2788 5.69977 23.9261 7.9729C16.6336 7.9729 9.34116 7.9729 2.0555 7.9729C1.73666 5.44193 3.22907 3.74557 5.99003 4.05091Z" fill="#444444"/>
<path d="M18.9803 18.9924C18.6479 18.9924 18.3223 18.9856 17.9899 18.9924C17.4133 19.006 16.9724 19.4538 16.9792 20.0102C16.9859 20.5598 17.4201 21.0077 17.9764 21.0144C18.6547 21.028 19.3263 21.028 20.0047 21.0144C20.5609 21.0077 21.0019 20.553 21.0019 20.0034C21.0087 19.447 20.5609 18.9992 19.9843 18.9856C19.6587 18.9924 19.3195 18.9924 18.9803 18.9924Z" fill="#444444"/>
<path d="M7.0343 21.0281C7.34635 21.0281 7.6584 21.0349 7.97045 21.0281C8.56741 21.0213 9.01514 20.5802 9.01514 20.017C9.01514 19.4471 8.56741 19.006 7.97723 18.9992C7.326 18.9924 6.67477 18.9924 6.02354 18.9992C5.43336 19.006 4.97885 19.4606 4.98563 20.0238C4.99242 20.5802 5.44014 21.0213 6.01675 21.0281C6.35594 21.0281 6.69512 21.0281 7.0343 21.0281Z" fill="#444444"/>
<path d="M6.98682 13.0011C6.65442 13.0011 6.3288 12.9943 5.9964 13.0011C5.42657 13.0146 4.97885 13.4693 4.98563 14.0257C4.99242 14.5753 5.42657 15.0231 5.98962 15.0299C6.66798 15.0435 7.33957 15.0435 8.01794 15.0299C8.58098 15.0231 9.01514 14.5685 9.01514 14.0189C9.01514 13.4625 8.5742 13.0146 7.99759 13.0011C7.66519 13.0011 7.326 13.0011 6.98682 13.0011Z" fill="#444444"/>
<path d="M19.0075 15.0366C19.3399 15.0366 19.6655 15.0434 19.9979 15.0366C20.5678 15.0231 21.0155 14.5684 21.0087 14.012C21.0019 13.4556 20.5542 13.0146 19.9844 13.0078C19.3264 13.001 18.6683 13.001 18.0103 13.0078C17.4337 13.0146 16.9928 13.4556 16.986 14.0188C16.9792 14.5752 17.4269 15.0231 17.9968 15.0366C18.3359 15.0434 18.6751 15.0366 19.0075 15.0366Z" fill="#444444"/>
<path d="M13.0045 15.0366C13.3369 15.0366 13.6626 15.0434 13.995 15.0366C14.5851 15.0231 15.0396 14.5684 15.0261 14.0052C15.0125 13.4488 14.5716 13.0146 13.9882 13.0078C13.3369 13.001 12.6857 13.001 12.0345 13.0078C11.4375 13.0146 10.9966 13.4556 10.9966 14.0256C10.9966 14.5956 11.4443 15.0298 12.0413 15.0366C12.3601 15.0366 12.6857 15.0366 13.0045 15.0366Z" fill="#444444"/>
<path d="M12.9839 18.9925C12.6515 18.9925 12.3259 18.9857 11.9935 18.9925C11.4305 19.0061 10.9963 19.4404 10.9895 19.9968C10.9828 20.5464 11.4101 21.0078 11.9732 21.0214C12.6651 21.0349 13.357 21.0349 14.049 21.0214C14.5917 21.0078 15.019 20.5396 15.019 20.0103C15.019 19.4607 14.5781 19.0129 14.0218 18.9993C13.6827 18.9857 13.3367 18.9925 12.9839 18.9925Z" fill="#444444"/>
</svg>
