<svg width="15" height="15" viewBox="0 0 15 15" fill="none" xmlns="http://www.w3.org/2000/svg">
<path d="M2.20264 3.65366C1.67891 3.65366 1.18682 3.66467 0.695653 3.65045C0.192099 3.6367 -0.137642 3.11617 0.0563504 2.65344C0.17192 2.37781 0.384715 2.22051 0.688774 2.19987C0.751603 2.19574 0.814433 2.19712 0.877721 2.19712C5.1804 2.19712 9.48308 2.19666 13.7858 2.19804C13.8995 2.19804 14.0174 2.19804 14.1256 2.22785C14.4801 2.32415 14.6888 2.65619 14.6443 3.03179C14.6039 3.37208 14.3109 3.64449 13.9527 3.65229C13.5239 3.66146 13.0946 3.6555 12.6654 3.65642C12.6035 3.65642 12.5415 3.65642 12.4535 3.65642C12.4535 3.74401 12.4535 3.81601 12.4535 3.88756C12.4535 6.71947 12.4544 9.55093 12.453 12.3828C12.4526 13.4129 11.8573 14.2554 10.9162 14.5388C10.6952 14.6053 10.4558 14.6383 10.2251 14.6392C8.29711 14.647 6.36866 14.647 4.44066 14.6424C3.14876 14.6392 2.20494 13.689 2.20402 12.3925C2.20127 9.56056 2.2031 6.7291 2.2031 3.89719C2.20265 3.82381 2.20264 3.75135 2.20264 3.65366ZM5.12995 8.41771C5.12995 9.01849 5.12032 9.61926 5.13637 10.2191C5.1405 10.3755 5.19645 10.5484 5.27992 10.6814C5.44456 10.9451 5.7876 11.0428 6.08432 10.9492C6.39984 10.8497 6.59659 10.5686 6.59705 10.1976C6.59934 9.01344 6.59888 7.82977 6.59567 6.64564C6.59521 6.54474 6.58008 6.4388 6.54752 6.34341C6.43561 6.01367 6.10037 5.8128 5.76604 5.86417C5.39503 5.92149 5.13454 6.20766 5.13133 6.58143C5.12674 7.19368 5.13041 7.80592 5.12995 8.41771ZM9.52573 8.42871C9.52573 7.8339 9.52665 7.23908 9.52527 6.64426C9.52435 6.1884 9.21846 5.85866 8.79746 5.85499C8.38058 5.85132 8.06001 6.18382 8.05864 6.63555C8.05542 7.82518 8.05542 9.01482 8.05864 10.2049C8.06001 10.6562 8.38058 10.9891 8.797 10.9859C9.21754 10.9827 9.52389 10.6521 9.52527 10.1967C9.52665 9.60688 9.52573 9.01757 9.52573 8.42871Z" fill="#333333"/>
<path d="M7.31929 1.45647C6.82216 1.45647 6.32457 1.46335 5.82743 1.45418C5.46697 1.4473 5.17621 1.16847 5.13356 0.815338C5.09136 0.463584 5.31287 0.127881 5.65729 0.0279045C5.7114 0.0123117 5.76965 0.00268091 5.8256 0.00268091C6.82583 0.00130508 7.82651 -0.00328102 8.82674 0.00405674C9.18721 0.0068084 9.47705 0.287936 9.52062 0.642442C9.56373 0.993737 9.34268 1.33173 8.99643 1.42804C8.90471 1.45372 8.80473 1.45647 8.70842 1.45739C8.24522 1.46014 7.78249 1.45877 7.31929 1.45877C7.31929 1.45785 7.31929 1.45739 7.31929 1.45647Z" fill="#333333"/>
</svg>
