<svg width="30" height="30" viewBox="0 0 30 30" fill="none" xmlns="http://www.w3.org/2000/svg">
<path d="M3.40268 6.97361C2.80687 6.97361 2.2433 6.97449 1.67972 6.97361C0.949776 6.97098 0.432367 6.50643 0.420172 5.84554C0.407106 5.13907 0.906223 4.6456 1.67363 4.64034C3.71626 4.62807 5.75976 4.62719 7.8024 4.62193C8.0071 4.62105 8.21267 4.62193 8.45308 4.62193C8.46005 4.48695 8.4705 4.37213 8.4705 4.2573C8.47224 3.29489 8.48966 2.33248 8.46614 1.37095C8.4435 0.460253 9.08024 0.00271438 9.81019 0.00884996C13.1577 0.0351453 16.5051 0.0202446 19.8526 0.0211211C20.7063 0.0211211 21.1583 0.474278 21.1601 1.33326C21.1618 2.414 21.1601 3.49474 21.1601 4.62368C21.3056 4.62368 21.431 4.62368 21.5564 4.62368C23.6644 4.62982 25.7723 4.6342 27.8812 4.64297C28.6303 4.6456 29.1068 5.01023 29.2008 5.64131C29.3054 6.33551 28.7975 6.95959 28.0989 6.97361C27.4918 6.98588 26.8838 6.97624 26.2349 6.97624C26.1756 7.56087 26.1155 8.13236 26.0589 8.70385C25.9169 10.1387 25.7784 11.5727 25.6356 13.0075C25.4953 14.4205 25.349 15.8325 25.2096 17.2446C25.0703 18.6575 24.9396 20.0713 24.7994 21.4834C24.6591 22.8963 24.5076 24.3075 24.3673 25.7204C24.1722 27.6768 22.8186 28.9741 20.8352 28.9881C16.8248 29.0153 12.8145 29.0161 8.80411 28.9881C6.76322 28.9732 5.40437 27.5944 5.24497 25.5618C5.11605 23.9183 4.92006 22.2801 4.75717 20.6393C4.59516 19.009 4.4375 17.3787 4.27635 15.7492C4.11259 14.0979 3.94709 12.4466 3.78333 10.7943C3.65616 9.53478 3.5316 8.27523 3.40268 6.97361ZM5.73189 6.98676C5.83206 7.97897 5.93049 8.93437 6.02369 9.89064C6.18484 11.5315 6.33989 13.1732 6.50278 14.8131C6.68744 16.6713 6.87907 18.5287 7.06548 20.386C7.23795 22.1022 7.40084 23.8202 7.58115 25.5364C7.65954 26.2849 8.0942 26.6609 8.8407 26.6609C12.8293 26.6618 16.8179 26.6618 20.8056 26.6609C21.5294 26.6609 21.9798 26.2779 22.0608 25.56C22.1688 24.6055 22.2507 23.6475 22.3439 22.6912C22.4806 21.2888 22.6156 19.8873 22.755 18.4848C22.9188 16.844 23.0886 15.2041 23.2532 13.5641C23.4222 11.8803 23.5886 10.1957 23.755 8.51189C23.8046 8.00702 23.8499 7.50215 23.8978 6.98588C17.8353 6.98676 11.8075 6.98676 5.73189 6.98676ZM18.8187 2.38332C16.1358 2.38332 13.4686 2.38332 10.8145 2.38332C10.8145 3.14939 10.8145 3.87602 10.8145 4.59476C13.4939 4.59476 16.1489 4.59476 18.8187 4.59476C18.8187 3.84271 18.8187 3.11433 18.8187 2.38332Z" fill="#EB4C37"/>
<path d="M9.64736 9.2794C10.2153 9.28729 10.7257 9.72905 10.7815 10.3032C10.9243 11.7696 11.0489 13.2377 11.1813 14.7059C11.3233 16.2713 11.4653 17.8368 11.6081 19.4014C11.7214 20.6407 11.845 21.8793 11.947 23.1186C11.9992 23.7532 11.4879 24.316 10.8573 24.3598C10.2501 24.4019 9.69004 23.9268 9.63081 23.2904C9.4688 21.5409 9.32072 19.7896 9.16218 18.0401C8.99842 16.2354 8.82857 14.4315 8.66307 12.6268C8.59861 11.9203 8.52892 11.2139 8.48101 10.5056C8.43659 9.84036 8.99058 9.27063 9.64736 9.2794Z" fill="#EB4C37"/>
<path d="M17.6849 23.1632C17.8477 21.3848 17.9976 19.765 18.1448 18.1461C18.2632 16.8418 18.3791 15.5367 18.4941 14.2325C18.6082 12.9493 18.7083 11.6652 18.8373 10.3846C18.9087 9.68162 19.4967 9.20305 20.1299 9.28193C20.7823 9.36345 21.2144 9.93581 21.1499 10.6475C20.8973 13.4085 20.6412 16.1687 20.3886 18.9288C20.258 20.3523 20.1116 21.7757 20.0115 23.2009C19.9609 23.9179 19.3608 24.4035 18.7658 24.3544C18.2049 24.3089 17.5995 23.8189 17.6849 23.1632Z" fill="#EB4C37"/>
<path d="M13.6641 16.8164C13.6641 14.7163 13.6641 12.6171 13.6641 10.517C13.6641 9.82101 14.1405 9.29159 14.7834 9.27669C15.4297 9.26179 15.9541 9.75878 15.968 10.453C15.9898 11.5241 15.9811 12.596 15.9811 13.668C15.9802 16.7849 15.9785 19.9018 15.975 23.0186C15.9741 23.6944 15.6954 24.1274 15.1675 24.2966C14.4149 24.5376 13.6702 23.9916 13.6675 23.1799C13.6615 21.0579 13.6658 18.9367 13.6658 16.8147C13.6649 16.8164 13.6641 16.8164 13.6641 16.8164Z" fill="#EB4C37"/>
</svg>
