<svg width="14" height="14" viewBox="0 0 14 14" fill="none" xmlns="http://www.w3.org/2000/svg">
<path d="M0.972108 13.132C0.925347 13.1164 0.877721 13.1008 0.83096 13.0843C0.470732 12.9579 0.244723 12.5847 0.304472 12.2175C0.367686 11.8296 0.68202 11.5464 1.06649 11.5317C1.11672 11.53 1.16608 11.5309 1.2163 11.5309C4.85236 11.5309 8.48928 11.5309 12.1253 11.5309C12.7038 11.5309 12.896 11.6633 13.1012 12.2063C13.1012 12.2894 13.1012 12.3734 13.1012 12.4565C13.0735 12.5336 13.0519 12.6133 13.0164 12.686C12.896 12.9337 12.6839 13.0636 12.4258 13.1311C8.60791 13.132 4.79001 13.132 0.972108 13.132Z" fill="white"/>
<path d="M7.53896 7.28878C7.56581 7.25155 7.58745 7.20998 7.61949 7.17794C8.06632 6.72939 8.51314 6.27997 8.96342 5.83401C9.18597 5.6132 9.45701 5.54306 9.75662 5.62792C10.0536 5.71278 10.2433 5.91541 10.3108 6.21502C10.3784 6.51464 10.2883 6.77269 10.071 6.98917C9.31846 7.73993 8.56769 8.49243 7.81606 9.24406C7.64201 9.41811 7.46969 9.59303 7.2939 9.76535C6.93541 10.1187 6.46087 10.1213 6.10584 9.76708C5.17669 8.8414 4.24928 7.91225 3.321 6.98397C3.09239 6.75537 3.01013 6.4826 3.09845 6.17173C3.18331 5.87558 3.38594 5.68507 3.68556 5.61666C3.97911 5.54999 4.23629 5.63398 4.45104 5.84873C4.89267 6.29123 5.33516 6.73285 5.77679 7.17534C5.80883 7.20738 5.8348 7.24635 5.86338 7.28272C5.8755 7.27839 5.88676 7.27406 5.89888 7.26973C5.89888 7.22297 5.89888 7.17621 5.89888 7.12945C5.89888 5.14127 5.89802 3.15308 5.89888 1.16403C5.89888 0.677377 6.25132 0.318015 6.71632 0.325808C7.13284 0.332735 7.47921 0.669584 7.4974 1.0861C7.50173 1.18568 7.49913 1.28613 7.49913 1.38658C7.49913 3.30029 7.49913 5.21314 7.49913 7.12685C7.49913 7.17188 7.49913 7.21691 7.49913 7.26194C7.51212 7.2706 7.52597 7.28012 7.53896 7.28878Z" fill="white"/>
</svg>
