<svg width="18" height="19" viewBox="0 0 18 19" fill="none" xmlns="http://www.w3.org/2000/svg">
<path d="M0 17.4711C0.102615 17.0823 0.21256 16.6971 0.31151 16.3082C0.575377 15.2627 0.828249 14.2171 1.09578 13.1753C1.12143 13.0689 1.1874 12.9552 1.26436 12.8781C4.50773 9.62411 7.75842 6.37377 11.0055 3.12343C11.0384 3.09042 11.0714 3.06107 11.0934 3.04272C12.3761 4.32672 13.6515 5.60338 14.9451 6.89838C14.9268 6.91672 14.8865 6.96441 14.8462 7.00843C11.6138 10.2404 8.38511 13.4761 5.14907 16.7044C5.05379 16.7998 4.92185 16.8768 4.79359 16.9099C3.39362 17.2694 1.99366 17.6142 0.590036 17.9664C0.557053 17.9737 0.524069 17.9921 0.494751 18.0031C0.425119 18.0031 0.355488 18.0031 0.282191 18.0031C0.186906 17.9077 0.0952853 17.816 0 17.7206C0 17.6362 0 17.5519 0 17.4711Z" fill="#444444"/>
<path d="M16.0959 5.75371C14.8059 4.46237 13.5268 3.18205 12.2368 1.89072C12.585 1.54221 12.9368 1.18636 13.2959 0.834174C13.4572 0.672758 13.6185 0.504004 13.798 0.371936C14.5163 -0.160004 15.5755 -0.11965 16.2351 0.481993C16.6859 0.892871 17.1184 1.32576 17.5252 1.77699C18.1298 2.44834 18.1555 3.4682 17.6168 4.19457C17.5471 4.28995 17.4702 4.378 17.3859 4.45871C16.9571 4.8916 16.521 5.32448 16.0959 5.75371Z" fill="#444444"/>
</svg>
