<svg width="20" height="14" viewBox="0 0 20 14" fill="none" xmlns="http://www.w3.org/2000/svg">
<path d="M20 12.5195C19.9374 12.6961 19.8904 12.8779 19.8017 13.0442C19.473 13.6519 18.9617 13.9948 18.2625 13.9948C12.7576 14 7.24759 14 1.74276 13.9948C0.782677 13.9948 0 13.2208 0 12.2649C0 8.75325 0 5.24156 0 1.72987C0 0.779221 0.782677 0 1.74276 0C7.24237 0 12.742 0 18.2416 0C19.0556 0 19.7495 0.54026 19.953 1.32987C19.9635 1.38182 19.9843 1.42857 20 1.47532C20 5.15844 20 8.84156 20 12.5195ZM2.05583 1.17403C2.11323 1.24156 2.14975 1.28312 2.1915 1.32468C4.62301 3.75065 7.04931 6.18182 9.48082 8.60779C9.80955 8.93506 10.1957 8.92987 10.5244 8.5974C12.9507 6.17662 15.377 3.75065 17.8033 1.32987C17.845 1.28831 17.8816 1.24156 17.939 1.17403C12.6376 1.17403 7.3676 1.17403 2.05583 1.17403ZM2.05061 12.8208C7.3676 12.8208 12.6376 12.8208 17.9442 12.8208C16.2588 11.1584 14.5943 9.52208 12.8985 7.85454C12.8776 7.88052 12.8463 7.94805 12.7942 8C12.3037 8.49351 11.8132 8.98701 11.3175 9.47532C10.8114 9.96883 10.2113 10.1247 9.52257 9.96364C9.16775 9.88052 8.88077 9.68831 8.63032 9.43377C8.10331 8.90909 7.57109 8.38442 7.06496 7.88571C5.40569 9.51688 3.7412 11.1584 2.05061 12.8208ZM6.19358 6.9974C4.51344 5.34026 2.83851 3.69351 1.18967 2.07273C1.18967 5.34026 1.18967 8.66493 1.18967 11.9221C2.83851 10.3013 4.51344 8.65454 6.19358 6.9974ZM18.8156 2.0987C17.1719 3.71429 15.497 5.36104 13.8116 7.01818C15.4866 8.66493 17.1563 10.3117 18.8156 11.9481C18.8156 8.65974 18.8156 5.34026 18.8156 2.0987Z" fill="white"/>
</svg>
