<svg width="21" height="21" viewBox="0 0 21 21" fill="none" xmlns="http://www.w3.org/2000/svg">
<path d="M18.8144 18.3286C18.8114 19.8395 17.8812 20.7785 16.3865 20.7815H2.76708C1.29014 20.7785 0.336213 19.8154 0.336213 18.3256C0.333241 13.7178 0.333241 9.11302 0.336213 4.50522C0.336213 3.00339 1.26042 2.07039 2.74628 2.06738H7.36136V4.01765H2.30943V18.7801H16.8619V13.6817H18.8025C18.8084 14.5334 18.8173 17.0495 18.8144 18.3286Z" fill="#F9F9F9"/>
<path d="M20.074 1.37489V8.19481C20.074 8.73053 19.6431 9.16392 19.1171 9.16392C18.5911 9.16392 18.1602 8.73053 18.1602 8.19481V4.18893L10.6418 11.8546C10.4456 12.0562 10.1841 12.1555 9.9226 12.1555C9.66703 12.1555 9.40849 12.0592 9.21235 11.8606C9.01622 11.668 8.90924 11.4091 8.90924 11.1322C8.90627 10.8584 9.01325 10.5965 9.20641 10.4039L16.7576 2.75633H12.7546C12.2287 2.75633 11.7978 2.32294 11.7978 1.75712C11.7978 1.22441 12.2287 0.791016 12.7546 0.791016H19.4945C19.8125 0.791016 20.074 1.05286 20.074 1.37489Z" fill="#F9F9F9"/>
</svg>
