<svg width="24" height="16" viewBox="0 0 24 16" fill="none" xmlns="http://www.w3.org/2000/svg">
<path d="M24 8.14162C23.8524 8.73189 23.422 9.15 23.0285 9.5804C21.4545 11.3266 19.6837 12.8638 17.63 14.0197C16.1543 14.8436 14.6049 15.4216 12.9079 15.5692C11.2723 15.7167 9.69827 15.4708 8.1857 14.8682C6.03368 14.032 4.17679 12.7162 2.51666 11.1299C1.77882 10.4412 1.10247 9.69108 0.426124 8.92864C-0.127253 8.31378 -0.13955 7.47757 0.376935 6.85041C2.14774 4.71068 4.18909 2.87839 6.66084 1.56258C8.14881 0.775552 9.71057 0.234472 11.4076 0.136093C13.3137 0.0131207 15.0968 0.46812 16.7938 1.29204C18.9827 2.33731 20.8396 3.83757 22.512 5.58379C22.7457 5.82973 22.9793 6.08797 23.2007 6.34622C23.5327 6.71514 23.8647 7.08405 24 7.58824C24 7.7727 24 7.95716 24 8.14162ZM12.0102 13.0359C14.8631 13.0359 17.175 10.724 17.175 7.87108C17.175 5.01811 14.8631 2.70622 12.0102 2.70622C9.15719 2.70622 6.8453 5.01811 6.8453 7.87108C6.8453 10.724 9.15719 13.0359 12.0102 13.0359Z" fill="#444444"/>
<path d="M15.6993 7.85886C15.6993 9.88791 14.0391 11.5603 12.0101 11.5603C9.98102 11.5603 8.30859 9.90021 8.30859 7.87116C8.30859 5.84211 9.96873 4.16968 11.9978 4.16968C14.0268 4.16968 15.6993 5.82981 15.6993 7.85886Z" fill="#444444"/>
</svg>
