<svg width="18" height="12" viewBox="0 0 18 12" fill="none" xmlns="http://www.w3.org/2000/svg">
<path d="M18 6.02095C17.8874 6.46678 17.5683 6.77182 17.2726 7.09563C16.09 8.40965 14.7713 9.55473 13.2226 10.4276C12.1198 11.0471 10.9512 11.4741 9.68413 11.5915C8.46396 11.7041 7.28134 11.5117 6.14096 11.0705C4.52659 10.4417 3.13748 9.45618 1.88916 8.26887C1.34009 7.74326 0.82856 7.18011 0.321723 6.61226C-0.0959481 6.14766 -0.105336 5.5235 0.284177 5.05421C1.61228 3.44922 3.14217 2.0742 4.99588 1.08868C6.1128 0.492677 7.29073 0.0937773 8.56251 0.0139974C9.98916 -0.0751683 11.3267 0.267416 12.5984 0.877497C14.241 1.66591 15.6301 2.78752 16.8831 4.09685C17.0614 4.28457 17.2304 4.47698 17.404 4.66939C17.6527 4.94627 17.9014 5.22315 18 5.59859C18 5.73938 18 5.88016 18 6.02095ZM9.00834 9.68613C11.1483 9.68613 12.88 7.95444 12.88 5.80977C12.88 3.66979 11.1483 1.9381 9.00365 1.9381C6.85898 1.9381 5.13198 3.66979 5.13198 5.80977C5.13667 7.95444 6.86836 9.68613 9.00834 9.68613Z" fill="white"/>
<path d="M11.7772 5.80517C11.7819 7.33037 10.5336 8.57869 9.01309 8.58338C7.48789 8.58808 6.23957 7.33976 6.23488 5.81925C6.23018 4.29404 7.47381 3.04572 8.99901 3.04103C10.5242 3.03634 11.7772 4.28466 11.7772 5.80517Z" fill="white"/>
</svg>
