<svg width="18" height="18" viewBox="0 0 18 18" fill="none" xmlns="http://www.w3.org/2000/svg">
<path d="M17.6071 0C17.6822 0.0516475 17.7667 0.0939045 17.8325 0.154942C18.025 0.333361 18.0437 0.624465 17.8841 0.840445C17.8372 0.901483 17.7855 0.953131 17.7292 1.00947C12.17 6.57331 6.61088 12.1325 1.04703 17.6963C1.00008 17.7433 0.957826 17.7902 0.910873 17.8325C0.61977 18.1001 0.225371 18.0297 0.0469522 17.6775C0.0328666 17.654 0.0187809 17.6306 0 17.6071C0 17.5132 0 17.4193 0 17.3254C0.112685 17.1845 0.21598 17.039 0.338056 16.9122C1.54473 15.7008 2.7514 14.4942 3.96277 13.2828C4.00972 13.2358 4.05667 13.1842 4.10832 13.1278C3.20684 12.5222 2.39456 11.8414 1.65272 11.0807C1.05173 10.4797 0.469522 9.85528 0 9.13691C0 9.043 0 8.9491 0 8.85519C0.0704284 8.7472 0.131466 8.63921 0.21598 8.54061C0.525865 8.16499 0.831055 7.78468 1.15972 7.42784C2.4603 6.01458 3.91582 4.80791 5.66714 3.98625C7.68139 3.04251 9.7332 2.92512 11.8085 3.76087C12.1982 3.91582 12.5738 4.10363 12.9917 4.29144C13.0199 4.25387 13.0527 4.19753 13.0997 4.15527C14.3721 2.88287 15.6398 1.61046 16.9169 0.342751C17.0437 0.21598 17.1939 0.117381 17.3301 0.00469522C17.4193 0 17.5132 0 17.6071 0ZM6.77051 10.4375C6.13666 9.27307 6.16483 8.13682 7.12265 7.16022C8.09926 6.16952 9.24959 6.12727 10.4093 6.75643C10.6629 6.50289 10.907 6.25404 11.1512 6.01458C9.78015 4.96285 7.59218 5.02389 6.23526 6.54984C4.88303 8.0664 5.16005 10.137 6.03806 11.1699C6.28691 10.9258 6.52636 10.6816 6.77051 10.4375Z" fill="white"/>
<path d="M14.757 5.47461C15.1279 5.79858 15.4989 6.10847 15.8557 6.43713C16.5835 7.10855 17.2502 7.841 17.8512 8.6298C18.039 8.87865 18.0531 9.09932 17.87 9.33878C16.4238 11.2028 14.7382 12.7851 12.6207 13.8697C11.4046 14.4941 10.1134 14.8463 8.73775 14.7899C7.81748 14.7524 6.93478 14.5364 6.06616 14.1796C6.10842 14.1326 6.14129 14.0903 6.17415 14.0575C6.66715 13.5645 7.16015 13.0762 7.64845 12.5785C7.73297 12.494 7.7987 12.4846 7.90669 12.5174C10.0806 13.2123 12.4 11.7052 12.6583 9.43738C12.7193 8.90682 12.6676 8.38565 12.5174 7.87387C12.5033 7.81753 12.508 7.72832 12.5456 7.69076C13.2686 6.9583 14.0058 6.22585 14.757 5.47461Z" fill="white"/>
<path d="M8.66748 11.616C9.65348 10.63 10.6254 9.65812 11.6114 8.67212C11.7006 9.50317 11.4705 10.2262 10.8883 10.8272C10.2826 11.4517 9.5314 11.7005 8.66748 11.616Z" fill="white"/>
</svg>
