<svg width="18" height="16" viewBox="0 0 18 16" fill="none" xmlns="http://www.w3.org/2000/svg">
<path d="M0.831055 2.72556C0.854363 2.62527 0.8767 2.52498 0.900979 2.42469C1.16514 1.33116 2.20397 0.515084 3.36939 0.513209C7.19291 0.507898 11.0164 0.506648 14.84 0.513521C16.2145 0.516021 17.3627 1.62454 17.3728 2.95114C17.3841 4.41709 17.377 5.88303 17.3754 7.34867C17.375 7.71859 17.0986 7.99322 16.7357 7.99603C16.3657 7.99885 16.085 7.72172 16.0844 7.34429C16.0827 5.93052 16.084 4.51644 16.0837 3.10267C16.0834 2.28066 15.5434 1.75889 14.6923 1.75889C10.9659 1.75858 7.2392 1.75858 3.5128 1.75889C2.66237 1.75889 2.12401 2.28128 2.12401 3.10517C2.12369 5.53779 2.12369 7.97073 2.12401 10.4033C2.12401 11.2029 2.64877 11.7218 3.4746 11.7409C4.53253 11.7656 5.40335 12.6151 5.41922 13.6383C5.42148 13.788 5.41954 13.9379 5.41954 14.1179C5.47716 14.0685 5.51666 14.0385 5.55162 14.0048C5.9634 13.6083 6.37453 13.2112 6.78566 12.8141C7.53056 12.0942 8.42922 11.7378 9.48392 11.7393C11.2178 11.7421 12.952 11.7274 14.6859 11.7456C15.5114 11.754 16.0899 11.1591 16.0886 10.464C16.0879 10.1203 16.3942 9.86159 16.7457 9.86908C17.0954 9.87658 17.3689 10.1484 17.376 10.4949C17.4 11.6971 16.4048 12.8082 15.1663 12.9581C15.0119 12.9769 14.8552 12.9866 14.6998 12.9866C12.9659 12.9884 11.2317 12.9909 9.49784 12.9863C8.78693 12.9844 8.18707 13.2187 7.68756 13.7083C7.10583 14.2788 6.51762 14.8431 5.92844 15.4064C5.43249 15.8807 4.69537 15.8322 4.31434 15.3055C4.19068 15.1346 4.1282 14.944 4.12788 14.7353C4.12723 14.3819 4.13144 14.0282 4.12626 13.6749C4.12075 13.2878 3.82098 13.0006 3.41892 12.9878C2.06801 12.9456 1.08356 12.1155 0.856305 10.8289C0.852744 10.8095 0.839795 10.792 0.831055 10.7733C0.831055 8.0907 0.831055 5.40813 0.831055 2.72556Z" fill="#5B5B5B"/>
<path d="M8.45835 7.42152C8.43148 7.05848 8.52795 6.69636 8.80829 6.38955C8.97663 6.20553 9.18964 6.09149 9.4237 6.00307C9.81314 5.85591 10.044 5.49255 10.0058 5.10607C9.96723 4.71896 9.66584 4.40496 9.25924 4.32842C8.72963 4.22875 8.22332 4.62492 8.20163 5.16293C8.1903 5.44475 8.06793 5.65377 7.79665 5.76437C7.36998 5.93839 6.9132 5.63471 6.90738 5.17918C6.89475 4.18688 7.68076 3.2752 8.69758 3.10304C10.0854 2.86778 11.3291 3.89382 11.3007 5.25072C11.2832 6.07649 10.7273 6.84789 9.91802 7.15439C9.79371 7.20157 9.7335 7.25781 9.74839 7.39122C9.76037 7.49901 9.75325 7.6093 9.75001 7.71834C9.73998 8.07202 9.45639 8.34165 9.099 8.33915C8.74873 8.33665 8.46968 8.0692 8.45899 7.72365C8.45608 7.63554 8.45835 7.54712 8.45835 7.42152Z" fill="#5B5B5B"/>
<path d="M9.10611 9.27637C9.46156 9.27731 9.75065 9.55819 9.74968 9.90187C9.7487 10.2446 9.45703 10.5242 9.10158 10.5233C8.74613 10.5224 8.45704 10.2412 8.45801 9.89749C8.45931 9.55412 8.75001 9.27543 9.10611 9.27637Z" fill="#5B5B5B"/>
</svg>
