<svg width="18" height="16" viewBox="0 0 18 16" fill="none" xmlns="http://www.w3.org/2000/svg">
<path d="M0.753906 2.72556C0.777214 2.62527 0.799552 2.52498 0.823831 2.42469C1.08799 1.33116 2.12683 0.515084 3.29224 0.513209C7.11576 0.507898 10.9393 0.506648 14.7628 0.513521C16.1373 0.516021 17.2856 1.62454 17.2956 2.95114C17.307 4.41709 17.2998 5.88303 17.2982 7.34867C17.2979 7.71859 17.0214 7.99322 16.6585 7.99603C16.2885 7.99885 16.0079 7.72172 16.0072 7.34429C16.0056 5.93052 16.0069 4.51644 16.0066 3.10267C16.0062 2.28066 15.4663 1.75889 14.6152 1.75889C10.8888 1.75858 7.16205 1.75858 3.43565 1.75889C2.58522 1.75889 2.04687 2.28128 2.04687 3.10517C2.04654 5.53779 2.04654 7.97073 2.04687 10.4033C2.04687 11.2029 2.57163 11.7218 3.39745 11.7409C4.45538 11.7656 5.32621 12.6151 5.34207 13.6383C5.34433 13.788 5.34239 13.9379 5.34239 14.1179C5.40002 14.0685 5.43951 14.0385 5.47447 14.0048C5.88625 13.6083 6.29738 13.2112 6.70851 12.8141C7.45341 12.0942 8.35207 11.7378 9.40677 11.7393C11.1406 11.7421 12.8748 11.7274 14.6087 11.7456C15.4342 11.754 16.0127 11.1591 16.0114 10.464C16.0108 10.1203 16.317 9.86159 16.6686 9.86908C17.0182 9.87658 17.2918 10.1484 17.2989 10.4949C17.3228 11.6971 16.3277 12.8082 15.0891 12.9581C14.9347 12.9769 14.778 12.9866 14.6226 12.9866C12.8888 12.9884 11.1546 12.9909 9.42069 12.9863C8.70979 12.9844 8.10992 13.2187 7.61041 13.7083C7.02868 14.2788 6.44047 14.8431 5.85129 15.4064C5.35534 15.8807 4.61822 15.8322 4.23719 15.3055C4.11353 15.1346 4.05105 14.944 4.05073 14.7353C4.05008 14.3819 4.05429 14.0282 4.04911 13.6749C4.04361 13.2878 3.74384 13.0006 3.34177 12.9878C1.99086 12.9456 1.00641 12.1155 0.779157 10.8289C0.775596 10.8095 0.762647 10.792 0.753906 10.7733C0.753906 8.0907 0.753906 5.40813 0.753906 2.72556Z" fill="#651DBD"/>
<path d="M8.3812 7.42152C8.35433 7.05848 8.4508 6.69636 8.73114 6.38955C8.89948 6.20553 9.11249 6.09149 9.34655 6.00307C9.73599 5.85591 9.96681 5.49255 9.92861 5.10607C9.89008 4.71896 9.58869 4.40496 9.18209 4.32842C8.65248 4.22875 8.14617 4.62492 8.12448 5.16293C8.11315 5.44475 7.99078 5.65377 7.7195 5.76437C7.29283 5.93839 6.83606 5.63471 6.83023 5.17918C6.8176 4.18688 7.60361 3.2752 8.62043 3.10304C10.0082 2.86778 11.252 3.89382 11.2235 5.25072C11.206 6.07649 10.6502 6.84789 9.84088 7.15439C9.71657 7.20157 9.65635 7.25781 9.67124 7.39122C9.68322 7.49901 9.6761 7.6093 9.67286 7.71834C9.66283 8.07202 9.37924 8.34165 9.02185 8.33915C8.67158 8.33665 8.39253 8.0692 8.38184 7.72365C8.37893 7.63554 8.3812 7.54712 8.3812 7.42152Z" fill="#651DBD"/>
<path d="M9.02896 9.27637C9.38441 9.27731 9.6735 9.55819 9.67253 9.90187C9.67156 10.2446 9.37988 10.5242 9.02443 10.5233C8.66898 10.5224 8.37989 10.2412 8.38086 9.89749C8.38216 9.55412 8.67286 9.27543 9.02896 9.27637Z" fill="#651DBD"/>
</svg>
