<svg width="23" height="18" viewBox="0 0 23 18" fill="none" xmlns="http://www.w3.org/2000/svg">
<path d="M7.48882 14.5765C6.77177 16.8196 4.7021 17.5971 3.0317 17.2326C1.33686 16.8682 0.139058 15.362 0.114613 13.5642C0.0901683 11.9041 1.32871 10.3816 2.99911 9.99292C4.4984 9.6447 6.69029 10.244 7.48067 12.6491C7.59475 12.6491 7.71697 12.6491 7.8392 12.6491C12.1496 12.6491 16.4601 12.6491 20.7624 12.6491C20.9009 12.6491 21.0476 12.641 21.1861 12.6653C21.6669 12.7544 22.0091 13.2079 21.9765 13.6776C21.9439 14.1716 21.5365 14.5603 21.0313 14.5846C20.9335 14.5927 20.8276 14.5846 20.7298 14.5846C16.4275 14.5846 12.1334 14.5846 7.83105 14.5846C7.72512 14.5765 7.6029 14.5765 7.48882 14.5765Z" fill="#333333"/>
<path d="M17.984 2.76155C18.9292 2.76155 19.8825 2.76155 20.8277 2.76155C20.9663 2.76155 21.1129 2.76156 21.2514 2.79395C21.7403 2.90732 22.0418 3.34462 22.0011 3.83051C21.9522 4.3002 21.5448 4.68891 21.0559 4.68891C20.1514 4.69701 19.2388 4.68891 18.3344 4.68891C18.2203 4.68891 18.1144 4.68891 18.0655 4.7456C17.7721 5.22339 17.5358 5.74977 17.1691 6.16278C15.3032 8.29259 11.8157 7.61235 10.8787 4.93996C10.8053 4.72131 10.6994 4.67272 10.4875 4.67272C7.42378 4.68082 4.35187 4.68082 1.28811 4.67272C1.1333 4.67272 0.978478 4.67272 0.831809 4.63223C0.375504 4.51076 0.0821651 4.07346 0.122907 3.62806C0.163648 3.15837 0.53847 2.78585 1.01922 2.73726C1.1333 2.72916 1.23922 2.72916 1.3533 2.72916C4.39262 2.72916 7.42378 2.72916 10.4631 2.73726C10.6913 2.73726 10.789 2.67248 10.8705 2.45383C11.392 0.979964 12.7854 0.00818711 14.3417 8.8893e-05C15.9143 -0.00800932 17.3077 0.94757 17.8536 2.40524C17.8943 2.53481 17.9351 2.64008 17.984 2.76155Z" fill="#333333"/>
</svg>
