<svg width="23" height="14" viewBox="0 0 23 14" fill="none" xmlns="http://www.w3.org/2000/svg">
<path d="M0.349444 6.16306C2.3069 4.21416 4.26523 2.26613 6.22152 0.315768C6.47831 0.0596248 6.76878 -0.0662614 7.13158 0.0351468C7.72189 0.200081 7.95087 0.916058 7.56524 1.39046C7.51487 1.45282 7.45572 1.50819 7.39892 1.56501C5.97848 2.97919 4.55834 4.39337 3.13673 5.80638C3.0849 5.85767 3.02048 5.89613 2.96192 5.94043C2.97568 5.96257 2.98974 5.98501 3.00379 6.00716H14.6285C17.0743 6.00716 19.5199 6.00745 21.9658 6.00803C22.0929 6.00803 22.224 6.00454 22.3464 6.03222C22.7505 6.12314 23.0381 6.52877 22.9959 6.92916C22.9499 7.36626 22.6205 7.68593 22.1895 7.70953C22.1426 7.71216 22.0955 7.71274 22.0484 7.71303H21.9793C21.962 7.71274 21.9447 7.71274 21.9274 7.71274C20.6165 7.71303 19.3056 7.71303 17.9947 7.71303H17.9091C17.9012 7.71303 17.8936 7.71274 17.8857 7.71303C17.8764 7.71274 17.8667 7.71274 17.8573 7.71274C15.4068 7.71303 12.9559 7.71303 10.5054 7.71303H2.95079C3.03366 7.80162 3.08315 7.85815 3.13615 7.91118C4.56156 9.33032 5.9861 10.7503 7.41356 12.1674C7.60213 12.3545 7.73477 12.5614 7.73331 12.8341C7.73126 13.1797 7.57578 13.4423 7.27037 13.5991C6.95765 13.7599 6.64668 13.7302 6.35885 13.5245C6.29384 13.4779 6.23791 13.4187 6.18081 13.3619C4.23712 11.4278 2.29372 9.49321 0.350614 7.5583C-0.116423 7.09351 -0.116715 6.62697 0.349444 6.16306Z" fill="#6A6A6A"/>
</svg>
