<svg width="41" height="41" viewBox="0 0 41 41" fill="none" xmlns="http://www.w3.org/2000/svg">
<g clip-path="url(#clip0_373_1020)">
<path d="M22.5746 0C22.8206 0.064146 23.0558 0.117601 23.3018 0.192438C25.0876 0.726988 26.3602 2.39478 26.4137 4.2764C26.4244 4.66128 26.4137 5.04615 26.4137 5.44172C26.4137 15.7585 26.4137 26.0861 26.4137 36.4029C26.4137 38.4983 25.216 40.2089 23.3232 40.7755C22.8312 40.9252 22.2966 40.9786 21.7939 40.9893C16.0728 41 10.3516 40.9786 4.63041 41.0107C2.0639 41.0321 0.288732 39.1718 0.053469 37.2581C0.053469 37.2261 0.0213876 37.194 0 37.1512C0 26.0433 0 14.946 0 3.83807C0.0213876 3.76323 0.0641628 3.6884 0.0748565 3.61356C0.299426 2.40548 0.908972 1.4219 1.94627 0.780443C2.52374 0.42764 3.20814 0.256584 3.83907 0C10.0842 0 16.3294 0 22.5746 0ZM24.0183 33.7622C24.0183 33.6018 24.0183 33.4628 24.0183 33.3345C24.0183 23.7554 24.0183 14.1763 24.0183 4.60782C24.0183 3.21799 23.2055 2.40548 21.8046 2.40548C16.0835 2.40548 10.3623 2.40548 4.64111 2.40548C3.20814 2.40548 2.4061 3.2073 2.4061 4.6292C2.4061 14.1977 2.4061 23.7554 2.4061 33.3239C2.4061 33.4628 2.4061 33.6125 2.4061 33.7729C9.61372 33.7622 16.7893 33.7622 24.0183 33.7622ZM2.42749 36.1997C2.30986 37.6644 3.16536 38.5838 4.58764 38.5838C10.0415 38.5838 15.4953 38.5838 20.9491 38.5838C21.3341 38.5838 21.7191 38.5945 22.1041 38.5838C23.3232 38.5304 24.2107 37.3864 23.9541 36.1997C16.7893 36.1997 9.62441 36.1997 2.42749 36.1997Z" fill="white"/>
<path d="M41 8.1573C40.9465 11.0653 39.952 13.5883 37.9202 15.6945C37.3748 16.2611 36.6476 16.2932 36.145 15.8014C35.6424 15.3203 35.6638 14.5933 36.1985 14.016C39.3959 10.6162 39.3959 5.6663 36.1985 2.27725C35.482 1.51819 35.7279 0.4384 36.6797 0.192507C37.1716 0.0642154 37.5673 0.245962 37.9095 0.598765C39.9413 2.71558 40.9465 5.23866 41 8.1573Z" fill="white"/>
<path d="M36.1771 8.41389C36.145 9.76096 35.6103 11.1508 34.5089 12.3054C33.9956 12.8507 33.2684 12.9041 32.7551 12.4444C32.2525 11.9847 32.2418 11.247 32.7337 10.6911C34.1239 9.1195 34.1239 7.23788 32.7337 5.63423C32.2418 5.06761 32.2525 4.32993 32.7551 3.88091C33.2577 3.42119 33.9849 3.47465 34.5089 4.0092C35.5782 5.09968 36.1878 6.6178 36.1771 8.41389Z" fill="white"/>
<path d="M30.1672 9.35462C29.5256 9.34393 28.9802 8.788 28.9802 8.14654C28.9802 7.4837 29.5363 6.93845 30.21 6.95984C30.8623 6.97053 31.3863 7.52646 31.3756 8.17861C31.3649 8.82007 30.8089 9.36531 30.1672 9.35462Z" fill="white"/>
<path d="M16.554 20.8367C17.5485 21.4247 18.3398 22.1838 18.9494 23.1246C19.8477 24.5144 20.1043 26.0646 19.9974 27.6789C19.9546 28.3204 19.4199 28.7587 18.7355 28.7587C17.3132 28.7587 15.8803 28.7587 14.458 28.7587C12.2444 28.7587 10.0308 28.7587 7.81714 28.7587C6.87609 28.7587 6.43765 28.299 6.40556 27.3689C6.33071 25.2949 6.90817 23.4667 8.39461 21.9806C8.82236 21.553 9.33566 21.2002 9.82758 20.7833C8.96138 19.6607 8.59779 18.3778 8.9293 16.9345C9.18595 15.8654 9.76341 15.0101 10.651 14.3687C12.3727 13.1178 14.7681 13.3209 16.2973 14.8177C17.7303 16.2396 18.2222 18.7199 16.554 20.8367ZM8.85444 26.3533C11.7632 26.3533 14.6612 26.3533 17.5699 26.3533C17.4202 24.1402 15.4739 22.3655 13.2068 22.3655C10.9504 22.3655 8.99346 24.1509 8.85444 26.3533ZM15.2066 17.9501C15.1959 16.849 14.2869 15.9509 13.1854 15.9616C12.0947 15.9723 11.2071 16.8597 11.2071 17.9501C11.2071 19.0513 12.1054 19.96 13.2068 19.96C14.319 19.96 15.2172 19.0513 15.2066 17.9501Z" fill="white"/>
<path d="M13.2176 4.80024C13.7416 4.80024 14.2549 4.78955 14.7789 4.80024C15.4847 4.81093 16.0194 5.3241 16.0194 5.99763C16.0194 6.67117 15.4954 7.19502 14.7896 7.19502C13.7416 7.20572 12.6829 7.20572 11.6349 7.19502C10.9291 7.18433 10.4051 6.64978 10.4158 5.97625C10.4265 5.3241 10.9398 4.81093 11.6242 4.78955C12.1482 4.78955 12.6829 4.80024 13.2176 4.80024Z" fill="white"/>
<path d="M8.40532 5.98699C8.41602 6.63915 7.88133 7.18439 7.22901 7.20577C6.56599 7.21646 5.99922 6.66053 6.00991 5.99769C6.00991 5.34553 6.5553 4.81098 7.20762 4.80029C7.84925 4.80029 8.39463 5.34553 8.40532 5.98699Z" fill="white"/>
</g>
<defs>
<clipPath id="clip0_373_1020">
<rect width="41" height="41" fill="white"/>
</clipPath>
</defs>
</svg>
