<svg width="86" height="86" viewBox="0 0 86 86" fill="none" xmlns="http://www.w3.org/2000/svg">
<g clip-path="url(#clip0_373_1028)">
<path d="M47.3516 0C47.8675 0.13455 48.361 0.246675 48.8769 0.403651C52.6228 1.5249 55.2921 5.02321 55.4043 8.97001C55.4267 9.77731 55.4043 10.5846 55.4043 11.4143C55.4043 33.0545 55.4043 54.7171 55.4043 76.3572C55.4043 80.7525 52.892 84.3405 48.9218 85.5291C47.8899 85.843 46.7684 85.9552 45.7141 85.9776C33.7136 86 21.7131 85.9552 9.71257 86.0224C4.32916 86.0673 0.605634 82.1653 0.112154 78.1512C0.112154 78.084 0.0448618 78.0167 0 77.927C0 54.6274 0 31.3502 0 8.05059C0.0448618 7.89361 0.134585 7.73664 0.157016 7.57966C0.628065 5.04563 1.90663 2.98253 4.08242 1.63703C5.29369 0.897001 6.72926 0.538201 8.05269 0C21.1523 0 34.252 0 47.3516 0ZM50.3798 70.8183C50.3798 70.4819 50.3798 70.1904 50.3798 69.9212C50.3798 49.8284 50.3798 29.7356 50.3798 9.66519C50.3798 6.74993 48.675 5.04563 45.7366 5.04563C33.736 5.04563 21.7355 5.04563 9.735 5.04563C6.72927 5.04563 5.04695 6.72751 5.04695 9.71004C5.04695 29.7804 5.04695 49.8284 5.04695 69.8988C5.04695 70.1904 5.04695 70.5043 5.04695 70.8407C20.1654 70.8183 35.2165 70.8183 50.3798 70.8183ZM5.09181 75.9312C4.84507 79.0034 6.63954 80.9319 9.62285 80.9319C21.0626 80.9319 32.5023 80.9319 43.9421 80.9319C44.7496 80.9319 45.5571 80.9544 46.3646 80.9319C48.9218 80.8198 50.7835 78.4203 50.2452 75.9312C35.2165 75.9312 20.1878 75.9312 5.09181 75.9312Z" fill="#EEEEEE"/>
<path d="M85.9999 17.1103C85.8878 23.2099 83.8017 28.5022 79.5398 32.92C78.3959 34.1085 76.8706 34.1758 75.8163 33.1442C74.7621 32.1351 74.8069 30.6102 75.9285 29.3992C82.6353 22.2681 82.6353 11.8853 75.9285 4.77656C74.4256 3.18438 74.9415 0.919453 76.9379 0.403677C77.9697 0.134577 78.7996 0.515802 79.5174 1.25583C83.7793 5.69598 85.8878 10.9883 85.9999 17.1103Z" fill="#EEEEEE"/>
<path d="M75.8837 17.6486C75.8164 20.4741 74.6948 23.3894 72.3845 25.8113C71.3078 26.955 69.7825 27.0671 68.7058 26.1028C67.6515 25.1385 67.6291 23.5912 68.6609 22.4251C71.5769 19.1286 71.5769 15.1818 68.6609 11.8181C67.6291 10.6296 67.6515 9.08223 68.7058 8.14038C69.76 7.1761 71.2853 7.28823 72.3845 8.40948C74.6276 10.6968 75.9061 13.8812 75.8837 17.6486Z" fill="#EEEEEE"/>
<path d="M63.2774 19.6219C61.9316 19.5995 60.7876 18.4334 60.7876 17.0879C60.7876 15.6975 61.954 14.5538 63.3672 14.5987C64.7354 14.6211 65.8346 15.7872 65.8121 17.1551C65.7897 18.5006 64.6233 19.6443 63.2774 19.6219Z" fill="#EEEEEE"/>
<path d="M34.7229 43.7065C36.809 44.9399 38.4689 46.5321 39.7474 48.5055C41.6316 51.4207 42.17 54.6723 41.9457 58.0585C41.8559 59.404 40.7344 60.3234 39.2988 60.3234C36.3155 60.3234 33.3098 60.3234 30.3265 60.3234C25.6833 60.3234 21.0401 60.3234 16.3969 60.3234C14.423 60.3234 13.5033 59.3592 13.436 57.4082C13.279 53.0577 14.4903 49.2231 17.6082 46.106C18.5054 45.209 19.5821 44.4689 20.6139 43.5944C18.797 41.2397 18.0343 38.5487 18.7297 35.5214C19.268 33.2789 20.4793 31.4849 22.3411 30.1394C25.9524 27.5156 30.977 27.9417 34.1846 31.0812C37.1903 34.0637 38.2221 39.2663 34.7229 43.7065ZM18.5727 55.2778C24.6739 55.2778 30.7527 55.2778 36.8539 55.2778C36.5398 50.6358 32.4574 46.9133 27.7021 46.9133C22.9691 46.9133 18.8643 50.6583 18.5727 55.2778ZM31.8966 37.6517C31.8742 35.342 29.9676 33.4583 27.6572 33.4807C25.3692 33.5031 23.5075 35.3644 23.5075 37.6517C23.5075 39.9615 25.3917 41.8676 27.7021 41.8676C30.0349 41.8676 31.9191 39.9615 31.8966 37.6517Z" fill="#EEEEEE"/>
<path d="M27.7246 10.0688C28.8238 10.0688 29.9004 10.0464 30.9995 10.0688C32.48 10.0912 33.6015 11.1676 33.6015 12.5804C33.6015 13.9932 32.5024 15.092 31.022 15.092C28.8238 15.1144 26.6031 15.1144 24.4049 15.092C22.9244 15.0696 21.8253 13.9483 21.8477 12.5356C21.8702 11.1676 22.9469 10.0912 24.3824 10.0464C25.4816 10.0464 26.6031 10.0688 27.7246 10.0688Z" fill="#EEEEEE"/>
<path d="M17.6308 12.558C17.6532 13.926 16.5317 15.0696 15.1634 15.1145C13.7727 15.1369 12.5838 13.9708 12.6063 12.5805C12.6063 11.2125 13.7502 10.0913 15.1185 10.0688C16.4644 10.0688 17.6084 11.2125 17.6308 12.558Z" fill="#EEEEEE"/>
</g>
<defs>
<clipPath id="clip0_373_1028">
<rect width="86" height="86" fill="white"/>
</clipPath>
</defs>
</svg>
