<svg width="371" height="316" viewBox="0 0 371 316" fill="none" xmlns="http://www.w3.org/2000/svg">
<path d="M34.8901 289.89H28.5601V290.14H34.8901V289.89Z" fill="#EBEBEB"/>
<path d="M149.15 294.11H55.4702V294.36H149.15V294.11Z" fill="#EBEBEB"/>
<path d="M1 96H58L58 1H1L1 96Z" fill="#F5F5F5" fill-opacity="0.51"/>
<path d="M1 1H0V96H1V1Z" fill="#E0E0E0" fill-opacity="0.42"/>
<path d="M7 92H52L52 5H7L7 92Z" fill="#F0F0F0" fill-opacity="0.44"/>
<path d="M75.4798 138.44H148.8L148.8 17.2099L75.4798 17.2099L75.4798 138.44Z" fill="#F5F5F5" fill-opacity="0.51"/>
<path d="M75.4798 17.2197H74.0298V138.45H75.4798V17.2197Z" fill="#E0E0E0"/>
<path d="M82.9201 133.11H141.37V22.5499L82.9201 22.5499L82.9201 133.11Z" fill="#F0F0F0" fill-opacity="0.44"/>
<path d="M10.6002 248.73L11.3802 276.32C11.4602 281.56 12.6802 281.4 14.1602 281.4H33.7902C35.2602 281.4 36.4802 281.56 36.5702 276.32L37.3502 248.73C37.4402 243.05 36.1702 238.26 34.5702 238.26H13.3802C11.7802 238.26 10.5102 243.05 10.6002 248.73Z" fill="#F5F5F5" fill-opacity="0.76"/>
<path d="M9.43023 243.29H38.5202C38.711 243.301 38.8996 243.244 39.0519 243.128C39.2041 243.013 39.31 242.847 39.3502 242.66L40.0402 237.38C40.045 237.271 40.0264 237.163 39.9859 237.062C39.9453 236.962 39.8836 236.871 39.8049 236.796C39.7263 236.721 39.6325 236.664 39.5299 236.628C39.4273 236.593 39.3183 236.58 39.2102 236.59H8.73023C8.62248 236.581 8.51415 236.596 8.41229 236.632C8.31043 236.668 8.21733 236.725 8.13903 236.8C8.06074 236.874 7.99902 236.964 7.95787 237.064C7.91673 237.164 7.89709 237.272 7.90023 237.38L8.59022 242.66C8.63261 242.847 8.74041 243.014 8.89432 243.129C9.04823 243.245 9.2382 243.302 9.43023 243.29V243.29Z" fill="#F5F5F5" fill-opacity="0.76"/>
<path d="M214.87 126.56H192.85V274.72H214.87V126.56Z" fill="#F0F0F0"/>
<path d="M364 274.72H197.08V281.4H364V274.72Z" fill="#F0F0F0"/>
<path d="M214.87 274.72H368.23V126.56L214.87 126.56L214.87 274.72Z" fill="#F5F5F5"/>
<path d="M212.59 120.73H190.08V126.56H212.59V120.73Z" fill="#F0F0F0"/>
<path d="M212.59 126.56L371 126.56V120.73L212.59 120.73V126.56Z" fill="#FAFAFA"/>
<path d="M360.2 196.51H222.9V138.9H360.2V196.51ZM224.2 195.25H358.94V140.16H224.16L224.2 195.25Z" fill="#E0E0E0"/>
<path d="M360.2 262.38H222.9V205.57H360.2V262.38ZM224.2 261.12H358.94V206.83H224.16L224.2 261.12Z" fill="#E0E0E0"/>
<path d="M318.28 150.23H264.82C264.192 150.227 263.591 149.977 263.147 149.533C262.703 149.089 262.453 148.487 262.45 147.86V147.86C262.453 147.232 262.703 146.631 263.147 146.187C263.591 145.743 264.192 145.492 264.82 145.49H318.28C318.908 145.492 319.509 145.743 319.953 146.187C320.397 146.631 320.648 147.232 320.65 147.86V147.86C320.648 148.487 320.397 149.089 319.953 149.533C319.509 149.977 318.908 150.227 318.28 150.23V150.23Z" fill="#E0E0E0"/>
<path d="M318.29 212.16H264.82C263.511 212.16 262.45 213.221 262.45 214.53C262.45 215.839 263.511 216.9 264.82 216.9H318.29C319.599 216.9 320.66 215.839 320.66 214.53C320.66 213.221 319.599 212.16 318.29 212.16Z" fill="#E0E0E0"/>
<path d="M284.41 120.67H348.01L353.17 63.96H289.57L284.41 120.67Z" fill="#E6E6E6"/>
<path d="M282.25 120.67H345.85L351.01 63.96H287.41L282.25 120.67Z" fill="#F0F0F0"/>
<path d="M340.14 114.39L344.16 70.2397H293.12L289.1 114.39H340.14Z" fill="white"/>
<path d="M269.68 79.2598L265.91 120.67H296.39L300.16 79.2598H269.68Z" fill="#E6E6E6"/>
<path d="M268.1 79.2598L264.33 120.67H294.81L298.58 79.2598H268.1Z" fill="#F0F0F0"/>
<path d="M272.27 83.8398L269.33 116.09H290.65L293.58 83.8398H272.27Z" fill="white"/>
<path d="M220.32 12.72C219.4 10.3885 218.018 8.26708 216.257 6.48307C214.497 4.69906 212.394 3.28931 210.074 2.33848C207.755 1.38766 205.268 0.915382 202.762 0.950018C200.255 0.984654 197.782 1.52549 195.49 2.54004C186.97 6.30004 182.35 17.23 185.56 25.96C187.163 30.3679 190.38 34.0028 194.56 36.13C196.299 36.9631 197.773 38.261 198.82 39.88L201.46 44.1C202.326 45.4812 203.647 46.5168 205.195 47.0279C206.744 47.5391 208.422 47.4939 209.94 46.9L216.6 44.27C218.115 43.6664 219.371 42.5528 220.153 41.1214C220.934 39.69 221.191 38.0308 220.88 36.43L219.88 31.37C219.559 29.5786 219.743 27.7333 220.41 26.04C222.035 21.7429 222.003 16.9948 220.32 12.72V12.72Z" fill="#8B55F1"/>
<path d="M210.82 55.3199C210.393 55.3187 209.971 55.2302 209.58 55.0599C209.203 54.9004 208.862 54.6669 208.577 54.3732C208.292 54.0794 208.068 53.7315 207.92 53.3499C207.628 52.587 207.648 51.7397 207.975 50.9912C208.303 50.2427 208.911 49.6532 209.67 49.3499L218.5 45.8599C219.263 45.565 220.111 45.5835 220.86 45.9113C221.61 46.2391 222.199 46.8496 222.5 47.6099C222.658 47.9867 222.74 48.3912 222.74 48.7999C222.74 49.2086 222.658 49.6132 222.5 49.9899C222.171 50.7471 221.557 51.3437 220.79 51.6499L212 55.0999C211.626 55.252 211.224 55.3268 210.82 55.3199V55.3199ZM219.64 46.6099C219.376 46.6086 219.114 46.6596 218.87 46.7599L210 50.2499C209.61 50.4003 209.274 50.6634 209.035 51.0056C208.796 51.3479 208.664 51.7538 208.656 52.1714C208.649 52.589 208.766 52.9993 208.993 53.35C209.22 53.7006 209.546 53.9757 209.93 54.1399C210.186 54.2488 210.462 54.305 210.74 54.305C211.018 54.305 211.294 54.2488 211.55 54.1399L220.38 50.6599C220.637 50.5571 220.871 50.4043 221.068 50.2103C221.266 50.0163 221.423 49.785 221.53 49.5299C221.642 49.2762 221.699 49.0021 221.699 48.7249C221.699 48.4478 221.642 48.1736 221.53 47.9199C221.371 47.5209 221.094 47.1794 220.737 46.9403C220.381 46.7011 219.96 46.5755 219.53 46.5799L219.64 46.6099Z" fill="#263238"/>
<path d="M215.32 60.7001C215.052 60.6973 214.787 60.6429 214.54 60.5401C214.083 60.3227 213.726 59.9404 213.54 59.4701L213.39 59.0801C213.296 58.8438 213.25 58.5913 213.254 58.337C213.258 58.0828 213.312 57.8318 213.413 57.5985C213.514 57.3653 213.661 57.1544 213.844 56.9779C214.027 56.8014 214.243 56.6628 214.48 56.5701L219.99 54.3901C220.47 54.2159 220.998 54.2317 221.466 54.4344C221.935 54.637 222.308 55.0111 222.51 55.4801L222.66 55.8701C222.844 56.3478 222.833 56.8788 222.629 57.3484C222.425 57.818 222.045 58.1886 221.57 58.3801L216 60.5601C215.784 60.6481 215.553 60.6956 215.32 60.7001V60.7001ZM220.67 55.2501C220.553 55.2534 220.438 55.2771 220.33 55.3201L214.82 57.5001C214.705 57.5443 214.601 57.6108 214.512 57.6957C214.423 57.7805 214.352 57.8822 214.303 57.9947C214.253 58.1072 214.227 58.2283 214.225 58.3511C214.223 58.4739 214.245 58.5959 214.29 58.7101L214.44 59.1001C214.485 59.2151 214.553 59.32 214.638 59.4088C214.724 59.4977 214.827 59.5688 214.94 59.618C215.053 59.6672 215.175 59.6936 215.299 59.6957C215.422 59.6978 215.545 59.6755 215.66 59.6301L221.17 57.4501C221.285 57.4051 221.39 57.3378 221.48 57.252C221.569 57.1662 221.64 57.0636 221.69 56.9501C221.737 56.8377 221.761 56.717 221.761 56.5951C221.761 56.4732 221.737 56.3526 221.69 56.2401L221.54 55.8501C221.465 55.6788 221.344 55.5318 221.191 55.4258C221.037 55.3198 220.856 55.2589 220.67 55.2501V55.2501Z" fill="#263238"/>
<path d="M198.91 30.46C198.228 30.4612 197.558 30.2765 196.974 29.9257C196.389 29.5749 195.911 29.0713 195.591 28.4691C195.271 27.8669 195.122 27.1889 195.158 26.508C195.195 25.8271 195.417 25.1691 195.8 24.6048C196.182 24.0405 196.712 23.5912 197.331 23.3054C197.95 23.0195 198.635 22.9079 199.313 22.9825C199.991 23.057 200.635 23.315 201.178 23.7287C201.72 24.1423 202.139 24.6959 202.39 25.33L203.77 28.82L200.28 30.19C199.844 30.3668 199.379 30.4585 198.91 30.46ZM198.91 23.96C198.503 23.9556 198.1 24.0416 197.731 24.2117C197.361 24.3818 197.034 24.6318 196.773 24.9436C196.511 25.2554 196.323 25.6212 196.22 26.0148C196.117 26.4084 196.103 26.8199 196.178 27.2197C196.254 27.6194 196.417 27.9975 196.656 28.3265C196.895 28.6556 197.204 28.9275 197.561 29.1227C197.918 29.3178 198.314 29.4314 198.72 29.4551C199.126 29.4789 199.532 29.4122 199.91 29.26L202.47 28.26L201.47 25.71C201.263 25.1997 200.907 24.7636 200.448 24.4586C199.99 24.1536 199.45 23.9937 198.9 24L198.91 23.96Z" fill="white"/>
<path d="M209.97 47.2403L202.48 28.2503L209.37 25.5303L216.86 44.5203L215.93 44.8903L208.8 26.8303L203.77 28.8203L210.9 46.8703L209.97 47.2403Z" fill="white"/>
<path d="M208.8 26.8301L207.43 23.3401C207.157 22.6501 207.095 21.8947 207.251 21.1694C207.408 20.4441 207.776 19.7816 208.309 19.2656C208.842 18.7496 209.517 18.4034 210.247 18.2708C210.977 18.1382 211.73 18.2252 212.41 18.5207C213.091 18.8161 213.669 19.3069 214.07 19.9308C214.472 20.5547 214.679 21.2837 214.666 22.0256C214.654 22.7675 214.421 23.4888 213.998 24.0984C213.575 24.708 212.98 25.1784 212.29 25.4501L208.8 26.8301ZM210.91 19.2101C210.567 19.2147 210.228 19.2825 209.91 19.4101C209.574 19.5423 209.267 19.7398 209.007 19.9912C208.748 20.2425 208.54 20.5428 208.397 20.8746C208.254 21.2064 208.178 21.5633 208.173 21.9246C208.169 22.286 208.235 22.6447 208.37 22.9801L209.37 25.5301L211.92 24.5301C212.516 24.2962 213.012 23.8617 213.322 23.3014C213.632 22.7412 213.737 22.0903 213.618 21.4611C213.5 20.8319 213.165 20.2637 212.673 19.8546C212.18 19.4455 211.56 19.2211 210.92 19.2201L210.91 19.2101Z" fill="white"/>
<path d="M224.33 74.4901C220.574 74.4951 216.825 74.1908 213.12 73.5801L213.29 72.5801C216.926 73.1803 220.605 73.4813 224.29 73.4801L224.33 74.4901Z" fill="#8B55F1"/>
<path d="M245 84.8499L245.53 83.7699C247.374 79.664 247.745 75.0475 246.58 70.6999C242.689 72.0945 238.669 73.0994 234.58 73.6999L234.43 72.6999C238.621 72.0728 242.736 71.0138 246.71 69.5399L247.21 69.3599L247.36 69.8599C248.629 74.199 248.464 78.8319 246.89 83.0699C259.18 78.1799 272.01 60.8199 272.01 40.1399C272.01 21.7799 250.6 6.83988 224.28 6.83988C197.96 6.83988 176.56 21.7799 176.56 40.1399C176.56 53.4899 187.93 65.5199 205.56 70.7799L205.27 71.7799C187.27 66.3899 175.59 53.9899 175.59 40.1799C175.59 21.2699 197.45 5.87988 224.31 5.87988C251.17 5.87988 273.04 21.2699 273.04 40.1799C273.04 61.9199 259.04 80.0899 246.14 84.4599L245 84.8499Z" fill="#8B55F1"/>
<path d="M272.761 14.3241L239.449 20.2759C237.056 20.7033 235.464 22.989 235.891 25.3812L239.437 45.2269C239.864 47.6191 242.15 49.2119 244.542 48.7845L277.855 42.8326C280.247 42.4052 281.84 40.1195 281.412 37.7273L277.866 17.8816C277.439 15.4894 275.153 13.8967 272.761 14.3241Z" fill="#8B55F1"/>
<path d="M264.76 30.49L252.96 26.23L255.17 38.57L264.76 30.49Z" fill="white"/>
<path d="M309.34 162.89H38.6499V175.56H309.34V162.89Z" fill="#8B55F1"/>
<path opacity="0.3" d="M126.45 162.89H38.6499V175.56H126.45V162.89Z" fill="white"/>
<path d="M45.8998 175.56H41.7598V315.24H45.8998V175.56Z" fill="#8B55F1"/>
<path opacity="0.7" d="M45.8998 175.56H41.7598V315.24H45.8998V175.56Z" fill="white"/>
<path d="M123.35 175.56H119.21V315.24H123.35V175.56Z" fill="#8B55F1"/>
<path opacity="0.7" d="M123.35 175.56H119.21V315.24H123.35V175.56Z" fill="white"/>
<path d="M228.79 175.56H224.65V315.24H228.79V175.56Z" fill="#8B55F1"/>
<path opacity="0.7" d="M228.79 175.56H224.65V315.24H228.79V175.56Z" fill="white"/>
<path d="M306.24 175.56H302.1V315.24H306.24V175.56Z" fill="#8B55F1"/>
<path opacity="0.7" d="M306.24 175.56H302.1V315.24H306.24V175.56Z" fill="white"/>
<path d="M280 106.89H206C204.732 106.936 203.517 107.411 202.554 108.238C201.591 109.064 200.937 110.193 200.7 111.44L192.98 158.33C192.862 158.889 192.872 159.468 193.01 160.022C193.147 160.576 193.409 161.093 193.775 161.531C194.14 161.97 194.601 162.321 195.121 162.556C195.642 162.791 196.209 162.906 196.78 162.89H270.78C272.052 162.846 273.27 162.371 274.235 161.542C275.2 160.713 275.855 159.58 276.09 158.33L283.81 111.44C283.929 110.881 283.918 110.302 283.78 109.747C283.642 109.192 283.38 108.676 283.013 108.238C282.645 107.799 282.184 107.45 281.662 107.217C281.14 106.983 280.572 106.872 280 106.89V106.89Z" fill="#263238"/>
<path d="M233.01 159.83H163.34C162.881 159.83 162.51 160.202 162.51 160.66V162.06C162.51 162.518 162.881 162.89 163.34 162.89H233.01C233.468 162.89 233.84 162.518 233.84 162.06V160.66C233.84 160.202 233.468 159.83 233.01 159.83Z" fill="#263238"/>
<path opacity="0.2" d="M280 106.89H207.62C206.351 106.936 205.136 107.411 204.173 108.238C203.21 109.064 202.557 110.194 202.32 111.44L194.6 158.33C194.48 158.889 194.488 159.469 194.625 160.024C194.762 160.579 195.023 161.096 195.389 161.536C195.756 161.975 196.217 162.325 196.738 162.56C197.26 162.795 197.828 162.908 198.4 162.89H270.73C272.001 162.846 273.22 162.371 274.185 161.542C275.15 160.713 275.804 159.581 276.04 158.33L283.76 111.44C283.877 110.885 283.868 110.311 283.732 109.76C283.597 109.209 283.339 108.695 282.978 108.258C282.616 107.821 282.161 107.471 281.645 107.234C281.129 106.997 280.567 106.88 280 106.89V106.89Z" fill="white"/>
<path d="M88.46 159.83C88.46 159.83 112.29 163.38 123.79 158.69C129.17 161.28 148.33 162.56 155 159.83C152.94 162.22 148.1 162.89 148.1 162.89H97.83C93 162.89 89.31 160.78 88.46 159.83Z" fill="#8B55F1"/>
<path opacity="0.7" d="M88.46 159.83C88.46 159.83 112.29 163.38 123.79 158.69C129.17 161.28 148.33 162.56 155 159.83C152.94 162.22 148.1 162.89 148.1 162.89H97.83C93 162.89 89.31 160.78 88.46 159.83Z" fill="white"/>
<rect x="13" y="13" width="16" height="16" fill="#EEEEEE"/>
<rect x="91" y="33" width="20" height="20" fill="#EEEEEE"/>
<rect x="13" y="31" width="16" height="16" fill="#EEEEEE"/>
<rect x="91" y="56" width="20" height="20" fill="#EEEEEE"/>
<rect x="13" y="49" width="16" height="16" fill="#EEEEEE"/>
<rect x="91" y="79" width="20" height="20" fill="#EEEEEE"/>
<rect x="13" y="67" width="16" height="16" fill="#EEEEEE"/>
<rect x="91" y="102" width="20" height="20" fill="#EEEEEE"/>
<rect x="31" y="13" width="15" height="16" fill="#EEEEEE"/>
<rect x="113" y="33" width="20" height="20" fill="#EEEEEE"/>
<rect x="31" y="31" width="15" height="16" fill="#EEEEEE"/>
<rect x="113" y="56" width="20" height="20" fill="#EEEEEE"/>
<rect x="31" y="49" width="15" height="16" fill="#EEEEEE"/>
<rect x="113" y="79" width="20" height="20" fill="#EEEEEE"/>
<rect x="31" y="67" width="15" height="16" fill="#EEEEEE"/>
<rect x="113" y="102" width="20" height="20" fill="#EEEEEE"/>
<path d="M139.26 195.67H54.2999C52.5381 195.67 51.1099 197.098 51.1099 198.86V203.39C51.1099 205.152 52.5381 206.58 54.2999 206.58H139.26C141.022 206.58 142.45 205.152 142.45 203.39V198.86C142.45 197.098 141.022 195.67 139.26 195.67Z" fill="#8B55F1"/>
<path d="M138.3 309.24H140.83L137.92 206.58H134.41L138.3 309.24Z" fill="#8B55F1"/>
<path opacity="0.3" d="M138.3 309.24H140.83L137.92 206.58H134.41L138.3 309.24Z" fill="white"/>
<path d="M114.97 309.24H112.44L115.36 206.58H118.86L114.97 309.24Z" fill="#8B55F1"/>
<path opacity="0.3" d="M114.97 309.24H112.44L115.36 206.58H118.86L114.97 309.24Z" fill="white"/>
<path d="M78.5897 309.24H81.1297L78.2097 206.58H74.6997L78.5897 309.24Z" fill="#8B55F1"/>
<path opacity="0.3" d="M78.5897 309.24H81.1297L78.2097 206.58H74.6997L78.5897 309.24Z" fill="white"/>
<path d="M55.27 309.24H52.73L55.65 206.58H59.15L55.27 309.24Z" fill="#8B55F1"/>
<path opacity="0.3" d="M55.27 309.24H52.73L55.65 206.58H59.15L55.27 309.24Z" fill="white"/>
<path d="M165.31 283.15L174.33 280.1L166.91 259.04L157.9 262.09L165.31 283.15Z" fill="#FFC3BD"/>
<path d="M173.66 276.62L163.78 281C163.698 281.029 163.623 281.075 163.561 281.135C163.499 281.195 163.45 281.268 163.419 281.349C163.388 281.43 163.374 281.516 163.38 281.603C163.385 281.689 163.409 281.774 163.45 281.85L167.2 289.47C167.435 289.869 167.805 290.171 168.244 290.32C168.683 290.468 169.161 290.454 169.59 290.28C173 288.71 174.53 287.8 178.88 285.89C181.56 284.72 186.95 282.63 190.29 280.48C193.63 278.33 191.01 275.23 189.37 275.85C185.48 277.33 179.01 277.27 175.47 276.51C174.87 276.359 174.237 276.397 173.66 276.62Z" fill="#263238"/>
<path opacity="0.2" d="M157.9 262.1L166.92 259.04L171.15 271.09L161.98 273.71L157.9 262.1Z" fill="black"/>
<path d="M101.42 167.19C101.42 167.19 146.42 175.31 150.05 190.09C157.18 219.31 173.26 265.01 173.26 265.01L156.14 270.01C156.14 270.01 131.66 217.6 128.58 199.96C103.33 199.96 72.5798 201.96 68.5798 191.28C65.0698 181.8 66.3198 167.23 66.3198 167.23L101.42 167.19Z" fill="#263238"/>
<path d="M155.2 273L175.2 266.4L173.49 257.37L151.68 265.05L155.2 273Z" fill="#8B55F1"/>
<path d="M126.11 286.35L136.07 287.11L130.22 262.53L120.93 264.63L126.11 286.35Z" fill="#FFC3BD"/>
<path d="M135.82 284.71L125.09 283.52C125.004 283.504 124.915 283.507 124.83 283.528C124.745 283.55 124.665 283.59 124.597 283.645C124.529 283.7 124.473 283.769 124.434 283.847C124.395 283.926 124.373 284.012 124.37 284.1L123.81 292.58C123.829 293.039 124.005 293.477 124.31 293.821C124.614 294.165 125.027 294.394 125.48 294.47C129.21 294.82 131 294.79 135.72 295.31C138.62 295.63 144.34 296.52 148.31 296.31C152.28 296.1 151.56 292.11 149.82 291.84C145.71 291.17 140.15 287.89 137.46 285.46C137.006 285.044 136.432 284.781 135.82 284.71V284.71Z" fill="#263238"/>
<path opacity="0.2" d="M120.93 264.64L130.22 262.54L133.17 274.96L123.78 276.61L120.93 264.64Z" fill="black"/>
<path d="M77.9999 167.19C77.9999 167.19 132.71 175.38 130.2 196.09C126.59 225.95 135.86 269.14 135.86 269.14L118.31 272.28C118.31 272.28 105.41 218.6 105.31 200.69C87.5099 200.69 56.4099 201.96 52.4299 191.24C48.9199 181.76 50.1699 167.19 50.1699 167.19H77.9999Z" fill="#263238"/>
<path d="M117.1 275.2L137.69 270.72L136.93 261.57L114.43 266.92L117.1 275.2Z" fill="#8B55F1"/>
<path d="M106.86 109.64C108.32 115.36 109.75 121.13 111.15 126.88C112.55 132.63 113.92 138.39 115.37 144.07L116.46 148.3L117.02 150.38L117.31 151.38V151.51V151.57C117.31 151.57 117.31 151.48 117.26 151.44C117.184 151.235 117.091 151.038 116.98 150.85L116.83 150.62L116.72 150.47L116.52 150.25C116.31 150.05 116.28 150.08 116.33 150.13C116.438 150.241 116.559 150.338 116.69 150.42C117.13 150.716 117.591 150.98 118.07 151.21C119.15 151.74 120.41 152.21 121.7 152.73C126.9 154.66 132.64 156.3 138.22 158.07L137.34 164.45C134.269 164.485 131.199 164.365 128.14 164.09C125.028 163.833 121.933 163.399 118.87 162.79C117.225 162.47 115.602 162.05 114.01 161.53C113.091 161.236 112.192 160.882 111.32 160.47C110.784 160.22 110.266 159.933 109.77 159.61C109.08 159.17 108.446 158.65 107.88 158.06C107.7 157.86 107.53 157.67 107.33 157.41L107.05 157.03L106.77 156.56C106.564 156.208 106.387 155.84 106.24 155.46L106.08 155L105.69 153.9L104.94 151.72C104.45 150.27 103.94 148.82 103.53 147.38C101.72 141.6 100.07 135.85 98.5299 130.06C96.9899 124.27 95.5299 118.49 94.1899 112.63L106.86 109.64Z" fill="#FFC3BD"/>
<path d="M92.7997 102.72C98.2897 96.5997 106.99 100.88 110.66 114.58C112.44 121.24 111.88 124.72 111.88 124.72L92.9397 130.56C88.8697 121.56 85.3297 111.06 92.7997 102.72Z" fill="#8B55F1"/>
<g opacity="0.2">
<path opacity="0.2" d="M92.7997 102.72C98.2897 96.5997 106.99 100.88 110.66 114.58C112.44 121.24 111.88 124.72 111.88 124.72L92.9397 130.56C88.8697 121.56 85.3297 111.06 92.7997 102.72Z" fill="black"/>
</g>
<path d="M148.15 155.5L146.45 154.98C145.421 154.668 144.339 154.57 143.27 154.69L139.62 155.12C138.443 155.399 137.339 155.924 136.379 156.66C135.419 157.396 134.626 158.326 134.05 159.39L132.81 161.81C133.43 166.27 142.47 164.81 142.47 164.81H151L150.72 158.75C150.677 158.01 150.408 157.301 149.948 156.719C149.488 156.138 148.86 155.712 148.15 155.5Z" fill="#FFC3BD"/>
<path d="M154 145.74C153.758 147.382 153.065 148.926 152 150.2C151.09 151.53 150.15 152.85 149.2 154.2C147.29 156.81 145.34 159.38 143.2 161.83C143.106 161.936 142.977 162.004 142.837 162.021C142.697 162.039 142.555 162.004 142.438 161.924C142.321 161.844 142.238 161.725 142.203 161.588C142.169 161.45 142.185 161.305 142.25 161.18C143.73 158.28 145.4 155.52 147.11 152.78C147.97 151.413 148.85 150.056 149.75 148.71C150.527 147.238 151.693 146.006 153.12 145.15C153.226 145.085 153.347 145.052 153.471 145.053C153.595 145.054 153.716 145.09 153.82 145.157C153.925 145.224 154.008 145.318 154.061 145.43C154.114 145.542 154.134 145.667 154.12 145.79L154 145.74Z" fill="#263238"/>
<path d="M94.0699 96.7896L83.3999 93.7896L69.6699 93.1496C67.5878 93.0519 65.5313 93.641 63.8166 94.8263C62.102 96.0115 60.8242 97.7273 60.1799 99.7096C57.5599 107.71 55.1799 119.23 53.3999 129.2C51.288 141.757 50.2144 154.466 50.1899 167.2H101.42C102.47 138.75 105.82 124.85 107.8 114.78C108.381 111.796 107.954 108.704 106.588 105.99C105.221 103.275 102.992 101.09 100.25 99.7796L94.0699 96.7896Z" fill="#8B55F1"/>
<path d="M79.7598 98.79C81.0598 102.13 86.0898 109.27 91.9398 112.06C95.1898 109.71 95.8898 104.58 96.3798 102.18L79.7598 98.79Z" fill="white"/>
<path d="M96.3799 102.18C96.7593 100.86 96.6011 99.4436 95.9399 98.2399C95.1099 96.9399 95.3199 95.4499 96.1499 93.9199C96.808 92.7015 97.6326 91.5807 98.5999 90.5899L91.8899 82.7399L86.4199 76.3999C85.9499 82.3299 85.4899 89.6799 80.8099 94.2799C79.1599 95.9099 78.8099 96.3999 79.7599 98.7899C81.0599 102.13 85.7599 106.79 91.5599 109.58C92.8163 108.73 93.89 107.638 94.7178 106.367C95.5455 105.096 96.1107 103.672 96.3799 102.18V102.18Z" fill="#FFC3BD"/>
<path opacity="0.2" d="M96.5398 89.2399L92.7499 83.0898C92.6799 83.2498 92.5899 83.4199 92.4999 83.5999C92.1586 84.3613 91.8842 85.1509 91.6798 85.9599C90.9898 88.6899 93.3099 92.5898 95.8499 94.4498C95.9599 94.2798 96.0498 94.0998 96.1498 93.9198C96.7966 92.7651 97.5643 91.6823 98.4399 90.6898C98.4899 90.6515 98.5435 90.6181 98.5999 90.5898L96.5398 89.2399Z" fill="black"/>
<path d="M109.78 74.5397C110.66 80.2097 118.78 65.6197 114.24 62.4197C108.7 58.4997 108.12 63.7497 109.78 74.5397Z" fill="#263238"/>
<path d="M86.6701 67.1397C86.1501 76.3497 85.3601 81.6997 89.5901 87.0197C95.9501 95.0197 108.16 92.3797 111.53 83.5697C114.53 75.6297 114.9 61.9097 106.05 57.0497C97.2001 52.1897 87.1901 57.9397 86.6701 67.1397Z" fill="#FFC3BD"/>
<path d="M104.82 61.6098C104.82 61.6098 110.71 67.3898 114.91 64.9998C119.11 62.6098 119.96 56.4198 114.91 50.9998C112.48 48.3898 108.8 45.8398 101.58 45.9998C102.15 46.5547 102.832 46.981 103.58 47.2498C103.58 47.2498 94.42 45.7198 88.04 48.3498C88.5509 49.1187 89.2362 49.756 90.04 50.2098C83.83 49.7398 77.79 52.2098 82.04 58.0398C76.41 58.5898 75.1501 65.7898 78.1501 70.5398C81.1501 75.2898 81.6801 78.8498 85.6901 81.0098C85.6901 74.5398 87.18 73.0098 87.18 73.0098C90.07 71.7798 93.4001 65.6198 92.7301 62.5098C98.9101 64.9998 105.5 65.8198 104.82 61.6098Z" fill="#263238"/>
<path d="M83.5198 57.8298C81.5602 56.4331 80.0377 54.5083 79.1298 52.2798C78.4098 55.4998 81.7398 59.1698 81.7398 59.1698L83.5198 57.8298Z" fill="#263238"/>
<path d="M82.0702 72.1699C82.1386 74.2789 82.966 76.2922 84.4001 77.8399C86.3101 79.8399 88.9101 78.1399 89.4001 75.5699C89.8001 73.2599 88.8201 69.7299 86.4001 68.6899C83.9801 67.6499 82.0002 69.5899 82.0702 72.1699Z" fill="#FFC3BD"/>
<path d="M101.75 71.8899C101.6 72.6499 101.87 73.3599 102.36 73.4799C102.85 73.5999 103.36 73.0799 103.53 72.3199C103.7 71.5599 103.41 70.8499 102.92 70.7299C102.43 70.6099 101.9 71.1399 101.75 71.8899Z" fill="#263238"/>
<path d="M110.25 73.92C110.09 74.68 110.37 75.38 110.86 75.5C111.35 75.62 111.86 75.1 112.03 74.34C112.2 73.58 111.9 72.87 111.41 72.76C110.92 72.65 110.4 73.16 110.25 73.92Z" fill="#263238"/>
<path d="M107.42 73.8599C107.641 76.0381 108.152 78.1771 108.94 80.2199C107.54 80.9299 105.78 79.8599 105.78 79.8599L107.42 73.8599Z" fill="#ED847E"/>
<path d="M104.21 84.1099C103.329 83.9256 102.495 83.5647 101.758 83.0491C101.021 82.5335 100.395 81.8738 99.9201 81.1099C99.901 81.0835 99.8877 81.0533 99.8812 81.0214C99.8746 80.9895 99.8749 80.9565 99.8821 80.9247C99.8892 80.8929 99.903 80.863 99.9226 80.837C99.9422 80.8109 99.9671 80.7893 99.9956 80.7736C100.024 80.7579 100.056 80.7484 100.088 80.7458C100.121 80.7433 100.153 80.7476 100.184 80.7586C100.215 80.7696 100.243 80.787 100.266 80.8096C100.29 80.8323 100.308 80.8596 100.32 80.8899C100.85 81.7063 101.56 82.3904 102.396 82.8896C103.231 83.3889 104.17 83.69 105.14 83.7699C105.17 83.771 105.198 83.7783 105.225 83.7913C105.251 83.8043 105.275 83.8227 105.294 83.8453C105.312 83.8679 105.326 83.8943 105.334 83.9227C105.342 83.951 105.344 83.9807 105.34 84.0099C105.339 84.0397 105.332 84.0689 105.319 84.0958C105.306 84.1227 105.288 84.1467 105.265 84.1664C105.243 84.186 105.217 84.2009 105.188 84.2101C105.16 84.2193 105.13 84.2226 105.1 84.2199C104.802 84.2009 104.504 84.1642 104.21 84.1099V84.1099Z" fill="#263238"/>
<path d="M100.63 68.8298C100.56 68.8019 100.498 68.7572 100.45 68.6998C100.374 68.6064 100.338 68.4872 100.35 68.3676C100.361 68.248 100.418 68.1376 100.51 68.0598C101.051 67.5926 101.7 67.266 102.397 67.109C103.095 66.952 103.821 66.9695 104.51 67.1598C104.624 67.1983 104.718 67.2805 104.772 67.3883C104.825 67.4961 104.833 67.6208 104.795 67.7348C104.757 67.8489 104.674 67.943 104.567 67.9964C104.459 68.0499 104.334 68.0583 104.22 68.0198C103.677 67.8823 103.109 67.8777 102.564 68.0066C102.019 68.1354 101.514 68.3938 101.09 68.7598C101.027 68.8123 100.951 68.8466 100.87 68.8589C100.789 68.8712 100.706 68.8612 100.63 68.8298V68.8298Z" fill="#263238"/>
<path d="M111.3 68.9999C111.285 68.9273 111.285 68.8525 111.3 68.7799C111.335 68.6652 111.412 68.5682 111.516 68.5087C111.62 68.4492 111.743 68.4318 111.86 68.4599C112.549 68.6434 113.182 68.9927 113.705 69.4773C114.228 69.9618 114.624 70.567 114.86 71.2399C114.876 71.297 114.882 71.3569 114.875 71.4161C114.869 71.4753 114.85 71.5326 114.822 71.5846C114.793 71.6367 114.754 71.6826 114.707 71.7195C114.661 71.7565 114.607 71.7838 114.55 71.7999C114.493 71.8167 114.433 71.822 114.374 71.8154C114.314 71.8089 114.257 71.7907 114.205 71.7618C114.153 71.733 114.107 71.6941 114.07 71.6475C114.033 71.6008 114.006 71.5472 113.99 71.4899C113.797 70.9636 113.479 70.4924 113.062 70.1176C112.646 69.7428 112.143 69.4758 111.6 69.3399C111.526 69.3123 111.459 69.2669 111.407 69.2076C111.355 69.1483 111.318 69.0769 111.3 68.9999Z" fill="#263238"/>
<path d="M71.8097 106.88C69.8897 112.36 67.9697 118.07 66.2597 123.67C65.3897 126.47 64.5997 129.28 63.8897 132.05C63.2015 134.71 62.6673 137.408 62.2897 140.13C62.2897 140.43 62.2097 140.76 62.1997 141.05V141.49C62.1997 141.63 62.1997 141.84 62.1997 141.77C62.1997 141.7 62.1197 141.83 62.1997 142.04C62.4532 142.804 62.8656 143.506 63.4097 144.1C65.1274 146.001 67.0758 147.681 69.2097 149.1C74.0253 152.346 79.0532 155.266 84.2597 157.84L82.1197 164C79.0208 163.324 75.9653 162.462 72.9697 161.42C69.9176 160.374 66.9378 159.128 64.0497 157.69C60.8826 156.145 57.9529 154.155 55.3497 151.78C53.6956 150.256 52.3629 148.416 51.4297 146.37C50.8473 145.055 50.5085 143.646 50.4297 142.21C50.4297 141.76 50.4297 141.6 50.4297 141.36V140.66C50.4297 140.19 50.4297 139.76 50.4297 139.31C50.6018 135.98 51.0196 132.668 51.6797 129.4C52.2797 126.24 53.0297 123.18 53.8397 120.14C55.4622 114.102 57.4015 108.154 59.6497 102.32L71.8097 106.88Z" fill="#FFC3BD"/>
<path d="M68.9997 93.0897C78.7797 92.9997 80.6297 100.61 75.3097 112.67C73.2741 117.028 70.7871 121.16 67.8897 125L51.7197 116.41C53.8797 106.78 57.8297 93.1897 68.9997 93.0897Z" fill="#8B55F1"/>
<path d="M95.9998 156.88L92.4198 154.88C91.8344 154.559 91.1618 154.433 90.4998 154.52L86.1998 155.12C83.3098 155.42 81.1998 157.63 79.6298 159.55L77.7998 161.79C77.7098 166.31 89.1298 165.25 89.1298 165.25L99.1298 165.12L98.8198 161.18C98.7408 160.286 98.442 159.426 97.95 158.676C97.458 157.926 96.788 157.309 95.9998 156.88Z" fill="#FFC3BD"/>
</svg>
