<svg width="16" height="14" viewBox="0 0 16 14" fill="none" xmlns="http://www.w3.org/2000/svg">
<path d="M4.77439 5.216C4.17317 5.216 3.68579 5.72334 3.68579 6.34918C3.68579 6.97502 4.17317 7.48237 4.77439 7.48237C5.37561 7.48237 5.863 6.97502 5.863 6.34918C5.863 5.72334 5.37561 5.216 4.77439 5.216Z" fill="#651DBD"/>
<path d="M8.25793 5.216C7.65671 5.216 7.16932 5.72334 7.16932 6.34918C7.16932 6.97502 7.65671 7.48237 8.25793 7.48237C8.85915 7.48237 9.34653 6.97502 9.34653 6.34918C9.34653 5.72334 8.85915 5.216 8.25793 5.216Z" fill="#651DBD"/>
<path d="M10.6529 6.34918C10.6529 5.72334 11.1402 5.216 11.7415 5.216C12.3427 5.216 12.8301 5.72334 12.8301 6.34918C12.8301 6.97502 12.3427 7.48237 11.7415 7.48237C11.1402 7.48237 10.6529 6.97502 10.6529 6.34918Z" fill="#651DBD"/>
<path fill-rule="evenodd" clip-rule="evenodd" d="M11.8292 0.767385C9.48286 0.559097 7.12427 0.54701 4.77609 0.731239L4.6078 0.744441C2.3685 0.920128 0.637695 2.8627 0.637695 5.20032V12.9217C0.637695 13.1609 0.758457 13.3825 0.955697 13.5052C1.15294 13.628 1.39763 13.6338 1.60006 13.5206L5.0059 11.6153C5.16432 11.5266 5.34138 11.4802 5.52123 11.4802H13.3386C14.3246 11.4802 15.1695 10.7465 15.3462 9.73682C15.7044 7.69053 15.7327 5.59644 15.4299 3.54047L15.3407 2.93461C15.1783 1.83156 14.3114 0.987738 13.2433 0.892916L11.8292 0.767385ZM4.87426 2.08721C7.15281 1.90845 9.44145 1.92018 11.7182 2.12229L13.1323 2.24782C13.5994 2.28928 13.9784 2.65828 14.0495 3.14064L14.1387 3.7465C14.4195 5.65323 14.3932 7.59532 14.061 9.49307C13.9974 9.85639 13.6934 10.1204 13.3386 10.1204H5.52123C5.12555 10.1204 4.73604 10.2225 4.38751 10.4174L1.94402 11.7844V5.20032C1.94402 3.57407 3.14812 2.22264 4.70598 2.10042L4.87426 2.08721Z" fill="#651DBD"/>
</svg>
