<svg width="15" height="13" viewBox="0 0 15 13" fill="none" xmlns="http://www.w3.org/2000/svg">
<path d="M4.1367 4.61444C3.53548 4.61444 3.04809 5.12178 3.04809 5.74762C3.04809 6.37346 3.53548 6.88081 4.1367 6.88081C4.73792 6.88081 5.2253 6.37346 5.2253 5.74762C5.2253 5.12178 4.73792 4.61444 4.1367 4.61444Z" fill="#5B5B5B"/>
<path d="M7.62023 4.61444C7.01901 4.61444 6.53163 5.12178 6.53163 5.74762C6.53163 6.37346 7.01901 6.88081 7.62023 6.88081C8.22145 6.88081 8.70884 6.37346 8.70884 5.74762C8.70884 5.12178 8.22145 4.61444 7.62023 4.61444Z" fill="#5B5B5B"/>
<path d="M10.0152 5.74762C10.0152 5.12178 10.5026 4.61444 11.1038 4.61444C11.705 4.61444 12.1924 5.12178 12.1924 5.74762C12.1924 6.37346 11.705 6.88081 11.1038 6.88081C10.5026 6.88081 10.0152 6.37346 10.0152 5.74762Z" fill="#5B5B5B"/>
<path fill-rule="evenodd" clip-rule="evenodd" d="M11.1915 0.165823C8.84517 -0.042465 6.48657 -0.0545528 4.13839 0.129676L3.97011 0.142879C1.7308 0.318566 0 2.26114 0 4.59876V12.3201C0 12.5593 0.120762 12.7809 0.318002 12.9037C0.515242 13.0264 0.759938 13.0322 0.96236 12.919L4.36821 11.0137C4.52663 10.9251 4.70368 10.8787 4.88353 10.8787H12.7009C13.6869 10.8787 14.5318 10.1449 14.7085 9.13526C15.0667 7.08897 15.095 4.99488 14.7922 2.93891L14.703 2.33304C14.5406 1.23 13.6737 0.386175 12.6056 0.291354L11.1915 0.165823ZM4.23657 1.48565C6.51511 1.30689 8.80375 1.31861 11.0805 1.52073L12.4946 1.64626C12.9617 1.68772 13.3407 2.05672 13.4118 2.53907L13.501 3.14494C13.7818 5.05167 13.7555 6.99376 13.4233 8.89151C13.3598 9.25483 13.0557 9.51886 12.7009 9.51886H4.88353C4.48786 9.51886 4.09834 9.62091 3.74981 9.81588L1.30633 11.1828V4.59876C1.30633 2.97251 2.51042 1.62108 4.06829 1.49885L4.23657 1.48565Z" fill="#5B5B5B"/>
</svg>
