<svg width="13" height="16" viewBox="0 0 13 16" fill="none" xmlns="http://www.w3.org/2000/svg">
<path fill-rule="evenodd" clip-rule="evenodd" d="M8.39512 0.0491945C8.64315 0.145834 8.80414 0.368694 8.80414 0.615399V6.35749H12.3276C12.5667 6.35749 12.7878 6.47371 12.9083 6.66271C13.0289 6.85172 13.0306 7.08508 12.913 7.27561L12.4718 7.99015C10.7988 10.7 8.66508 13.1489 6.15086 15.2449L5.43764 15.8395C5.24079 16.0036 4.95668 16.046 4.71311 15.9475C4.46954 15.849 4.31241 15.6283 4.31241 15.3846V9.69119H0.672414C0.30105 9.69119 0 9.41567 0 9.07581C0 8.96573 0.0315814 8.8624 0.0869044 8.773C1.66375 6.10514 3.68259 3.67687 6.07164 1.57453L7.66567 0.17181C7.85998 0.000816564 8.1471 -0.0474452 8.39512 0.0491945ZM1.8241 8.46042H4.98483C5.35619 8.46042 5.65724 8.73594 5.65724 9.07581V13.9852C7.82564 12.1099 9.68426 9.955 11.1741 7.58826H8.13172C7.76036 7.58826 7.45931 7.31274 7.45931 6.97288V2.06083L7.00375 2.46171C4.98582 4.23747 3.24356 6.25594 1.8241 8.46042Z" fill="#5B5B5B"/>
</svg>
