<svg width="16" height="15" viewBox="0 0 16 15" fill="none" xmlns="http://www.w3.org/2000/svg">
<g clip-path="url(#clip0_3134_126)">
<path d="M12.27 0.601269C13.1837 0.601269 14.1022 0.601269 15.0159 0.601269C15.4373 0.601269 15.6645 0.823867 15.6645 1.24065C15.6645 2.32522 15.6645 3.41453 15.6645 4.4991C15.6645 4.91115 15.442 5.13374 15.0301 5.13374C13.6524 5.13374 12.2795 5.13374 10.9018 5.13848C10.7977 5.13848 10.684 5.17637 10.5941 5.2332C10.1396 5.52684 9.6851 5.82995 9.23535 6.13307C9.0081 6.28462 8.78085 6.32251 8.54414 6.16622C8.32636 6.02414 8.25535 5.7968 8.32636 5.49369C8.49206 4.80695 8.6625 4.12021 8.8282 3.42874C8.84713 3.34349 8.86134 3.2535 8.86134 3.16825C8.86607 2.52414 8.86134 1.88002 8.86134 1.23591C8.86134 0.814395 9.08385 0.591797 9.5052 0.591797C10.4284 0.601269 11.3468 0.601269 12.27 0.601269ZM9.75138 4.3807C9.77032 4.38544 9.78453 4.39017 9.80346 4.39964C9.87448 4.35228 9.95023 4.30492 10.0165 4.25282C10.2485 4.06811 10.5041 3.99707 10.8024 4.00181C11.9765 4.01602 13.1506 4.00655 14.3247 4.00655C14.3863 4.00655 14.4525 4.00655 14.5188 4.00655C14.5188 3.23929 14.5188 2.49572 14.5188 1.74741C13.0086 1.74741 11.5078 1.74741 9.99757 1.74741C9.97863 2.6378 10.0828 3.5282 9.75138 4.3807Z" fill="#651DBD"/>
<path d="M3.75758 11.0919C3.76231 11.3998 3.50666 11.6603 3.19893 11.665C2.8912 11.6697 2.63081 11.4187 2.62134 11.1109C2.61188 10.7935 2.87226 10.5331 3.18473 10.5283C3.49719 10.5283 3.75284 10.7841 3.75758 11.0919Z" fill="#651DBD"/>
<path d="M3.18963 14.5632C3.18963 14.009 3.18963 13.4502 3.18963 12.896C3.18963 12.4414 2.97185 12.2282 2.51263 12.2282C2.38954 12.2282 2.26644 12.2282 2.13862 12.2282C1.86403 12.2282 1.76934 12.1335 1.76934 11.8541C1.76934 10.689 1.76934 9.52392 1.76934 8.36356C1.76934 8.06519 1.85929 7.9752 2.16229 7.9752C4.41108 7.9752 6.66461 7.9752 8.9134 7.9752C8.96074 7.9752 9.01282 7.9752 9.06016 7.9752C9.01282 8.03203 8.96074 8.06045 8.90867 8.08887C8.06596 8.5388 7.21852 8.984 6.37582 9.42919C6.15804 9.54286 6.02548 9.70862 6.02548 9.95964C6.02548 11.1863 6.02548 12.4177 6.02548 13.6443C6.02548 13.8575 6.1249 14.0185 6.3048 14.1274C6.68828 14.3595 7.15698 14.0848 7.15698 13.6112C7.16171 12.5692 7.16171 11.532 7.15224 10.4901C7.15224 10.3385 7.19958 10.2628 7.33214 10.1964C8.40683 9.63285 9.48152 9.05977 10.5562 8.49618C10.8071 8.36356 11.006 8.19306 11.0864 7.9089C11.2379 7.35003 10.8308 6.8338 10.239 6.8338C8.56306 6.82906 6.88239 6.8338 5.20644 6.8338C5.13543 6.8338 5.06441 6.8338 4.9934 6.8338C6.68355 6.55436 7.66828 5.11458 7.57833 3.66533C7.48838 2.19239 6.30007 0.994149 4.82297 0.885218C3.32219 0.781023 1.97765 1.80403 1.68886 3.31012C1.63205 3.6227 1.62731 3.9637 1.67466 4.27629C1.71726 4.59361 1.81668 4.91093 1.96345 5.19509C2.10548 5.47926 2.30905 5.74922 2.5363 5.97656C2.76354 6.19915 3.03813 6.3886 3.32693 6.53542C3.60625 6.6775 3.91871 6.74381 4.19804 6.83853C3.49736 6.83853 2.77301 6.8338 2.04393 6.83853C1.39533 6.84327 0.850887 7.28373 0.685187 7.9089C0.675718 7.95152 0.656781 7.99888 0.642578 8.04151C0.642578 9.41025 0.642578 10.7837 0.642578 12.1525C0.704124 12.3088 0.746733 12.4793 0.822482 12.6261C1.0592 13.0665 1.45688 13.3033 2.04393 13.3649C2.04393 13.7675 2.04393 14.1748 2.04393 14.5963H3.18963C3.18963 14.5868 3.18963 14.5774 3.18963 14.5632ZM2.76355 3.86424C2.76355 2.84124 3.59205 2.02189 4.61466 2.02189C5.62306 2.02189 6.45157 2.85545 6.45157 3.86424C6.44683 4.88725 5.62306 5.71133 4.60045 5.71133C3.59205 5.7066 2.76355 4.87304 2.76355 3.86424Z" fill="#651DBD"/>
</g>
<defs>
<clipPath id="clip0_3134_126">
<rect width="15.0267" height="14" fill="white" transform="translate(0.637695 0.601562)"/>
</clipPath>
</defs>
</svg>
