<svg width="14" height="17" viewBox="0 0 14 17" fill="none" xmlns="http://www.w3.org/2000/svg">
<path fill-rule="evenodd" clip-rule="evenodd" d="M9.03282 0.650757C9.28084 0.747397 9.44183 0.970256 9.44183 1.21696V6.95905H12.9653C13.2044 6.95905 13.4255 7.07527 13.546 7.26428C13.6666 7.45328 13.6683 7.68665 13.5507 7.87717L13.1095 8.59172C11.4365 11.3016 9.30278 13.7505 6.78856 15.8465L6.07534 16.4411C5.87849 16.6052 5.59437 16.6475 5.3508 16.5491C5.10724 16.4506 4.95011 16.2299 4.95011 15.9862V10.2928H1.31011C0.938745 10.2928 0.637695 10.0172 0.637695 9.67737C0.637695 9.56729 0.669277 9.46396 0.7246 9.37456C2.30145 6.70671 4.32028 4.27843 6.70934 2.17609L8.30336 0.773373C8.49768 0.602379 8.78479 0.554117 9.03282 0.650757ZM2.4618 9.06199H5.62252C5.99389 9.06199 6.29494 9.3375 6.29494 9.67737V14.5868C8.46334 12.7115 10.322 10.5566 11.8118 8.18982H8.76942C8.39806 8.18982 8.09701 7.91431 8.09701 7.57444V2.66239L7.64145 3.06327C5.62351 4.83903 3.88125 6.8575 2.4618 9.06199Z" fill="#651DBD"/>
</svg>
