<svg width="15" height="16" viewBox="0 0 15 16" fill="none" xmlns="http://www.w3.org/2000/svg">
<g clip-path="url(#clip0_3134_125)">
<path d="M7.6726 15.7834C5.53833 15.7834 3.40885 15.7834 1.27458 15.7834C0.930031 15.7834 0.72426 15.6617 0.657265 15.4047C0.633338 15.3236 0.633338 15.2244 0.65248 15.1388C0.819967 14.3859 0.987455 13.6331 1.17408 12.8847C1.55213 11.3429 2.99731 10.1889 4.68175 10.1618C6.68203 10.1257 8.68231 10.1257 10.6826 10.1618C12.4484 10.1934 13.884 11.3925 14.2477 13.0515C14.3913 13.7187 14.5444 14.3814 14.6975 15.0441C14.8076 15.5219 14.5875 15.7834 14.0706 15.7834C11.9364 15.7834 9.80209 15.7834 7.6726 15.7834ZM9.84994 11.1897C8.39998 11.1897 6.95959 11.1897 5.51919 11.1897C5.51919 12.3798 5.51919 13.5609 5.51919 14.7511C6.96437 14.7511 8.39998 14.7511 9.84994 14.7511C9.84994 13.5609 9.84994 12.3753 9.84994 11.1897ZM10.9601 11.2032C10.9601 12.3978 10.9601 13.5699 10.9601 14.7466C11.8215 14.7466 12.6685 14.7466 13.5347 14.7466C13.3911 14.1515 13.281 13.5654 13.0992 12.9974C12.7834 12.0011 12.0416 11.4286 10.9601 11.2032ZM4.41856 11.2302C3.60026 11.2888 2.70061 11.9019 2.39435 12.7089C2.14551 13.3626 2.01152 14.0568 1.82011 14.7466C2.71497 14.7466 3.56198 14.7466 4.41856 14.7466C4.41856 13.5654 4.41856 12.3978 4.41856 11.2302Z" fill="#651DBD"/>
<path d="M7.1839 4.51752C6.2029 4.51752 5.22669 4.51752 4.24569 4.51752C3.81979 4.51752 3.59967 4.31465 3.60445 3.91794C3.60924 3.45811 3.57574 2.98927 3.65709 2.53846C3.87722 1.29422 4.97785 0.433167 6.32254 0.424151C7.92563 0.415135 9.53351 0.419643 11.1366 0.424151C11.5529 0.424151 11.7635 0.627016 11.7635 1.01922C11.7635 1.65036 11.7635 2.27698 11.7635 2.90812C11.7587 3.85933 11.06 4.51752 10.0503 4.51752C9.09326 4.52202 8.14097 4.51752 7.1839 4.51752ZM4.71944 3.48516C4.75772 3.48967 4.79601 3.49417 4.83907 3.49417C6.58573 3.49417 8.33717 3.49417 10.0838 3.49417C10.4571 3.49417 10.6724 3.29131 10.6772 2.93968C10.682 2.48436 10.6772 2.02904 10.6772 1.57372C10.6772 1.53765 10.6676 1.50159 10.6629 1.45651C10.615 1.452 10.5815 1.452 10.548 1.452C9.1459 1.452 7.74379 1.452 6.34168 1.45651C6.18376 1.45651 6.01627 1.47454 5.86793 1.51962C4.94435 1.79912 4.59024 2.52493 4.71944 3.48516Z" fill="#651DBD"/>
<path d="M10.9027 5.48242C10.9601 6.05495 10.9984 6.60044 10.8883 7.14141C10.7065 8.08361 10.1179 8.70122 9.14643 8.96269C8.11757 9.23768 7.07915 9.23768 6.06465 8.9131C5.12672 8.61556 4.61468 7.96639 4.46155 7.05575C4.37542 6.54183 4.40891 6.0234 4.46634 5.48242C4.82524 5.52299 5.17457 5.55906 5.54783 5.59963C5.53826 5.73938 5.51433 5.86561 5.51912 5.99184C5.52869 6.31642 5.51912 6.64552 5.56697 6.96559C5.64832 7.48403 5.98808 7.81763 6.51448 7.95738C7.29449 8.16475 8.08407 8.16475 8.86409 7.95287C9.5149 7.77705 9.8403 7.30821 9.86423 6.56888C9.8738 6.25331 9.86423 5.94225 9.86423 5.59963C10.1849 5.56808 10.5342 5.5275 10.9027 5.48242Z" fill="#651DBD"/>
</g>
<defs>
<clipPath id="clip0_3134_125">
<rect width="14.0833" height="15.3636" fill="white" transform="translate(0.637695 0.419922)"/>
</clipPath>
</defs>
</svg>
