<svg width="16" height="15" viewBox="0 0 16 15" fill="none" xmlns="http://www.w3.org/2000/svg">
<path d="M11.6322 1.00019C12.5459 1.00019 13.4643 1.00019 14.3781 1.00019C14.7994 1.00019 15.0267 1.22279 15.0267 1.63957C15.0267 2.72415 15.0267 3.81346 15.0267 4.89803C15.0267 5.31007 14.8042 5.53267 14.3923 5.53267C13.0146 5.53267 11.6416 5.53267 10.264 5.53741C10.1598 5.53741 10.0462 5.57529 9.95623 5.63213C9.50174 5.92577 9.04725 6.22888 8.59749 6.53199C8.37025 6.68355 8.143 6.72144 7.90628 6.56515C7.68851 6.42306 7.61749 6.19573 7.68851 5.89262C7.85421 5.20588 8.02464 4.51914 8.19034 3.82766C8.20928 3.74241 8.22348 3.65243 8.22348 3.56718C8.22822 2.92306 8.22348 2.27895 8.22348 1.63484C8.22348 1.21332 8.44599 0.990723 8.86735 0.990723C9.79053 1.00019 10.709 1.00019 11.6322 1.00019ZM9.11353 4.77963C9.13247 4.78436 9.14667 4.7891 9.16561 4.79857C9.23662 4.75121 9.31237 4.70385 9.37865 4.65175C9.61063 4.46704 9.86628 4.396 10.1645 4.40073C11.3386 4.41494 12.5128 4.40547 13.6869 4.40547C13.7484 4.40547 13.8147 4.40547 13.881 4.40547C13.881 3.63822 13.881 2.89465 13.881 2.14634C12.3707 2.14634 10.87 2.14634 9.35971 2.14634C9.34078 3.03673 9.44493 3.92712 9.11353 4.77963Z" fill="#5B5B5B"/>
<path d="M3.11991 11.4908C3.12465 11.7987 2.86899 12.0592 2.56126 12.0639C2.25353 12.0687 1.99315 11.8176 1.98368 11.5098C1.97421 11.1925 2.2346 10.932 2.54706 10.9272C2.85953 10.9272 3.11518 11.183 3.11991 11.4908Z" fill="#5B5B5B"/>
<path d="M2.55179 14.9621C2.55179 14.408 2.55179 13.8491 2.55179 13.295C2.55179 12.8403 2.33401 12.6272 1.87479 12.6272C1.75169 12.6272 1.6286 12.6272 1.50078 12.6272C1.22619 12.6272 1.1315 12.5324 1.1315 12.253C1.1315 11.0879 1.1315 9.92284 1.1315 8.76249C1.1315 8.46411 1.22145 8.37413 1.52445 8.37413C3.77324 8.37413 6.02677 8.37413 8.27556 8.37413C8.3229 8.37413 8.37498 8.37413 8.42232 8.37413C8.37498 8.43096 8.3229 8.45938 8.27083 8.48779C7.42812 8.93773 6.58068 9.38292 5.73798 9.82812C5.5202 9.94179 5.38764 10.1076 5.38764 10.3586C5.38764 11.5852 5.38764 12.8166 5.38764 14.0433C5.38764 14.2564 5.48706 14.4174 5.66696 14.5264C6.05044 14.7584 6.51914 14.4837 6.51914 14.0101C6.52387 12.9682 6.52387 11.931 6.5144 10.889C6.5144 10.7375 6.56174 10.6617 6.6943 10.5954C7.76899 10.0318 8.84368 9.4587 9.91836 8.8951C10.1693 8.76249 10.3681 8.59199 10.4486 8.30782C10.6001 7.74896 10.193 7.23272 9.60117 7.23272C7.92522 7.22799 6.24455 7.23272 4.5686 7.23272C4.49759 7.23272 4.42657 7.23272 4.35556 7.23272C6.04571 6.95329 7.03044 5.51351 6.94049 4.06425C6.85054 2.59132 5.66223 1.39307 4.18513 1.28414C2.68435 1.17995 1.33981 2.20295 1.05102 3.70904C0.994207 4.02163 0.989472 4.36263 1.03682 4.67521C1.07942 4.99253 1.17884 5.30985 1.32561 5.59402C1.46764 5.87819 1.67121 6.14815 1.89846 6.37548C2.1257 6.59808 2.40029 6.78752 2.68909 6.93434C2.96841 7.07643 3.28087 7.14273 3.5602 7.23746C2.85952 7.23746 2.13517 7.23272 1.40609 7.23746C0.757492 7.24219 0.213047 7.68265 0.0473466 8.30782C0.037878 8.35045 0.0189408 8.39781 0.00473785 8.44043C0.00473785 9.80917 0.00473785 11.1827 0.00473785 12.5514C0.0662838 12.7077 0.108892 12.8782 0.184641 13.025C0.421356 13.4655 0.819038 13.7023 1.40609 13.7638C1.40609 14.1664 1.40609 14.5737 1.40609 14.9952H2.55179C2.55179 14.9858 2.55179 14.9763 2.55179 14.9621ZM2.1257 4.26317C2.1257 3.24016 2.95421 2.42081 3.97682 2.42081C4.98522 2.42081 5.81373 3.25437 5.81373 4.26317C5.80899 5.28617 4.98522 6.11026 3.96261 6.11026C2.95421 6.10552 2.1257 5.27196 2.1257 4.26317Z" fill="#5B5B5B"/>
</svg>
