<svg width="15" height="17" viewBox="0 0 15 17" fill="none" xmlns="http://www.w3.org/2000/svg">
<path d="M7.03453 16.1823C4.90026 16.1823 2.77077 16.1823 0.6365 16.1823C0.291954 16.1823 0.0861834 16.0606 0.0191883 15.8037C-0.00473849 15.7225 -0.00473849 15.6233 0.014403 15.5377C0.181891 14.7848 0.349378 14.032 0.536007 13.2836C0.914051 11.7419 2.35923 10.5878 4.04368 10.5607C6.04396 10.5247 8.04424 10.5247 10.0445 10.5607C11.8103 10.5923 13.2459 11.7915 13.6096 13.4504C13.7532 14.1176 13.9063 14.7803 14.0594 15.443C14.1695 15.9209 13.9494 16.1823 13.4326 16.1823C11.2983 16.1823 9.16401 16.1823 7.03453 16.1823ZM9.21187 11.5886C7.7619 11.5886 6.32151 11.5886 4.88111 11.5886C4.88111 12.7787 4.88111 13.9598 4.88111 15.15C6.32629 15.15 7.7619 15.15 9.21187 15.15C9.21187 13.9598 9.21187 12.7742 9.21187 11.5886ZM10.3221 11.6021C10.3221 12.7968 10.3221 13.9689 10.3221 15.1455C11.1834 15.1455 12.0304 15.1455 12.8966 15.1455C12.753 14.5504 12.643 13.9644 12.4611 13.3963C12.1453 12.4 11.4036 11.8275 10.3221 11.6021ZM3.78048 11.6292C2.96219 11.6878 2.06254 12.3009 1.75627 13.1078C1.50744 13.7615 1.37345 14.4557 1.18203 15.1455C2.07689 15.1455 2.9239 15.1455 3.78048 15.1455C3.78048 13.9644 3.78048 12.7968 3.78048 11.6292Z" fill="#5B5B5B"/>
<path d="M6.54637 4.91693C5.56537 4.91693 4.58916 4.91693 3.60816 4.91693C3.18226 4.91693 2.96214 4.71407 2.96692 4.31735C2.97171 3.85752 2.93821 3.38868 3.01956 2.93787C3.23969 1.69363 4.34032 0.832581 5.68501 0.823565C7.2881 0.814549 8.89599 0.819057 10.4991 0.823565C10.9154 0.823565 11.126 1.02643 11.126 1.41864C11.126 2.04977 11.126 2.6764 11.126 3.30753C11.1212 4.25875 10.4225 4.91693 9.4128 4.91693C8.45573 4.92144 7.50345 4.91693 6.54637 4.91693ZM4.08191 3.88457C4.1202 3.88908 4.15848 3.89359 4.20155 3.89359C5.9482 3.89359 7.69965 3.89359 9.4463 3.89359C9.81956 3.89359 10.0349 3.69072 10.0397 3.33909C10.0445 2.88377 10.0397 2.42845 10.0397 1.97313C10.0397 1.93707 10.0301 1.901 10.0253 1.85592C9.97748 1.85141 9.94398 1.85141 9.91048 1.85141C8.50837 1.85141 7.10626 1.85141 5.70415 1.85592C5.54623 1.85592 5.37875 1.87395 5.2304 1.91904C4.30682 2.19854 3.95271 2.92435 4.08191 3.88457Z" fill="#5B5B5B"/>
<path d="M10.2646 5.88135C10.322 6.45388 10.3603 6.99936 10.2503 7.54034C10.0684 8.48253 9.47981 9.10014 8.50838 9.36161C7.47953 9.63661 6.4411 9.63661 5.4266 9.31202C4.48867 9.01449 3.97664 8.36532 3.82351 7.45468C3.73737 6.94076 3.77087 6.42232 3.82829 5.88135C4.18719 5.92192 4.53653 5.95799 4.90978 5.99856C4.90021 6.13831 4.87629 6.26454 4.88107 6.39076C4.89064 6.71535 4.88107 7.04444 4.92893 7.36452C5.01028 7.88295 5.35004 8.21655 5.87643 8.3563C6.65644 8.56368 7.44603 8.56368 8.22604 8.3518C8.87685 8.17598 9.20226 7.70713 9.22619 6.9678C9.23576 6.65224 9.22619 6.34118 9.22619 5.99856C9.5468 5.967 9.89614 5.92643 10.2646 5.88135Z" fill="#5B5B5B"/>
</svg>
