<svg width="14" height="16" viewBox="0 0 14 16" fill="none" xmlns="http://www.w3.org/2000/svg">
<path d="M2.60246 13.2453C2.05495 13.2453 1.50743 13.2478 0.959909 13.244C0.673917 13.2419 0.448245 13.1231 0.322965 12.857C0.201904 12.599 0.241555 12.3546 0.412812 12.1296C0.435169 12.1004 0.456681 12.0704 0.479038 12.0408C0.788651 11.6272 1.09658 11.2127 1.40788 10.8003C1.99336 10.0242 2.2764 9.14836 2.27767 8.17773C2.27851 7.34414 2.26712 6.51012 2.28315 5.67652C2.32575 3.45191 3.99151 1.52715 6.18074 1.16258C6.28324 1.14567 6.31909 1.11226 6.32837 1.00737C6.35832 0.666065 6.64938 0.4085 6.98936 0.407231C7.32935 0.405962 7.62462 0.662681 7.65415 1.00314C7.66427 1.1186 7.70814 1.14651 7.81401 1.16428C9.83536 1.50347 11.4513 3.21295 11.6673 5.24725C11.7027 5.58179 11.7002 5.92098 11.7044 6.25847C11.7137 7.01806 11.6968 7.77849 11.7268 8.53722C11.7597 9.36574 12.0617 10.1076 12.5548 10.7711C12.8851 11.2152 13.215 11.6593 13.5503 12.1C13.7321 12.3389 13.7895 12.5935 13.6549 12.868C13.5191 13.1455 13.2761 13.2461 12.9796 13.2457C11.9006 13.2444 10.8211 13.247 9.74214 13.2427C9.62867 13.2423 9.58143 13.2762 9.54684 13.3861C9.19209 14.5098 8.15948 15.269 6.99358 15.2707C5.83232 15.2724 4.78874 14.5086 4.43779 13.3895C4.39983 13.2677 4.34499 13.2415 4.22899 13.2427C3.68696 13.2487 3.1445 13.2453 2.60246 13.2453ZM11.7019 11.8851C11.6222 11.7777 11.5484 11.6957 11.4935 11.6022C11.2527 11.1894 10.9861 10.7876 10.7878 10.355C10.4744 9.6711 10.3609 8.93774 10.3618 8.1845C10.3631 7.29846 10.393 6.40946 10.3369 5.5268C10.2082 3.51366 8.25819 2.07738 6.29252 2.51004C4.71619 2.85684 3.63423 4.19838 3.62115 5.83089C3.61483 6.62219 3.61904 7.4135 3.61989 8.20522C3.62157 9.47824 3.23224 10.6185 2.46917 11.6331C2.41054 11.7109 2.35317 11.79 2.28273 11.8856C5.4299 11.8851 8.54882 11.8851 11.7019 11.8851ZM8.14177 13.2605C7.36394 13.2605 6.61268 13.2605 5.83949 13.2605C6.12801 13.6923 6.50723 13.9182 7.00075 13.9148C7.48668 13.9114 7.86168 13.6881 8.14177 13.2605Z" fill="#5B5B5B"/>
</svg>
