<svg width="44" height="44" viewBox="0 0 44 44" fill="none" xmlns="http://www.w3.org/2000/svg">
<rect width="44" height="44" rx="10" fill="#ECEAFB"/>
<path d="M21.9495 35.4574C21.6032 35.3627 21.251 35.2976 20.9164 35.1732C19.3785 34.5872 18.3865 33.4861 17.9521 31.8819C17.9345 31.8227 17.9169 31.7694 17.8875 31.6806C17.7877 31.6806 17.6879 31.6806 17.5823 31.6806C15.7743 31.6806 13.9723 31.6865 12.1643 31.6747C10.9023 31.6688 9.92788 30.6092 10.0042 29.3483C10.0394 28.7208 10.3094 28.1998 10.7849 27.7855C12.7455 26.0628 13.7257 23.8844 13.7492 21.2679C13.761 20.155 13.7492 19.0421 13.7492 17.9292C13.7492 13.3947 16.8838 9.72449 21.3214 9.07333C21.8321 8.99637 22.3545 8.99637 22.8711 9.00229C23.4229 9.00821 23.7986 9.32195 23.8807 9.77777C23.9923 10.4112 23.5168 10.9262 22.8535 10.8907C21.6149 10.8256 20.4351 11.0564 19.355 11.6602C16.9777 12.9744 15.7215 15.0108 15.6335 17.7516C15.5982 18.9119 15.6335 20.078 15.6276 21.2383C15.6041 24.3935 14.4301 27.0337 12.0998 29.1411C11.9648 29.2595 11.818 29.3719 11.9061 29.5851C11.9941 29.7863 12.1702 29.7863 12.3522 29.7863C19.1202 29.7863 25.8824 29.7863 32.6504 29.7745C32.7972 29.7745 32.9967 29.6916 33.0848 29.5732C33.2198 29.3897 33.0378 29.2536 32.9087 29.1352C30.8601 27.2941 29.6802 24.9914 29.4278 22.2328C29.3574 21.4514 29.3867 20.6582 29.3926 19.8708C29.3985 19.415 29.7624 19.0539 30.2085 19.0125C30.6899 18.9651 31.1125 19.2552 31.2123 19.7169C31.2534 19.9064 31.2534 20.1076 31.2534 20.303C31.2475 21.3389 31.2416 22.369 31.5058 23.3812C31.9578 25.1098 32.8324 26.5601 34.1707 27.7322C34.9162 28.3834 35.1862 29.3068 34.8693 30.2066C34.5523 31.0946 33.7422 31.6629 32.7678 31.6688C30.9716 31.6747 29.1754 31.6747 27.3792 31.6688C27.1738 31.6688 27.0916 31.7161 27.0211 31.9352C26.44 33.8768 25.1604 35.043 23.1705 35.4041C23.1118 35.416 23.0589 35.4396 23.0061 35.4574C22.648 35.4574 22.2958 35.4574 21.9495 35.4574ZM19.8833 31.6865C20.1474 32.7462 21.3508 33.5808 22.56 33.5631C23.7105 33.5394 24.9021 32.6692 25.1017 31.6865C23.3642 31.6865 21.6325 31.6865 19.8833 31.6865Z" fill="#651DBD"/>
<path d="M23.0505 35.4574C23.3968 35.3627 23.749 35.2976 24.0836 35.1732C25.6215 34.5872 26.6135 33.4861 27.0479 31.8819C27.0655 31.8227 27.0831 31.7694 27.1125 31.6806C27.2123 31.6806 27.3121 31.6806 27.4177 31.6806C29.2257 31.6806 31.0277 31.6865 32.8357 31.6747C34.0977 31.6688 35.0721 30.6092 34.9958 29.3483C34.9606 28.7208 34.6906 28.1998 34.2151 27.7855C32.2545 26.0628 31.2743 23.8844 31.2508 21.2679C31.239 20.155 31.2508 19.0421 31.2508 17.9292C31.2508 13.3947 28.1162 9.72449 23.6786 9.07333C23.1679 8.99637 22.6455 8.99637 22.1289 9.00229C21.5771 9.00821 21.2014 9.32195 21.1193 9.77777C21.0077 10.4112 21.4832 10.9262 22.1465 10.8907C23.3851 10.8256 24.5649 11.0564 25.645 11.6602C28.0223 12.9744 29.2785 15.0108 29.3665 17.7516C29.4018 18.9119 29.3665 20.078 29.3724 21.2383C29.3959 24.3935 30.5699 27.0337 32.9002 29.1411C33.0352 29.2595 33.182 29.3719 33.0939 29.5851C33.0059 29.7863 32.8298 29.7863 32.6478 29.7863C25.8798 29.7863 19.1176 29.7863 12.3496 29.7745C12.2028 29.7745 12.0033 29.6916 11.9152 29.5732C11.7802 29.3897 11.9622 29.2536 12.0913 29.1352C14.1399 27.2941 15.3198 24.9914 15.5722 22.2328C15.6426 21.4514 15.6133 20.6582 15.6074 19.8708C15.6015 19.415 15.2376 19.0539 14.7915 19.0125C14.3101 18.9651 13.8875 19.2552 13.7877 19.7169C13.7466 19.9064 13.7466 20.1076 13.7466 20.303C13.7525 21.3389 13.7584 22.369 13.4942 23.3812C13.0422 25.1098 12.1676 26.5601 10.8293 27.7322C10.0838 28.3834 9.81377 29.3068 10.1307 30.2066C10.4477 31.0946 11.2578 31.6629 12.2322 31.6688C14.0284 31.6747 15.8246 31.6747 17.6208 31.6688C17.8262 31.6688 17.9084 31.7161 17.9789 31.9352C18.56 33.8768 19.8396 35.043 21.8295 35.4041C21.8882 35.416 21.9411 35.4396 21.9939 35.4574C22.352 35.4574 22.7042 35.4574 23.0505 35.4574ZM25.1167 31.6865C24.8526 32.7462 23.6492 33.5808 22.44 33.5631C21.2895 33.5394 20.0979 32.6692 19.8983 31.6865C21.6358 31.6865 23.3675 31.6865 25.1167 31.6865Z" fill="#651DBD"/>
</svg>
