<svg width="14" height="16" viewBox="0 0 14 16" fill="none" xmlns="http://www.w3.org/2000/svg">
<path d="M2.6845 13.2453C2.13698 13.2453 1.58946 13.2478 1.04194 13.244C0.755948 13.2419 0.530276 13.1231 0.404996 12.857C0.283935 12.599 0.323586 12.3546 0.494843 12.1296C0.5172 12.1004 0.538712 12.0704 0.561069 12.0408C0.870682 11.6272 1.17861 11.2127 1.48991 10.8003C2.07539 10.0242 2.35843 9.14836 2.3597 8.17773C2.36054 7.34414 2.34915 6.51012 2.36518 5.67652C2.40778 3.45191 4.07354 1.52715 6.26277 1.16258C6.36527 1.14567 6.40113 1.11226 6.41041 1.00737C6.44035 0.666065 6.73141 0.4085 7.07139 0.407231C7.41138 0.405962 7.70665 0.662681 7.73618 1.00314C7.7463 1.1186 7.79017 1.14651 7.89605 1.16428C9.91739 1.50347 11.5334 3.21295 11.7493 5.24725C11.7848 5.58179 11.7822 5.92098 11.7865 6.25847C11.7957 7.01806 11.7789 7.77849 11.8088 8.53722C11.8417 9.36574 12.1437 10.1076 12.6368 10.7711C12.9671 11.2152 13.297 11.6593 13.6323 12.1C13.8141 12.3389 13.8715 12.5935 13.7369 12.868C13.6011 13.1455 13.3582 13.2461 13.0616 13.2457C11.9826 13.2444 10.9032 13.247 9.82417 13.2427C9.7107 13.2423 9.66346 13.2762 9.62887 13.3861C9.27412 14.5098 8.24151 15.269 7.07561 15.2707C5.91435 15.2724 4.87077 14.5086 4.51982 13.3895C4.48186 13.2677 4.42702 13.2415 4.31102 13.2427C3.76899 13.2487 3.22653 13.2453 2.6845 13.2453ZM11.7839 11.8851C11.7042 11.7777 11.6304 11.6957 11.5756 11.6022C11.3347 11.1894 11.0681 10.7876 10.8699 10.355C10.5564 9.6711 10.443 8.93774 10.4438 8.1845C10.4451 7.29846 10.475 6.40946 10.4189 5.5268C10.2903 3.51366 8.34022 2.07738 6.37455 2.51004C4.79822 2.85684 3.71626 4.19838 3.70318 5.83089C3.69686 6.62219 3.70107 7.4135 3.70192 8.20522C3.70361 9.47824 3.31427 10.6185 2.5512 11.6331C2.49257 11.7109 2.4352 11.79 2.36476 11.8856C5.51194 11.8851 8.63085 11.8851 11.7839 11.8851ZM8.2238 13.2605C7.44597 13.2605 6.69471 13.2605 5.92152 13.2605C6.21004 13.6923 6.58926 13.9182 7.08278 13.9148C7.56872 13.9114 7.94371 13.6881 8.2238 13.2605Z" fill="#651DBD"/>
</svg>
