<svg width="16" height="17" viewBox="0 0 16 17" fill="none" xmlns="http://www.w3.org/2000/svg">
<path d="M4.7286 4.70967C4.7286 4.35143 5.03386 4.06102 5.41042 4.06102H11.7741C12.1506 4.06102 12.4559 4.35143 12.4559 4.70967C12.4559 5.06791 12.1506 5.35832 11.7741 5.35832H5.41042C5.03386 5.35832 4.7286 5.06791 4.7286 4.70967Z" fill="#651DBD"/>
<path d="M5.41042 6.65562C5.03386 6.65562 4.7286 6.94603 4.7286 7.30427C4.7286 7.6625 5.03386 7.95291 5.41042 7.95291H9.95588C10.3324 7.95291 10.6377 7.6625 10.6377 7.30427C10.6377 6.94603 10.3324 6.65562 9.95588 6.65562H5.41042Z" fill="#651DBD"/>
<path fill-rule="evenodd" clip-rule="evenodd" d="M4.95588 0.601562C2.57101 0.601562 0.637695 2.44083 0.637695 4.70967V13.3583C0.637695 15.1495 2.164 16.6016 4.04679 16.6016H14.0468C14.9254 16.6016 15.6377 15.9239 15.6377 15.088V2.11508C15.6377 1.27919 14.9254 0.601562 14.0468 0.601562H4.95588ZM14.2741 10.1151V2.11508C14.2741 1.99566 14.1723 1.89886 14.0468 1.89886H4.95588C3.32413 1.89886 2.00133 3.1573 2.00133 4.70967V10.7635C2.5711 10.3563 3.27933 10.1151 4.04679 10.1151H14.2741ZM14.2741 11.4124H4.04679C2.91711 11.4124 2.00133 12.2836 2.00133 13.3583C2.00133 14.433 2.91711 15.3043 4.04679 15.3043H14.0468C14.1723 15.3043 14.2741 15.2075 14.2741 15.088V11.4124Z" fill="#651DBD"/>
</svg>
