<svg width="16" height="20" viewBox="0 0 16 20" fill="none" xmlns="http://www.w3.org/2000/svg">
<path d="M1.99631 8.09537C1.99631 7.29692 1.99631 6.50402 1.99631 5.70557C1.99631 5.02911 2.0849 4.36928 2.34478 3.73163C3.16574 1.71888 4.70727 0.454671 6.98117 0.0887155C10.1233 -0.421404 13.0114 1.34738 13.797 4.21403C13.9269 4.69642 13.9683 5.20654 13.9919 5.71112C14.0214 6.43194 13.9978 7.14721 13.9978 7.86803C13.9978 7.94566 13.9978 8.01774 13.9978 8.10646C14.1336 8.12309 14.2577 8.12864 14.3758 8.15082C15.3562 8.33934 15.9882 9.06016 15.9941 10.0083C16 11.6329 15.9941 13.2576 15.9941 14.8877C15.9941 15.9246 15.9941 16.9615 15.9941 17.9983C15.9941 19.2237 15.1731 20 13.8738 20C9.91657 20 5.95939 20 2.00221 20C1.05131 20 0.289406 19.4511 0.0649686 18.5972C0.0177187 18.4142 0 18.2146 0 18.0205C0 15.3867 0 12.753 0 10.1137C0 8.96035 0.696936 8.23953 1.92543 8.12309C1.93725 8.12309 1.94906 8.112 1.99631 8.09537ZM8.00295 18.7469C9.93429 18.7469 11.8656 18.7469 13.797 18.7469C13.8974 18.7469 14.0037 18.7413 14.1041 18.7302C14.4289 18.6859 14.612 18.4974 14.6357 18.1924C14.6416 18.1148 14.6416 18.0427 14.6416 17.9651C14.6416 15.3646 14.6416 12.7641 14.6416 10.1636C14.6416 10.0749 14.6416 9.98059 14.6298 9.89187C14.6002 9.6479 14.4585 9.48156 14.2045 9.42057C14.0923 9.39285 13.9742 9.38176 13.856 9.38176C9.95201 9.38176 6.04799 9.38176 2.13806 9.38176C2.079 9.38176 2.01993 9.38176 1.96087 9.38176C1.58287 9.40948 1.37025 9.61464 1.34662 9.96396C1.34072 10.0305 1.34072 10.1026 1.34072 10.1691C1.34072 12.7641 1.34072 15.359 1.34072 17.9484C1.34072 18.0316 1.34072 18.1148 1.34662 18.1979C1.37025 18.4807 1.55334 18.6748 1.84865 18.7192C1.95496 18.7358 2.06718 18.7413 2.1794 18.7413C4.12846 18.7469 6.06571 18.7469 8.00295 18.7469ZM12.6334 8.112C12.6393 8.03992 12.6453 7.99002 12.6453 7.93457C12.6453 7.11394 12.6512 6.28777 12.6393 5.46715C12.6334 5.18436 12.598 4.90158 12.5271 4.62989C11.9483 2.34544 9.71576 0.96479 7.21152 1.3252C5.04983 1.63571 3.37837 3.43221 3.34884 5.48378C3.33702 6.30441 3.34293 7.13058 3.34293 7.9512C3.34293 8.00665 3.35474 8.05655 3.36065 8.11755C6.45552 8.112 9.53267 8.112 12.6334 8.112Z" fill="white"/>
<path d="M7.33559 15.6639C7.33559 15.6307 7.32968 15.5918 7.33559 15.5586C7.38284 15.1427 7.30606 14.8599 6.83946 14.616C6.03622 14.1946 5.78815 13.191 6.15434 12.3648C6.50281 11.5774 7.43009 11.1117 8.33374 11.2725C9.23149 11.4277 9.86936 12.0376 9.98158 12.8416C10.0997 13.7233 9.66264 14.4663 8.80624 14.8211C8.69402 14.871 8.65858 14.9265 8.65858 15.0374C8.66449 15.4366 8.66449 15.8414 8.65858 16.2406C8.65268 16.6343 8.38689 16.8838 7.98527 16.8782C7.59546 16.8727 7.33559 16.6232 7.32968 16.2406C7.32968 16.0521 7.33559 15.858 7.33559 15.6639ZM7.97346 13.7399C8.38099 13.7454 8.65268 13.5126 8.66449 13.1411C8.6763 12.7751 8.39871 12.509 8.0089 12.509C7.61909 12.5034 7.35331 12.7474 7.34149 13.1133C7.32377 13.4682 7.58955 13.7288 7.97346 13.7399Z" fill="white"/>
</svg>
