<svg width="20" height="19" viewBox="0 0 20 19" fill="none" xmlns="http://www.w3.org/2000/svg">
<path d="M16.2132 8.37489C16.1949 8.3076 16.1765 8.24031 16.1582 8.1669C15.993 7.65305 15.6076 7.26767 15.0999 7.1025C14.5799 6.93734 14.0294 7.03521 13.5767 7.37166C12.8732 7.89163 12.1758 8.41771 11.4785 8.94379C10.9952 9.30471 10.5119 9.66563 10.0287 10.0265C9.00097 10.7912 7.82646 10.7912 6.80488 10.0204C5.6426 9.14566 4.44362 8.24643 3.25687 7.36554C2.93878 7.12697 2.61456 7.01074 2.27811 7.01074C2.03342 7.01074 1.7765 7.07803 1.51957 7.20038C0.920083 7.50624 0.614221 8.00174 0.608104 8.68687C0.601986 10.0694 0.601986 11.2928 0.608104 12.4123C0.626455 14.3759 2.22918 15.9786 4.18058 15.9848C6.18704 15.997 8.27914 15.997 10.5303 15.9909C10.4691 15.6728 10.4385 15.3486 10.4385 15.0182V14.9142H5.924C5.36733 14.9142 4.81677 14.9142 4.2601 14.9081C2.99995 14.9081 1.98449 14.0823 1.73368 12.8466C1.70309 12.6998 1.69086 12.5346 1.69086 12.345V10.5404C1.69086 9.94091 1.69086 9.34141 1.68474 8.74192C1.68474 8.46053 1.78873 8.2709 2.00895 8.1669C2.21694 8.05679 2.43104 8.08738 2.64515 8.25254C3.31193 8.74804 3.97871 9.24966 4.63937 9.74515C5.15322 10.1305 5.66095 10.5098 6.16869 10.8952C7.55118 11.929 9.27013 11.9351 10.6526 10.9074C11.7843 10.0694 12.8732 9.24966 14.1762 8.2709C14.323 8.15467 14.5554 8.02009 14.8368 8.1669C15.1243 8.3076 15.1549 8.57064 15.1549 8.76028V9.76351C15.3384 9.74515 15.5281 9.73292 15.7238 9.73292C15.8951 9.73292 16.0664 9.73904 16.2377 9.75739V8.46665L16.2132 8.37489Z" fill="#651DBD" stroke="#5B5B5B" stroke-width="0.2"/>
<path d="M14.758 3.9448V5.10096C14.7519 5.26613 14.6969 5.41294 14.5868 5.51694C14.4889 5.61481 14.3604 5.66375 14.2136 5.66375C14.2136 5.66375 14.2136 5.66375 14.2075 5.66375C13.9077 5.66375 13.6814 5.42518 13.6753 5.10096V4.66052C13.6753 4.32407 13.6814 3.97539 13.6386 3.63282C13.5101 2.43996 12.4274 1.45508 11.2284 1.44896C9.30758 1.43673 7.44181 1.43673 5.68005 1.44896C4.38319 1.4612 3.25761 2.58066 3.23314 3.89587C3.22703 4.14667 3.22703 4.39748 3.22703 4.64217C3.23314 4.78898 3.23314 4.9358 3.23314 5.08261C3.22703 5.26001 3.16585 5.41294 3.06186 5.51694C2.96399 5.61481 2.83552 5.66375 2.68871 5.66375C2.68871 5.66375 2.68871 5.66375 2.68259 5.66375C2.37061 5.66375 2.15039 5.41906 2.15039 5.08261V4.69723C2.15039 4.31796 2.15039 3.93257 2.18709 3.5533C2.32167 2.02399 3.58183 0.678191 5.11726 0.421266C5.19066 0.409032 5.26407 0.396797 5.33748 0.384563L5.43535 0.366211H11.467C11.5465 0.384563 11.626 0.396797 11.7055 0.415149C11.8829 0.451852 12.0665 0.488556 12.2377 0.543611C13.7303 1.01464 14.7397 2.3849 14.758 3.9448Z" fill="#651DBD" stroke="#5B5B5B" stroke-width="0.2"/>
<path d="M9.93553 6.79686C9.90495 7.42082 9.65414 7.83679 9.15864 8.09372C9.04241 8.15489 8.9323 8.23441 8.92007 8.43017C8.90783 8.67486 8.7182 8.85226 8.47351 8.85837H8.46739C8.2227 8.85837 8.03307 8.68097 8.0086 8.43628C7.99636 8.22218 7.86178 8.16101 7.75167 8.13042C7.50087 8.06925 7.30511 8.00808 7.11548 7.93467C6.86467 7.84903 6.74233 7.5921 6.82797 7.34741C6.89526 7.15166 7.06654 7.04155 7.26841 7.04155C7.32346 7.04155 7.38464 7.05378 7.43969 7.06602C7.77614 7.17001 8.06977 7.24342 8.35116 7.29847C8.5408 7.33518 8.70596 7.30459 8.82831 7.21895C8.92618 7.14554 8.98736 7.02932 8.99959 6.90085C9.01183 6.78463 8.97512 6.6684 8.90172 6.58276C8.79772 6.46653 8.62644 6.39924 8.42457 6.39312C7.81896 6.37477 7.37852 6.16678 7.08489 5.76304C6.83409 5.43271 6.7668 5.01062 6.88914 4.60688C7.0176 4.18479 7.3357 3.85446 7.75167 3.70153C7.91684 3.64036 7.99636 3.5486 8.01471 3.37732C8.0453 3.16321 8.24105 2.99805 8.46739 2.99805C8.47351 2.99805 8.47351 2.99805 8.47963 2.99805C8.71208 3.00416 8.90172 3.17545 8.91395 3.38343C8.92619 3.61589 9.04241 3.75047 9.26875 3.79329C9.36051 3.81164 9.45839 3.85446 9.56238 3.89728C9.79483 3.99516 9.91106 4.24597 9.82542 4.47842C9.73978 4.71699 9.50121 4.83322 9.23816 4.76593C8.95065 4.68641 8.63867 4.61912 8.28999 4.55183C8.14318 4.52736 8.00248 4.60688 7.95966 4.63135C7.82508 4.71699 7.75167 4.86381 7.75779 5.01674C7.77002 5.16355 7.85567 5.2859 7.99025 5.34707C8.16153 5.4266 8.35116 5.45106 8.50409 5.4633C9.17088 5.51835 9.6052 5.8181 9.83766 6.37477C9.88048 6.47876 9.90494 6.60111 9.91718 6.69898C9.92941 6.73569 9.92941 6.76627 9.93553 6.79686Z" fill="#651DBD" stroke="#5B5B5B" stroke-width="0.2"/>
<path d="M17.9249 15.4328C17.9494 15.2004 17.9494 14.9618 17.9249 14.7355C17.8943 14.5275 17.9494 14.3868 18.1206 14.2706C18.3837 14.0932 18.6345 13.9035 18.9037 13.7078C18.7201 13.3958 18.5488 13.096 18.3714 12.7902C18.0595 12.9309 17.7597 13.0593 17.4661 13.2C17.3009 13.2735 17.1664 13.249 17.0134 13.1511C16.7993 13.0043 16.5607 12.8758 16.3283 12.7535C16.2304 12.6984 16.157 12.6373 16.1203 12.5394C16.1019 12.5027 16.0958 12.466 16.0897 12.417C16.0775 12.2702 16.0591 12.1295 16.0469 11.9827C16.0285 11.7992 16.0102 11.6096 15.9918 11.4199H14.9274C14.9213 11.4872 14.8969 11.7197 14.8907 11.7747C14.8663 11.9766 14.8418 12.1846 14.8296 12.3864C14.8234 12.4354 14.8173 12.4782 14.8051 12.521C14.7867 12.57 14.7623 12.6128 14.7256 12.6434V12.6495C14.6827 12.6984 14.6216 12.7351 14.542 12.7718C14.3279 12.8636 14.1261 12.9859 13.9364 13.1205C13.759 13.2551 13.6 13.2734 13.4042 13.1756C13.129 13.0349 12.8415 12.9186 12.5478 12.7841C12.3704 13.096 12.193 13.3958 12.0156 13.7078C12.2787 13.8974 12.5356 14.087 12.7986 14.2644C12.9699 14.3807 13.0127 14.5275 12.9944 14.7294V14.7355C12.9944 14.7599 12.9883 14.7844 12.9883 14.8089C12.9883 14.8333 12.9822 14.8578 12.9883 14.8823C12.976 15.0597 12.976 15.2432 12.9944 15.4145C13.0189 15.6347 12.9699 15.7876 12.7803 15.91C12.7191 15.9528 12.6518 15.9956 12.5906 16.0446C12.5478 16.069 12.5111 16.0996 12.4744 16.1241C12.4377 16.1486 12.401 16.1791 12.3643 16.2036C12.2481 16.2893 12.1319 16.3688 12.0156 16.4544C12.193 16.7664 12.3643 17.06 12.5478 17.3781C12.8598 17.2313 13.1596 17.1028 13.4593 16.9622C13.6183 16.8887 13.7468 16.9193 13.8936 17.0111C14.1138 17.1579 14.3463 17.2925 14.5788 17.4087C14.7195 17.4821 14.8051 17.5678 14.8234 17.7268C14.8479 18.0143 14.8846 18.2957 14.903 18.5832C14.9091 18.6505 14.9213 18.6995 14.958 18.73C14.9825 18.7545 15.0253 18.7667 15.0865 18.7606C15.2149 18.7423 15.3495 18.7545 15.478 18.7545H15.9857C16.0224 18.4058 16.0652 18.0877 16.0897 17.7635C16.1019 17.5922 16.1876 17.4882 16.3405 17.4087C16.573 17.2925 16.7993 17.164 17.0134 17.0172C17.1664 16.9193 17.3009 16.8887 17.4661 16.9683C17.7597 17.109 18.0595 17.2374 18.3714 17.3781C18.5488 17.0661 18.7201 16.7664 18.9037 16.4605C18.6345 16.2648 18.3837 16.0752 18.1206 15.8978C17.9494 15.7815 17.8943 15.6408 17.9249 15.4328ZM15.4535 16.7542C14.8173 16.748 14.2545 16.3749 13.9793 15.8427C13.9609 15.8182 13.9548 15.7938 13.9426 15.7693C13.9303 15.7448 13.9181 15.7204 13.912 15.6959C13.8324 15.5001 13.7896 15.2921 13.7896 15.0719C13.7896 14.8456 13.8386 14.6254 13.9242 14.4296C13.9487 14.3623 13.9793 14.3073 14.016 14.2461C14.12 14.0748 14.2484 13.9219 14.4014 13.7934C14.4014 13.7934 14.4075 13.7934 14.4075 13.7873C14.4625 13.7445 14.5176 13.7078 14.5726 13.6711C14.8357 13.5059 15.1415 13.4141 15.4719 13.4141C15.5942 13.4141 15.7104 13.4264 15.8206 13.457C15.845 13.457 15.8695 13.4631 15.894 13.4753C15.9184 13.4753 15.9429 13.4876 15.9613 13.4937C16.6403 13.7078 17.1358 14.3501 17.1235 15.0964C17.1174 16.0079 16.3589 16.7542 15.4535 16.7542Z" fill="#651DBD" stroke="#5B5B5B" stroke-width="0.2"/>
</svg>
