<svg width="20" height="19" viewBox="0 0 20 19" fill="none" xmlns="http://www.w3.org/2000/svg">
<path d="M16.6536 8.37489C16.6353 8.3076 16.6169 8.24031 16.5986 8.1669C16.4334 7.65305 16.048 7.26767 15.5403 7.1025C15.0203 6.93734 14.4698 7.03521 14.0171 7.37166C13.3136 7.89163 12.6163 8.41771 11.9189 8.94379C11.4356 9.30471 10.9524 9.66563 10.4691 10.0265C9.4414 10.7912 8.26689 10.7912 7.24531 10.0204C6.08303 9.14566 4.88405 8.24643 3.6973 7.36554C3.37921 7.12697 3.05499 7.01074 2.71854 7.01074C2.47385 7.01074 2.21693 7.07803 1.96 7.20038C1.36051 7.50624 1.05465 8.00174 1.04853 8.68687C1.04242 10.0694 1.04242 11.2928 1.04853 12.4123C1.06689 14.3759 2.6696 15.9786 4.62101 15.9848C6.62747 15.997 8.71957 15.997 10.9707 15.9909C10.9095 15.6728 10.879 15.3486 10.879 15.0182V14.9142H6.36442C5.80776 14.9142 5.2572 14.9142 4.70053 14.9081C3.44038 14.9081 2.42491 14.0823 2.17411 12.8466C2.14352 12.6998 2.13129 12.5346 2.13129 12.345V10.5404C2.13129 9.94091 2.13129 9.34141 2.12517 8.74192C2.12517 8.46053 2.22916 8.2709 2.44938 8.1669C2.65737 8.05679 2.87147 8.08738 3.08558 8.25254C3.75236 8.74804 4.41914 9.24966 5.0798 9.74515C5.59365 10.1305 6.10138 10.5098 6.60912 10.8952C7.99161 11.929 9.71056 11.9351 11.0931 10.9074C12.2248 10.0694 13.3136 9.24966 14.6166 8.2709C14.7634 8.15467 14.9959 8.02009 15.2773 8.1669C15.5648 8.3076 15.5954 8.57064 15.5954 8.76028V9.76351C15.7789 9.74515 15.9685 9.73292 16.1643 9.73292C16.3355 9.73292 16.5068 9.73904 16.6781 9.75739V8.46665L16.6536 8.37489Z" fill="#5B5B5B" stroke="#5B5B5B" stroke-width="0.2"/>
<path d="M15.1985 3.9448V5.10096C15.1924 5.26613 15.1373 5.41294 15.0272 5.51694C14.9293 5.61481 14.8009 5.66375 14.654 5.66375C14.654 5.66375 14.654 5.66375 14.6479 5.66375C14.3482 5.66375 14.1218 5.42518 14.1157 5.10096V4.66052C14.1157 4.32407 14.1218 3.97539 14.079 3.63282C13.9506 2.43996 12.8678 1.45508 11.6688 1.44896C9.74801 1.43673 7.88224 1.43673 6.12047 1.44896C4.82362 1.4612 3.69804 2.58066 3.67357 3.89587C3.66746 4.14667 3.66746 4.39748 3.66746 4.64217C3.67357 4.78898 3.67357 4.9358 3.67357 5.08261C3.66746 5.26001 3.60628 5.41294 3.50229 5.51694C3.40441 5.61481 3.27595 5.66375 3.12914 5.66375C3.12914 5.66375 3.12914 5.66375 3.12302 5.66375C2.81104 5.66375 2.59082 5.41906 2.59082 5.08261V4.69723C2.59082 4.31796 2.59082 3.93257 2.62752 3.5533C2.7621 2.02399 4.02226 0.678191 5.55769 0.421266C5.63109 0.409032 5.7045 0.396797 5.77791 0.384563L5.87578 0.366211H11.9074C11.9869 0.384563 12.0664 0.396797 12.146 0.415149C12.3234 0.451852 12.5069 0.488556 12.6782 0.543611C14.1708 1.01464 15.1801 2.3849 15.1985 3.9448Z" fill="#5B5B5B" stroke="#5B5B5B" stroke-width="0.2"/>
<path d="M10.376 6.79686C10.3454 7.42082 10.0946 7.83679 9.59907 8.09372C9.48284 8.15489 9.37273 8.23441 9.3605 8.43017C9.34826 8.67486 9.15863 8.85226 8.91394 8.85837H8.90782C8.66313 8.85837 8.4735 8.68097 8.44903 8.43628C8.43679 8.22218 8.30221 8.16101 8.1921 8.13042C7.94129 8.06925 7.74554 8.00808 7.55591 7.93467C7.3051 7.84903 7.18276 7.5921 7.2684 7.34741C7.33569 7.15166 7.50697 7.04155 7.70884 7.04155C7.76389 7.04155 7.82507 7.05378 7.88012 7.06602C8.21657 7.17001 8.5102 7.24342 8.79159 7.29847C8.98123 7.33518 9.14639 7.30459 9.26874 7.21895C9.36661 7.14554 9.42779 7.02932 9.44002 6.90085C9.45226 6.78463 9.41555 6.6684 9.34215 6.58276C9.23815 6.46653 9.06687 6.39924 8.865 6.39312C8.25939 6.37477 7.81895 6.16678 7.52532 5.76304C7.27451 5.43271 7.20722 5.01062 7.32957 4.60688C7.45803 4.18479 7.77613 3.85446 8.1921 3.70153C8.35727 3.64036 8.43679 3.5486 8.45514 3.37732C8.48573 3.16321 8.68148 2.99805 8.90782 2.99805C8.91394 2.99805 8.91394 2.99805 8.92006 2.99805C9.15251 3.00416 9.34215 3.17545 9.35438 3.38343C9.36661 3.61589 9.48284 3.75047 9.70918 3.79329C9.80094 3.81164 9.89882 3.85446 10.0028 3.89728C10.2353 3.99516 10.3515 4.24597 10.2659 4.47842C10.1802 4.71699 9.94164 4.83322 9.67859 4.76593C9.39108 4.68641 9.0791 4.61912 8.73042 4.55183C8.58361 4.52736 8.44291 4.60688 8.40009 4.63135C8.26551 4.71699 8.1921 4.86381 8.19822 5.01674C8.21045 5.16355 8.2961 5.2859 8.43068 5.34707C8.60196 5.4266 8.79159 5.45106 8.94452 5.4633C9.6113 5.51835 10.0456 5.8181 10.2781 6.37477C10.3209 6.47876 10.3454 6.60111 10.3576 6.69898C10.3698 6.73569 10.3698 6.76627 10.376 6.79686Z" fill="#5B5B5B" stroke="#5B5B5B" stroke-width="0.2"/>
<path d="M18.3653 15.4328C18.3898 15.2004 18.3898 14.9618 18.3653 14.7355C18.3347 14.5275 18.3898 14.3868 18.5611 14.2706C18.8241 14.0932 19.0749 13.9035 19.3441 13.7078C19.1606 13.3958 18.9893 13.096 18.8119 12.7902C18.4999 12.9309 18.2002 13.0593 17.9065 13.2C17.7414 13.2735 17.6068 13.249 17.4538 13.1511C17.2397 13.0043 17.0012 12.8758 16.7687 12.7535C16.6708 12.6984 16.5974 12.6373 16.5607 12.5394C16.5424 12.5027 16.5363 12.466 16.5301 12.417C16.5179 12.2702 16.4996 12.1295 16.4873 11.9827C16.469 11.7992 16.4506 11.6096 16.4323 11.4199H15.3679C15.3617 11.4872 15.3373 11.7197 15.3312 11.7747C15.3067 11.9766 15.2822 12.1846 15.27 12.3864C15.2639 12.4354 15.2578 12.4782 15.2455 12.521C15.2272 12.57 15.2027 12.6128 15.166 12.6434V12.6495C15.1232 12.6984 15.062 12.7351 14.9825 12.7718C14.7684 12.8636 14.5665 12.9859 14.3769 13.1205C14.1995 13.2551 14.0404 13.2734 13.8447 13.1756C13.5694 13.0349 13.2819 12.9186 12.9883 12.7841C12.8109 13.096 12.6335 13.3958 12.4561 13.7078C12.7191 13.8974 12.976 14.087 13.2391 14.2644C13.4103 14.3807 13.4532 14.5275 13.4348 14.7294V14.7355C13.4348 14.7599 13.4287 14.7844 13.4287 14.8089C13.4287 14.8333 13.4226 14.8578 13.4287 14.8823C13.4165 15.0597 13.4165 15.2432 13.4348 15.4145C13.4593 15.6347 13.4103 15.7876 13.2207 15.91C13.1595 15.9528 13.0922 15.9956 13.0311 16.0446C12.9883 16.069 12.9516 16.0996 12.9148 16.1241C12.8781 16.1486 12.8414 16.1791 12.8047 16.2036C12.6885 16.2893 12.5723 16.3688 12.4561 16.4544C12.6335 16.7664 12.8047 17.06 12.9883 17.3781C13.3002 17.2313 13.6 17.1028 13.8997 16.9622C14.0588 16.8887 14.1872 16.9193 14.3341 17.0111C14.5543 17.1579 14.7867 17.2925 15.0192 17.4087C15.1599 17.4821 15.2455 17.5678 15.2639 17.7268C15.2883 18.0143 15.325 18.2957 15.3434 18.5832C15.3495 18.6505 15.3617 18.6995 15.3985 18.73C15.4229 18.7545 15.4657 18.7667 15.5269 18.7606C15.6554 18.7423 15.79 18.7545 15.9184 18.7545H16.4262C16.4629 18.4058 16.5057 18.0877 16.5301 17.7635C16.5424 17.5922 16.628 17.4882 16.781 17.4087C17.0134 17.2925 17.2397 17.164 17.4538 17.0172C17.6068 16.9193 17.7414 16.8887 17.9065 16.9683C18.2002 17.109 18.4999 17.2374 18.8119 17.3781C18.9893 17.0661 19.1606 16.7664 19.3441 16.4605C19.0749 16.2648 18.8241 16.0752 18.5611 15.8978C18.3898 15.7815 18.3347 15.6408 18.3653 15.4328ZM15.8939 16.7542C15.2578 16.748 14.695 16.3749 14.4197 15.8427C14.4013 15.8182 14.3952 15.7938 14.383 15.7693C14.3708 15.7448 14.3585 15.7204 14.3524 15.6959C14.2729 15.5001 14.2301 15.2921 14.2301 15.0719C14.2301 14.8456 14.279 14.6254 14.3646 14.4296C14.3891 14.3623 14.4197 14.3073 14.4564 14.2461C14.5604 14.0748 14.6889 13.9219 14.8418 13.7934C14.8418 13.7934 14.8479 13.7934 14.8479 13.7873C14.903 13.7445 14.958 13.7078 15.0131 13.6711C15.2761 13.5059 15.582 13.4141 15.9123 13.4141C16.0346 13.4141 16.1509 13.4264 16.261 13.457C16.2855 13.457 16.3099 13.4631 16.3344 13.4753C16.3589 13.4753 16.3833 13.4876 16.4017 13.4937C17.0807 13.7078 17.5762 14.3501 17.564 15.0964C17.5578 16.0079 16.7993 16.7542 15.8939 16.7542Z" fill="#5B5B5B" stroke="#5B5B5B" stroke-width="0.2"/>
</svg>
