<svg width="28" height="28" viewBox="0 0 28 28" fill="none" xmlns="http://www.w3.org/2000/svg">
<path fill-rule="evenodd" clip-rule="evenodd" d="M3.60648 10.8793C6.46371 17.1045 11.5481 22.0538 17.8686 24.7356L17.8886 24.7441L19.1097 25.2886C20.6645 25.9818 22.4921 25.4895 23.489 24.1089L25.5262 21.2878C25.6507 21.1154 25.6186 20.8758 25.4532 20.7423L21.8967 17.8715C21.7199 17.7287 21.4599 17.762 21.3247 17.9446L19.9405 19.8135C19.6043 20.2674 18.9973 20.4251 18.4829 20.1922C13.7567 18.0521 9.95888 14.252 7.82004 9.52311C7.58726 9.00844 7.74488 8.40101 8.19849 8.06466L10.0663 6.67967C10.2488 6.54434 10.282 6.28421 10.1394 6.10731L7.26979 2.54825C7.13642 2.38283 6.89703 2.3507 6.72481 2.4751L3.88999 4.52278C2.50113 5.52599 2.01202 7.37002 2.72095 8.9303L3.60553 10.8772C3.60585 10.8779 3.60616 10.8786 3.60648 10.8793ZM16.9224 26.9402C10.0547 24.0233 4.53091 18.644 1.42632 11.8783L1.42445 11.8743L0.538017 9.92328C-0.643521 7.32282 0.171659 4.24944 2.48643 2.57741L5.32124 0.529737C6.5268 -0.341066 8.20251 -0.116162 9.1361 1.04174L12.0057 4.6008C13.0041 5.83912 12.7716 7.66004 11.494 8.60735L10.4237 9.40097C12.2316 12.911 15.097 15.778 18.605 17.587L19.3981 16.516C20.3449 15.2377 22.1648 15.0051 23.4024 16.0041L26.9589 18.8749C28.1164 19.8093 28.341 21.4867 27.4699 22.6929L25.4327 25.5141C23.7712 27.815 20.7252 28.6355 18.1338 27.4803L16.9224 26.9402Z" fill="#7F57C2"/>
</svg>
