<svg width="11" height="12" viewBox="0 0 11 12" fill="none" xmlns="http://www.w3.org/2000/svg">
<path d="M10.9822 10.5064C10.9647 10.6326 10.91 10.7507 10.8252 10.8457C10.7404 10.9408 10.6292 11.0084 10.5058 11.0401C10.2142 11.1316 9.99262 11.0752 9.77024 10.852C8.92289 10.007 8.0764 9.16314 7.23076 8.32043L5.50555 6.59112L4.77167 7.32492L3.74527 8.35122C2.94382 9.15515 2.11501 9.9856 1.29474 10.7964C1.20325 10.8967 1.08895 10.9734 0.961507 11.0202C0.834061 11.0669 0.697212 11.0823 0.562573 11.0649C0.454004 11.0442 0.352194 10.9971 0.26613 10.9277C0.180066 10.8584 0.112387 10.7689 0.0690439 10.6672C-0.108866 10.2926 0.0904339 9.97534 0.289727 9.77521C1.10458 8.95588 1.92168 8.13798 2.74109 7.3215L4.49369 5.57508L3.77008 4.85154L2.76932 3.8509C1.93366 3.01703 1.07063 2.15408 0.2247 1.30225C0.134103 1.21277 0.0692484 1.10057 0.0369271 0.977405C0.00460566 0.854243 0.00603578 0.724656 0.04102 0.602223C0.0760041 0.479791 0.143251 0.369021 0.235767 0.281523C0.328283 0.194025 0.442633 0.133021 0.566833 0.104903C0.767837 0.0587199 1.00305 0.0647062 1.35117 0.414503C2.15404 1.22072 2.95895 2.02579 3.76582 2.82973L5.50384 4.56759L6.76203 3.30952L7.63787 2.43204C8.32984 1.73843 9.0449 1.02088 9.75483 0.323847C10.0474 0.0373384 10.387 0.00398484 10.712 0.231481C10.8387 0.319594 10.9311 0.448655 10.9738 0.596946C11.0165 0.745237 11.0068 0.903704 10.9463 1.04568C10.8738 1.19163 10.7769 1.3241 10.6598 1.43738C9.80872 2.29862 8.93628 3.17012 8.09377 4.01254L6.52084 5.58363L8.23151 7.29841C9.04009 8.10747 9.84865 8.91511 10.6572 9.72133C11.0148 10.0737 11.025 10.3072 10.9822 10.5064Z" fill="#B7B7B7"/>
</svg>
