<svg width="54" height="54" viewBox="0 0 54 54" fill="none" xmlns="http://www.w3.org/2000/svg">
<path d="M21.3158 53.1783C16.3876 53.1783 11.4594 53.1908 6.53116 53.1736C3.27224 53.1612 0.642622 50.4691 0.920575 47.3101C1.01739 46.2139 1.40777 45.099 1.86843 44.0855C5.78007 35.4721 12.4509 30.5049 21.8389 29.3946C27.3027 28.7481 32.4417 29.9818 37.1669 32.8362C38.2381 33.4827 38.5629 34.5695 37.9867 35.5111C37.423 36.4309 36.3158 36.6542 35.2743 36.0296C31.1784 33.5702 26.7327 32.4818 22.0106 33.1111C13.5081 34.2447 7.73823 38.934 4.73228 46.9806C4.28256 48.1861 5.13671 49.376 6.4281 49.4478C6.64203 49.4603 6.85596 49.4525 7.07145 49.4525C16.6749 49.4525 26.2783 49.4525 35.8817 49.4525C36.0769 49.4525 36.2721 49.4447 36.4657 49.4556C37.4854 49.5119 38.2709 50.327 38.2662 51.3201C38.2631 52.3117 37.4761 53.1377 36.4517 53.1674C35.4789 53.1955 34.5045 53.1752 33.5301 53.1752C29.4576 53.1799 25.3867 53.1783 21.3158 53.1783Z" fill="#AFAFAF"/>
<path d="M37.449 13.9746C37.4615 21.0843 31.5496 26.99 24.4181 26.9885C17.1663 26.9869 11.2981 21.1311 11.2871 13.8856C11.2762 6.72444 17.1601 0.828089 24.329 0.817159C31.6089 0.804666 37.435 6.64792 37.449 13.9746ZM33.7264 13.9325C33.7357 8.72788 29.5602 4.5461 24.3447 4.54142C19.2525 4.53517 15.0254 8.73413 15.0083 13.8138C14.9911 19.009 19.1526 23.2486 24.2822 23.2626C29.5133 23.2783 33.7154 19.1261 33.7264 13.9325Z" fill="#AFAFAF"/>
<path d="M42.0598 42.0089C42.0598 40.6285 42.0598 39.3277 42.0598 38.027C42.0598 37.5398 42.0551 37.0526 42.0614 36.5654C42.077 35.3942 42.8421 34.5401 43.8759 34.5291C44.8956 34.5198 45.6997 35.3911 45.7091 36.5482C45.7216 38.1253 45.7122 39.7041 45.7122 41.2828C45.7122 41.4936 45.7122 41.7059 45.7122 41.9776C45.9636 41.9901 46.1698 42.0073 46.3759 42.0073C47.9733 42.0104 49.5708 42.0026 51.1682 42.0104C52.1098 42.0151 52.8235 42.4976 53.0764 43.269C53.4731 44.4855 52.5908 45.6379 51.2151 45.6551C49.6176 45.6754 48.0202 45.6597 46.4243 45.6597C46.2151 45.6597 46.0058 45.6597 45.745 45.6597C45.7325 45.9236 45.7169 46.1313 45.7154 46.339C45.7122 47.9552 45.7263 49.5729 45.7076 51.1891C45.6982 51.9886 45.3593 52.6226 44.5989 52.9615C43.8806 53.2816 43.2263 53.1239 42.6579 52.6148C42.2066 52.2119 42.0629 51.6716 42.0629 51.0861C42.0614 49.5074 42.0629 47.9302 42.0614 46.3515C42.0614 46.1423 42.0442 45.9346 42.0317 45.6582C41.1213 45.6582 40.25 45.6582 39.3802 45.6582C38.4261 45.6582 37.4705 45.6738 36.5164 45.6535C35.5201 45.6316 34.8549 45.0757 34.6394 44.1372C34.4739 43.4174 34.8627 42.5726 35.5826 42.2509C35.9261 42.0979 36.3305 42.0229 36.7084 42.0167C38.4574 41.9948 40.2078 42.0089 42.0598 42.0089Z" fill="#747474"/>
</svg>
