<svg width="15" height="14" viewBox="0 0 15 14" fill="none" xmlns="http://www.w3.org/2000/svg">
<g clip-path="url(#clip0_2339_2)">
<path d="M0.887695 12.9863C0.887695 10.7805 0.887695 8.57469 0.887695 6.36891C1.03714 5.88471 1.37787 5.72929 1.86207 5.73527C3.58963 5.74722 5.32317 5.74125 7.05073 5.74125C7.10453 5.74125 7.15236 5.74125 7.21811 5.74125C7.21811 5.68147 7.21811 5.63365 7.21811 5.58583C7.21811 5.14347 7.21811 4.7071 7.21811 4.26475C7.22409 3.69686 7.33767 3.15289 7.58873 2.6388C8.28215 1.21611 9.932 0.415089 11.4743 0.75582C13.0882 1.10851 14.224 2.49534 14.2659 4.14519C14.2778 4.7071 13.8833 5.1375 13.3274 5.16141C12.8252 5.17934 12.3888 4.76688 12.359 4.22888C12.353 4.12726 12.347 4.03162 12.3291 3.92999C12.2155 3.14093 11.4324 2.52523 10.6374 2.59696C9.74669 2.67467 9.13098 3.34418 9.11903 4.24084C9.11305 4.70112 9.11903 5.16141 9.11903 5.62767C9.11903 5.66354 9.12501 5.6994 9.13098 5.74722C9.25652 5.74722 9.37009 5.74722 9.48367 5.74722C9.99178 5.7532 10.3086 6.05807 10.3146 6.57215C10.3206 8.6524 10.3206 10.7386 10.3146 12.8189C10.3146 13.327 9.99178 13.6438 9.48367 13.6438C6.89531 13.6438 4.30696 13.6438 1.72458 13.6438C1.43765 13.6438 1.19256 13.5482 1.03116 13.3031C0.965406 13.1955 0.935517 13.0879 0.887695 12.9863ZM4.85691 10.4637C4.86289 10.6669 4.85691 10.8701 4.86289 11.0794C4.87484 11.3782 5.08406 11.6413 5.36502 11.7309C5.86117 11.8923 6.33939 11.5396 6.35134 11.0016C6.35732 10.6251 6.35134 10.2425 6.35732 9.86588C6.35732 9.81806 6.37525 9.7523 6.41112 9.71644C6.70403 9.43548 6.84151 9.09475 6.80565 8.68229C6.74587 7.9829 6.01061 7.45088 5.32915 7.63619C4.86289 7.76172 4.55204 8.06061 4.43847 8.53285C4.32489 8.98715 4.46238 9.38169 4.79713 9.71046C4.833 9.74633 4.85691 9.81208 4.86289 9.86588C4.85691 10.0631 4.85691 10.2604 4.85691 10.4637Z" fill="#51DE8B"/>
</g>
<defs>
<clipPath id="clip0_2339_2">
<rect width="13.3841" height="12.9537" fill="white" transform="translate(0.887695 0.678223)"/>
</clipPath>
</defs>
</svg>
