<svg width="44" height="44" viewBox="0 0 44 44" fill="none" xmlns="http://www.w3.org/2000/svg">
<rect width="44" height="44" rx="10" fill="#E3FFEF"/>
<path d="M33.9998 10.7994C33.9998 17.1629 33.9998 23.5327 33.9998 29.8961C33.9822 29.9591 33.9587 30.022 33.9529 30.085C33.8707 30.6515 33.7123 31.1928 33.4307 31.6837C32.5684 33.2006 31.3012 33.9685 29.641 33.9685C24.5312 33.9748 19.4156 33.9685 14.3058 33.9685C14.1592 33.9685 14.0066 33.9685 13.86 33.9811C11.8888 34.1699 10.0819 32.5083 10.035 30.3808C9.98806 28.3478 9.99392 26.3084 10.035 24.2754C10.0585 22.6515 11.1848 21.2164 12.6515 20.7884C13.2499 20.6121 13.86 20.6625 14.4642 20.6499C14.7282 20.6436 14.9922 20.6499 15.2679 20.6499C15.2679 20.524 15.2679 20.4359 15.2679 20.3415C15.2679 19.2085 15.2679 18.0818 15.2679 16.9489C15.2679 15.0228 15.2679 13.0968 15.2679 11.1707C15.2679 10.6042 15.4909 10.2077 15.9191 10.0692C16.0775 10.0189 16.2594 10.0063 16.4295 10.0063C21.8795 10 27.3237 10.0063 32.7737 10C33.3545 10 33.7827 10.1888 33.9998 10.7994ZM16.7639 31.9355C16.8988 31.9355 16.9751 31.9355 17.0514 31.9355C21.2401 31.9355 25.4347 31.9355 29.6234 31.9292C29.858 31.9292 30.0986 31.9103 30.3156 31.8411C31.442 31.4886 32.0873 30.5445 32.0873 29.2667C32.0873 23.6208 32.0873 17.9811 32.0873 12.3352C32.0873 12.247 32.0814 12.1589 32.0756 12.0645C27.1008 12.0645 22.1494 12.0645 17.1746 12.0645C17.1746 12.1841 17.1746 12.2911 17.1746 12.3981C17.1746 18.0252 17.1746 23.6522 17.1746 29.2793C17.1804 30.1668 17.2039 31.0606 16.7639 31.9355ZM15.2679 22.7081C14.6344 22.7081 14.0301 22.6829 13.4317 22.7144C12.6397 22.7522 11.9651 23.4823 11.9357 24.3257C11.9064 25.0873 11.9181 25.8489 11.9181 26.6105C11.9181 27.8316 11.9123 29.0527 11.9299 30.2738C11.9475 31.3124 12.9155 32.2439 14.0946 31.8725C14.8221 31.6459 15.2621 30.9536 15.2679 30.0535C15.2679 27.6869 15.2679 25.3139 15.2679 22.9473C15.2679 22.878 15.2679 22.8025 15.2679 22.7081Z" fill="#2FB956"/>
<path d="M24.6132 23.369C23.2581 23.369 21.897 23.3753 20.5419 23.369C19.8379 23.3627 19.3744 22.6703 19.6267 21.9905C19.7616 21.6255 20.008 21.4052 20.3776 21.3548C20.4949 21.3359 20.6122 21.3359 20.7296 21.3359C23.3285 21.3359 25.9273 21.3359 28.5262 21.3359C28.6963 21.3359 28.8723 21.3422 29.0366 21.3926C29.4707 21.5248 29.7523 22.0031 29.6936 22.4752C29.635 22.9724 29.2595 23.3564 28.7902 23.3627C28.1214 23.3753 27.4468 23.369 26.778 23.369C26.0447 23.369 25.3289 23.369 24.6132 23.369Z" fill="#2FB956"/>
<path d="M23.481 27.989C22.4895 27.989 21.4981 27.9953 20.5067 27.9828C19.8261 27.9765 19.3803 27.2841 19.6149 26.6232C19.744 26.2455 20.0021 26.0252 20.3776 25.9686C20.4773 25.956 20.5771 25.9497 20.6827 25.9497C22.5482 25.9497 24.4138 25.9497 26.2793 25.9497C26.4319 25.9497 26.5961 25.956 26.7428 26.0064C27.1945 26.1448 27.4644 26.6232 27.394 27.1393C27.3294 27.6114 26.9481 27.9828 26.4788 27.989C25.6223 28.0016 24.7599 27.9953 23.9034 27.9953C23.7626 27.989 23.6218 27.989 23.481 27.989Z" fill="#2FB956"/>
<path d="M23.4578 18.4406C22.4839 18.4406 21.5042 18.4469 20.5304 18.4406C20.108 18.4406 19.7912 18.2329 19.6269 17.8111C19.4802 17.4272 19.5389 17.0558 19.8029 16.7348C20.0024 16.4956 20.2664 16.4012 20.5597 16.4012C22.5015 16.4012 24.4492 16.3949 26.391 16.4012C27.0012 16.4012 27.406 16.8418 27.4001 17.4398C27.3942 18.0314 26.9718 18.4406 26.3617 18.4406C25.3937 18.4406 24.4257 18.4406 23.4578 18.4406Z" fill="#2FB956"/>
</svg>
