<svg width="18" height="10" viewBox="0 0 18 10" fill="none" xmlns="http://www.w3.org/2000/svg">
<path d="M1.33334 6.62852C1.51705 6.63529 1.70116 6.63051 1.88487 6.63051H12.6955C12.6517 6.68192 12.6269 6.71499 12.5979 6.74408C12.2998 7.04336 11.9969 7.33825 11.7032 7.64191C11.3565 8.00057 11.2449 8.43135 11.3896 8.90637C11.5338 9.38099 11.8662 9.68026 12.3544 9.78108C12.7513 9.86278 13.1143 9.76913 13.4263 9.50452C13.5096 9.43399 13.5853 9.35468 13.6627 9.27737C14.6434 8.29705 15.6241 7.31673 16.6044 6.33602C17.2137 5.7263 17.2153 4.98588 16.6084 4.37856C15.5862 3.3556 14.5649 2.33145 13.5399 1.31088C12.9151 0.688814 11.9423 0.795214 11.5087 1.52687C11.2202 2.01384 11.2832 2.63152 11.6797 3.04198C12.0077 3.38111 12.35 3.70669 12.6855 4.03784C12.6799 4.05179 12.674 4.06614 12.668 4.08008H12.0439C10.8297 4.08008 9.61545 4.07969 8.40161 4.07969V4.08008H7.43723C5.42917 4.08008 3.4215 4.07929 1.41344 4.08048C0.803329 4.08048 0.327516 4.39968 0.138625 4.9285C-0.155471 5.75221 0.436306 6.59664 1.33334 6.62852Z" fill="#444444"/>
</svg>
