<svg width="23" height="14" viewBox="0 0 23 14" fill="none" xmlns="http://www.w3.org/2000/svg">
<path d="M22.6506 7.53897C20.6931 9.48787 18.7348 11.4359 16.7785 13.3863C16.5217 13.6424 16.2312 13.7683 15.8684 13.6669C15.2781 13.5019 15.0491 12.786 15.4348 12.3116C15.4851 12.2492 15.5443 12.1938 15.6011 12.137C17.0215 10.7228 18.4417 9.30866 19.8633 7.89565C19.9151 7.84436 19.9795 7.80589 20.0381 7.7616C20.0243 7.73945 20.0103 7.71701 19.9962 7.69487H8.37153C5.92566 7.69487 3.48009 7.69458 1.03422 7.69399C0.907137 7.69399 0.775957 7.69749 0.653561 7.66981C0.249479 7.57889 -0.0380633 7.17326 0.00410179 6.77287C0.0500734 6.33576 0.379488 6.0161 0.810509 5.99249C0.857359 5.98987 0.904502 5.98929 0.951645 5.989H1.02075C1.03802 5.98929 1.0553 5.98929 1.07258 5.98929C2.3835 5.989 3.69442 5.989 5.00535 5.989H5.09085C5.09876 5.989 5.10637 5.98929 5.11428 5.989C5.12365 5.98929 5.13331 5.98929 5.14268 5.98929C7.59323 5.989 10.0441 5.989 12.4946 5.989H20.0492C19.9663 5.90041 19.9169 5.84388 19.8639 5.79084C18.4384 4.37171 17.0139 2.9517 15.5864 1.53461C15.3979 1.34753 15.2652 1.14063 15.2667 0.86788C15.2687 0.522277 15.4242 0.259723 15.7296 0.102948C16.0424 -0.0579066 16.3533 -0.0281835 16.6412 0.177547C16.7062 0.224171 16.7621 0.283326 16.8192 0.34015C18.7629 2.27419 20.7063 4.20882 22.6494 6.14373C23.1164 6.60852 23.1167 7.07505 22.6506 7.53897Z" fill="#6A6A6A"/>
</svg>
