<svg width="25" height="24" viewBox="0 0 25 24" fill="none" xmlns="http://www.w3.org/2000/svg">
<path d="M16.5853 18.1423C12.4421 21.4421 6.69295 20.5433 3.64816 16.7877C0.71257 13.1669 0.892431 7.93472 4.07854 4.62207C7.38028 1.19386 12.5706 0.73805 16.3155 3.56921C18.3839 5.12924 19.6108 7.2157 19.9449 9.78365C20.2725 12.3452 19.5916 14.6499 17.9664 16.7556C18.0499 16.8134 18.1462 16.8519 18.2105 16.9161C19.3988 18.0974 20.5808 19.2851 21.7692 20.4663C22.0518 20.7488 22.1931 21.0698 22.1096 21.4678C21.949 22.2382 21.0304 22.5463 20.433 22.0328C20.3303 21.9429 20.2339 21.8466 20.1376 21.7503C19.0006 20.6204 17.87 19.4841 16.7395 18.3542C16.6752 18.29 16.6367 18.2129 16.5853 18.1423ZM17.9728 10.9585C17.9857 7.00384 14.7931 3.79391 10.8233 3.77465C6.84712 3.75539 3.62889 6.93964 3.60962 10.92C3.59035 14.9003 6.80215 18.1231 10.7848 18.1359C14.7417 18.1423 17.96 14.9324 17.9728 10.9585Z" fill="#555555"/>
</svg>
