<svg width="44" height="44" viewBox="0 0 44 44" fill="none" xmlns="http://www.w3.org/2000/svg">
<rect width="44" height="44" rx="10" fill="#FAEAE5"/>
<g clip-path="url(#clip0_428_15)">
<path d="M23.7876 9C23.9377 9.05663 24.0931 9.10297 24.238 9.1699C24.8283 9.44793 25.1907 9.9113 25.3357 10.5446C25.4703 11.147 25.5998 11.7494 25.7499 12.3466C25.7758 12.4496 25.8794 12.5525 25.9726 12.6092C26.568 12.9644 27.179 13.3042 27.7692 13.6646C27.9038 13.747 28.0074 13.7625 28.1472 13.7161C28.7012 13.5359 29.2604 13.3609 29.8196 13.1858C30.8448 12.8615 31.6991 13.191 32.2375 14.1177C32.8071 15.0959 33.3766 16.0742 33.941 17.0524C34.4743 17.9689 34.3242 18.8905 33.5371 19.601C33.1022 19.9923 32.6673 20.3836 32.2479 20.7852C32.1702 20.8624 32.1185 21.0014 32.1133 21.1095C32.1029 21.7994 32.1029 22.4945 32.1133 23.1844C32.1133 23.3028 32.1702 23.4521 32.2531 23.5294C32.6777 23.9412 33.1229 24.3325 33.563 24.7341C34.319 25.424 34.4691 26.3405 33.9617 27.2209C33.3766 28.2403 32.7864 29.2546 32.1909 30.2637C31.7094 31.0824 30.8499 31.4222 29.9335 31.1493C29.3225 30.9691 28.7219 30.7631 28.1109 30.5881C28.0177 30.5623 27.8779 30.5881 27.7899 30.6396C27.179 30.9845 26.568 31.3346 25.9674 31.7002C25.8742 31.7568 25.7706 31.8649 25.7447 31.9679C25.5946 32.5549 25.4651 33.1521 25.3305 33.7442C25.1079 34.7173 24.3778 35.3042 23.3734 35.3094C22.2084 35.3094 21.0486 35.3094 19.8836 35.3094C18.8843 35.3094 18.1594 34.7379 17.9316 33.7751C17.7918 33.1778 17.6675 32.5703 17.5174 31.9731C17.4915 31.8701 17.3931 31.7568 17.2999 31.7002C16.7045 31.3449 16.0935 31.0103 15.5033 30.6447C15.3635 30.5572 15.2496 30.5418 15.0994 30.5932C14.5454 30.7734 13.9862 30.9485 13.427 31.1235C12.4122 31.4376 11.5579 31.1081 11.0246 30.2019C10.455 29.2237 9.88549 28.2455 9.32113 27.2672C8.78265 26.3405 8.92244 25.4395 9.70945 24.7135C10.1444 24.3119 10.5897 23.9206 11.0142 23.5088C11.0919 23.4367 11.1333 23.2925 11.1385 23.1844C11.1488 22.4996 11.1281 21.8149 11.1488 21.1301C11.154 20.9654 11.123 20.8624 11.0039 20.7543C10.5586 20.3578 10.1237 19.9562 9.68874 19.5546C8.92762 18.8596 8.793 17.9534 9.31077 17.0576C9.88549 16.0639 10.4602 15.0702 11.0401 14.0817C11.5527 13.2064 12.407 12.8769 13.3804 13.1704C13.9552 13.3454 14.5299 13.5205 15.0994 13.7161C15.2651 13.7728 15.379 13.7316 15.5188 13.644C16.0987 13.2939 16.6838 12.9541 17.2792 12.6298C17.4242 12.5525 17.4915 12.465 17.5278 12.3106C17.652 11.7339 17.7866 11.1573 17.9161 10.5806C18.1025 9.75684 18.5944 9.23684 19.4228 9.04119C19.4487 9.03604 19.4642 9.01545 19.4901 9.00515C20.9243 9 22.3585 9 23.7876 9ZM30.5755 29.6305C30.648 29.5532 30.7464 29.476 30.8085 29.3782C31.3781 28.4102 31.9372 27.4371 32.5068 26.4692C32.6414 26.2427 32.6103 26.0831 32.4188 25.9132C31.8544 25.4086 31.3056 24.8886 30.7412 24.384C30.4564 24.1317 30.3632 23.8331 30.4202 23.4624C30.5496 22.5923 30.5548 21.7222 30.4202 20.8521C30.3632 20.4711 30.4616 20.1673 30.7516 19.9099C31.3159 19.4105 31.8648 18.8853 32.4291 18.3808C32.6207 18.2108 32.6362 18.0564 32.512 17.8453C31.9424 16.8774 31.3781 15.9094 30.8189 14.9363C30.6998 14.7304 30.5703 14.6686 30.3322 14.7458C29.6073 14.9827 28.8721 15.1989 28.142 15.4358C27.7692 15.5593 27.4585 15.5027 27.1582 15.2556C26.4696 14.6944 25.7033 14.2464 24.8697 13.9375C24.5228 13.8088 24.3209 13.5771 24.2484 13.2167C24.0827 12.4547 23.9067 11.6979 23.7358 10.9359C23.6892 10.7299 23.5805 10.6373 23.3578 10.6373C22.2136 10.6424 21.0641 10.6424 19.9198 10.6373C19.6868 10.6373 19.5781 10.7248 19.5315 10.9513C19.371 11.703 19.1898 12.4547 19.0241 13.2064C18.9464 13.5617 18.7549 13.8036 18.408 13.9375C17.564 14.2516 16.7925 14.6995 16.0935 15.271C15.8036 15.5078 15.4929 15.5696 15.1305 15.4461C14.3953 15.2041 13.6548 14.9878 12.9196 14.7458C12.697 14.6738 12.5675 14.7252 12.4536 14.926C11.8893 15.9094 11.3249 16.8877 10.745 17.8607C10.6155 18.0821 10.6518 18.2314 10.833 18.3962C11.4026 18.9059 11.9617 19.4259 12.5313 19.9408C12.7954 20.1776 12.8937 20.4556 12.8419 20.816C12.7125 21.7016 12.7073 22.5923 12.8368 23.4779C12.8937 23.8692 12.7798 24.1575 12.495 24.4149C11.9462 24.9092 11.4026 25.424 10.8434 25.9183C10.6466 26.0934 10.6259 26.2478 10.7605 26.4744C11.3301 27.432 11.8893 28.3948 12.4433 29.3627C12.5779 29.5996 12.7229 29.6407 12.9714 29.5584C13.6807 29.3215 14.4004 29.1156 15.1098 28.8788C15.4929 28.75 15.8088 28.8118 16.1194 29.059C16.8029 29.615 17.5588 30.0578 18.3872 30.3667C18.7549 30.5057 18.9516 30.7528 19.0345 31.1287C19.1898 31.8649 19.371 32.596 19.5263 33.3323C19.5781 33.5743 19.6868 33.6773 19.9457 33.6721C21.0745 33.6618 22.2032 33.6618 23.3319 33.6721C23.5753 33.6721 23.6892 33.5794 23.741 33.3477C23.9067 32.5857 24.0879 31.8289 24.2536 31.0669C24.326 30.7271 24.5176 30.5006 24.8438 30.3821C25.6981 30.0629 26.4748 29.6099 27.179 29.0384C27.4637 28.8067 27.764 28.7449 28.1161 28.8633C28.8255 29.095 29.54 29.3164 30.2545 29.5378C30.3425 29.5687 30.4357 29.5893 30.5755 29.6305Z" fill="#FF3A3A"/>
<path d="M16.1245 22.1547C16.1245 19.1222 18.6046 16.6611 21.6491 16.6714C24.6781 16.6817 27.1478 19.1428 27.1478 22.1598C27.1478 25.1821 24.6522 27.6586 21.618 27.6431C18.5787 27.6277 16.1193 25.1769 16.1245 22.1547ZM17.7762 22.1598C17.7762 24.2811 19.5159 26.0058 21.6388 25.9956C23.7564 25.9904 25.4858 24.2656 25.491 22.165C25.4961 20.0489 23.7564 18.3138 21.6336 18.3138C19.5055 18.3138 17.7762 20.0386 17.7762 22.1598Z" fill="#FF3A3A"/>
</g>
<defs>
<clipPath id="clip0_428_15">
<rect width="25.2619" height="26.3145" fill="white" transform="translate(9 9)"/>
</clipPath>
</defs>
</svg>
