<svg width="9" height="13" viewBox="0 0 9 13" fill="none" xmlns="http://www.w3.org/2000/svg">
<path d="M1.10894 8.39815L1.109 8.39809C1.3961 8.12157 1.81361 8.14789 2.11386 8.43746C2.72305 9.02476 3.33147 9.61277 3.9395 10.2011C3.93981 9.34474 3.93981 8.48805 3.93981 7.63166C3.93981 7.30274 3.93982 6.97381 3.93983 6.64488C3.93989 5.00809 3.93994 3.37119 3.93866 1.73453L3.93678 1.73091L3.93864 1.70634L3.93862 1.68752L3.94047 1.68396C3.95432 1.53192 3.99639 1.39408 4.08199 1.27877C4.17153 1.15816 4.30199 1.07123 4.47479 1.01536L4.48979 1.01051L4.50555 1.01051L4.73881 1.01051L4.75463 1.01051L4.76968 1.0154C4.94081 1.07093 5.07167 1.15665 5.16185 1.27653C5.25174 1.39603 5.29445 1.54048 5.30549 1.70172L5.30596 1.70861L5.30573 1.70861C5.30479 3.24533 5.30485 4.78228 5.30491 6.31913C5.30493 6.7031 5.30495 7.08706 5.30495 7.47101C5.30495 8.38073 5.30495 9.29043 5.30525 10.2001C5.92417 9.60272 6.54267 9.00571 7.16079 8.40797L7.16082 8.40794C7.35227 8.22297 7.58921 8.16166 7.84514 8.23212C8.09797 8.3014 8.26398 8.47709 8.32045 8.7266C8.32045 8.72662 8.32046 8.72664 8.32046 8.72666L8.22293 8.74873C8.27044 8.95806 8.19762 9.13369 8.04263 9.28311L1.10894 8.39815ZM1.10894 8.39815C0.968482 8.53365 0.899188 8.70397 0.90858 8.88143C0.917902 9.05755 1.00399 9.2299 1.15358 9.37479L1.15362 9.37482C2.09212 10.2829 3.03064 11.1907 3.96996 12.0977L3.97011 12.0979L4.03166 12.1572L4.09346 12.2169C4.09349 12.2169 4.09352 12.2169 4.09355 12.2169C4.25376 12.3714 4.434 12.4567 4.62269 12.4564C4.81135 12.4562 4.99149 12.3705 5.15159 12.2166L5.15193 12.2162L5.21312 12.1572L5.27476 12.0978C5.65559 11.7304 6.03603 11.3627 6.41642 10.995L6.4166 10.9948L6.41662 10.9948C6.62894 10.7895 6.84111 10.5842 7.05324 10.3789C7.40613 10.0375 7.7589 9.69609 8.11203 9.3551L1.10894 8.39815Z" fill="#B3B3B3" stroke="#B4B4B4" stroke-width="0.2"/>
</svg>
