<svg width="9" height="12" viewBox="0 0 9 12" fill="none" xmlns="http://www.w3.org/2000/svg">
<path d="M8.25141 4.49834L8.25135 4.49839C7.96426 4.77491 7.54674 4.74859 7.2465 4.45903M8.25141 4.49834L1.31772 3.61338C1.16274 3.76279 1.08991 3.93842 1.13742 4.14776L1.03989 4.16982C1.03989 4.16984 1.0399 4.16987 1.0399 4.16989C1.09636 4.41935 1.26233 4.59503 1.51508 4.66433C1.77106 4.73485 2.00805 4.67354 2.19953 4.48855L2.19956 4.48852C2.81768 3.89077 3.43618 3.29376 4.0551 2.69636C4.05541 3.60605 4.05541 4.51575 4.05541 5.42547C4.05541 5.80956 4.05542 6.19367 4.05544 6.57778C4.0555 8.11448 4.05556 9.65129 4.05463 11.1879H4.05439L4.05486 11.1948C4.0659 11.356 4.10861 11.5005 4.1985 11.6199C4.28868 11.7398 4.41954 11.8256 4.59067 11.8811L4.60572 11.886H4.62154H4.8548H4.87056L4.88556 11.8811C5.05837 11.8253 5.18882 11.7383 5.27836 11.6177C5.36396 11.5024 5.40604 11.3646 5.41988 11.2125L5.42173 11.209L5.42171 11.1901L5.42357 11.1656L5.42169 11.1619C5.42041 9.52529 5.42047 7.88838 5.42052 6.2516C5.42053 5.92267 5.42054 5.59374 5.42054 5.26482C5.42054 4.40843 5.42054 3.55175 5.42085 2.69534C6.02888 3.28371 6.6373 3.87172 7.2465 4.45903M8.25141 4.49834C8.39187 4.36283 8.46116 4.19251 8.45177 4.01505C8.44245 3.83894 8.35636 3.66659 8.20677 3.5217L8.20673 3.52166C7.26823 2.61355 6.32971 1.70579 5.3904 0.798767L5.39025 0.798623L5.32869 0.739245L5.2669 0.679631C5.26686 0.679601 5.26683 0.67957 5.2668 0.679539C5.10659 0.525101 4.92636 0.439814 4.73766 0.44004C4.549 0.440265 4.36887 0.525949 4.20876 0.679913L4.20842 0.680243L4.14723 0.739269L4.08559 0.798729C3.7047 1.16613 3.3242 1.53391 2.94375 1.90164L2.94373 1.90165C2.73143 2.10693 2.51928 2.31223 2.30717 2.51748C1.95426 2.85899 1.60147 3.20038 1.24832 3.54138L8.25141 4.49834ZM7.2465 4.45903L7.31592 4.38705M7.2465 4.45903L7.31592 4.38705M7.31592 4.38705C6.6983 3.79163 6.08146 3.19546 5.46502 2.59892L8.18198 4.42637C7.93937 4.66004 7.58345 4.64506 7.31592 4.38705Z" fill="#B3B3B3" stroke="#B4B4B4" stroke-width="0.2"/>
</svg>
