<svg width="192" height="52" viewBox="0 0 192 52" fill="none" xmlns="http://www.w3.org/2000/svg">
<path d="M52.5499 16.18C52.5752 15.9775 52.6258 15.775 52.6512 15.5725C52.6512 15.5725 56.3471 1.90265 37.0068 0.0800062C37.0068 0.0800062 35.5133 -0.0212517 33.0578 0.00406282C34.0703 1.57356 35.4373 4.00375 36.7284 7.4212C42.8038 8.91476 48.4743 11.5981 52.5499 16.18Z" fill="url(#paint0_linear_139_137)"/>
<path d="M36.7284 7.44629C39.1586 13.8509 41.3356 23.6729 40.5509 37.4693C42.8545 36.1782 45.6644 34.0771 47.5883 30.9634C47.6895 30.7862 47.8161 30.5837 47.9174 30.4065C48.449 29.5711 50.9045 25.3436 52.5246 16.1798C48.4743 11.5979 42.8038 8.91453 36.7284 7.44629Z" fill="url(#paint1_linear_139_137)"/>
<path d="M36.7284 7.44636C35.4374 4.02891 34.0704 1.5734 33.0578 0.00390625C28.4759 0.0798497 20.5525 0.687397 12.8062 3.52262C12.8062 3.52262 9.97101 4.50988 6.95858 6.96539C13.3631 6.00344 25.6913 4.76303 36.7284 7.44636Z" fill="url(#paint2_linear_139_137)"/>
<path d="M36.7284 7.4466C25.7166 4.76326 13.3631 6.00367 6.95857 6.99094C2.75636 10.4337 -1.77493 16.7623 0.705892 27.3438C0.705892 27.3438 2.52853 38.9378 12.3252 52.0001C12.3252 52.0001 12.9328 42.735 26.4254 40.9123C26.4254 40.9123 35.2601 40.0263 36.6777 39.2163C36.6777 39.2163 38.3738 38.71 40.5509 37.4696C41.3356 23.6732 39.1586 13.8512 36.7284 7.4466Z" fill="url(#paint3_linear_139_137)"/>
<path opacity="0.32" d="M38.6016 16.1799C41.4875 16.9646 42.3735 20.6352 40.1964 22.6604L33.6147 28.7865L27.2101 34.7354C24.8052 36.9631 20.9827 35.4189 20.122 31.8242L18.35 24.559L16.578 17.2937C15.692 13.7497 18.35 10.6107 21.5143 11.4714L29.9441 13.8003L38.6016 16.1799Z" fill="black"/>
<path d="M36.703 13.927C39.5383 14.7118 40.4243 18.3065 38.2725 20.3316L31.792 26.3565L25.4887 32.2294C23.1092 34.4318 19.3626 32.8876 18.5019 29.3689L16.7046 22.2049L14.9579 15.0662C14.0972 11.5222 16.7046 8.43381 19.8436 9.2945L28.1467 11.5728L36.703 13.927Z" fill="white"/>
<path d="M23.2446 22.6105C24.099 22.4503 24.6617 21.6278 24.5015 20.7734C24.3413 19.9191 23.5188 19.3564 22.6645 19.5166C21.8101 19.6768 21.2474 20.4992 21.4076 21.3536C21.5678 22.208 22.3903 22.7707 23.2446 22.6105Z" fill="#333333"/>
<path d="M27.7278 21.3869C28.5822 21.2266 29.1449 20.4042 28.9847 19.5498C28.8245 18.6954 28.002 18.1327 27.1477 18.2929C26.2933 18.4531 25.7306 19.2756 25.8908 20.13C26.051 20.9843 26.8735 21.5471 27.7278 21.3869Z" fill="#333333"/>
<path d="M32.3661 20.172C33.2204 20.0118 33.7832 19.1893 33.623 18.335C33.4628 17.4806 32.6403 16.9179 31.7859 17.0781C30.9316 17.2383 30.3688 18.0608 30.529 18.9151C30.6892 19.7695 31.5117 20.3322 32.3661 20.172Z" fill="#333333"/>
<path d="M17.6666 23.7998L18.9323 29.1412C18.9323 29.1412 19.8689 31.7992 21.2359 32.1283C21.2359 32.1283 23.6408 32.9636 25.2103 31.4954L29.6656 27.5463C29.691 27.5463 18.6285 28.483 17.6666 23.7998Z" fill="#EFEFEF"/>
<path d="M74.9112 14.4257C74.7627 14.6634 74.6042 14.8416 74.4359 14.9605C74.2774 15.0793 74.0694 15.1387 73.812 15.1387C73.5842 15.1387 73.3366 15.0694 73.0692 14.9308C72.8117 14.7822 72.5146 14.6188 72.1779 14.4406C71.8511 14.2623 71.4748 14.1038 71.0489 13.9652C70.6231 13.8167 70.1378 13.7424 69.5931 13.7424C68.6523 13.7424 67.9492 13.9454 67.4837 14.3514C67.0282 14.7476 66.8004 15.2873 66.8004 15.9706C66.8004 16.4064 66.939 16.7678 67.2163 17.055C67.4936 17.3422 67.8551 17.5898 68.3008 17.7978C68.7563 18.0058 69.2713 18.1989 69.8457 18.3771C70.43 18.5455 71.0242 18.7386 71.6283 18.9565C72.2324 19.1645 72.8216 19.412 73.396 19.6992C73.9803 19.9864 74.4953 20.3529 74.9409 20.7985C75.3965 21.2442 75.7629 21.7888 76.0402 22.4326C76.3175 23.0664 76.4561 23.8339 76.4561 24.7351C76.4561 25.7353 76.2828 26.6712 75.9362 27.5427C75.5896 28.4142 75.0845 29.1767 74.421 29.8303C73.7674 30.4741 72.9553 30.9841 71.9848 31.3604C71.0242 31.7268 69.9299 31.91 68.7018 31.91C68.0284 31.91 67.3401 31.8407 66.637 31.7021C65.9438 31.5634 65.2703 31.3703 64.6167 31.1227C63.9631 30.8652 63.3491 30.5632 62.7747 30.2166C62.2003 29.87 61.7002 29.4837 61.2743 29.0579L62.7598 26.7108C62.8787 26.5424 63.0322 26.4038 63.2203 26.2949C63.4184 26.176 63.6313 26.1166 63.8591 26.1166C64.1562 26.1166 64.4533 26.2107 64.7504 26.3988C65.0574 26.587 65.3991 26.795 65.7754 27.0227C66.1616 27.2505 66.6023 27.4585 67.0975 27.6467C67.5927 27.8348 68.177 27.9289 68.8504 27.9289C69.7615 27.9289 70.4696 27.7308 70.9747 27.3347C71.4797 26.9287 71.7323 26.2899 71.7323 25.4184C71.7323 24.9133 71.5936 24.5023 71.3163 24.1854C71.039 23.8685 70.6726 23.6061 70.217 23.3981C69.7714 23.1902 69.2614 23.0069 68.687 22.8485C68.1126 22.69 67.5233 22.5167 66.9192 22.3286C66.3151 22.1305 65.7259 21.8928 65.1515 21.6155C64.5771 21.3283 64.0621 20.957 63.6066 20.5014C63.1609 20.0359 62.7995 19.4616 62.5222 18.7782C62.2449 18.085 62.1062 17.2333 62.1062 16.2232C62.1062 15.4111 62.2696 14.6188 62.5964 13.8464C62.9232 13.0739 63.4036 12.3856 64.0374 11.7815C64.6712 11.1774 65.4486 10.6971 66.3696 10.3406C67.2906 9.97416 68.3453 9.79095 69.5337 9.79095C70.1972 9.79095 70.841 9.84542 71.4649 9.95435C72.0987 10.0534 72.6978 10.2069 73.2623 10.4149C73.8268 10.6129 74.3517 10.8556 74.837 11.1428C75.3321 11.42 75.7728 11.737 76.159 12.0935L74.9112 14.4257ZM83.2129 27.4833C83.5595 27.8596 83.9358 28.127 84.3418 28.2854C84.7479 28.4439 85.1737 28.5231 85.6194 28.5231C86.0452 28.5231 86.4364 28.4389 86.7929 28.2706C87.1494 28.1022 87.4564 27.8348 87.7139 27.4684C87.9813 27.0921 88.1893 26.6068 88.3378 26.0126C88.4864 25.4184 88.5607 24.6955 88.5607 23.8438C88.5607 23.0317 88.5012 22.3484 88.3824 21.7938C88.2636 21.2392 88.0952 20.7936 87.8773 20.4568C87.6694 20.1102 87.4168 19.8626 87.1197 19.7141C86.8226 19.5655 86.4909 19.4913 86.1244 19.4913C85.451 19.4913 84.8964 19.6151 84.4607 19.8626C84.0249 20.1102 83.609 20.4717 83.2129 20.9471V27.4833ZM82.9306 18.1692C83.5347 17.5255 84.218 17.0006 84.9806 16.5945C85.7531 16.1786 86.6691 15.9706 87.7288 15.9706C88.5309 15.9706 89.2737 16.1489 89.957 16.5054C90.6404 16.8619 91.2296 17.3769 91.7248 18.0503C92.2199 18.7238 92.6062 19.5507 92.8835 20.5311C93.1707 21.5016 93.3143 22.6059 93.3143 23.8438C93.3143 25.0025 93.1508 26.072 92.824 27.0525C92.5071 28.0329 92.0565 28.8846 91.4722 29.6075C90.8978 30.3305 90.2046 30.895 89.3925 31.301C88.5904 31.707 87.6991 31.91 86.7186 31.91C85.9165 31.91 85.243 31.7962 84.6984 31.5684C84.1537 31.3406 83.6585 31.0336 83.2129 30.6474V36.5597H78.6078V16.2677H81.46C82.0344 16.2677 82.4107 16.5252 82.5889 17.0402L82.9306 18.1692ZM105.278 22.1206C105.278 21.7542 105.229 21.3977 105.13 21.051C105.041 20.7044 104.887 20.3974 104.669 20.13C104.461 19.8527 104.184 19.6299 103.837 19.4616C103.491 19.2932 103.07 19.209 102.575 19.209C101.703 19.209 101.02 19.4616 100.525 19.9666C100.03 20.4618 99.7028 21.1798 99.5443 22.1206H105.278ZM99.4849 24.7945C99.6334 26.0819 100.025 27.0178 100.658 27.6021C101.292 28.1765 102.109 28.4637 103.109 28.4637C103.644 28.4637 104.105 28.3993 104.491 28.2706C104.877 28.1418 105.219 27.9982 105.516 27.8398C105.823 27.6813 106.1 27.5377 106.348 27.409C106.605 27.2802 106.873 27.2159 107.15 27.2159C107.516 27.2159 107.794 27.3496 107.982 27.6169L109.319 29.2659C108.844 29.8105 108.329 30.2562 107.774 30.6028C107.229 30.9395 106.665 31.2069 106.08 31.405C105.506 31.5931 104.927 31.7219 104.342 31.7912C103.768 31.8704 103.218 31.91 102.694 31.91C101.614 31.91 100.599 31.7367 99.6483 31.3901C98.7075 31.0336 97.8805 30.5087 97.1675 29.8155C96.4644 29.1223 95.9048 28.2607 95.4889 27.2307C95.0828 26.2008 94.8798 25.0025 94.8798 23.6358C94.8798 22.6059 95.0531 21.6304 95.3998 20.7094C95.7563 19.7884 96.2613 18.9812 96.915 18.288C97.5785 17.5948 98.3757 17.0451 99.3066 16.6391C100.247 16.2331 101.307 16.03 102.486 16.03C103.506 16.03 104.437 16.1885 105.278 16.5054C106.13 16.8223 106.858 17.2828 107.462 17.8869C108.076 18.491 108.551 19.2338 108.888 20.1152C109.235 20.9867 109.408 21.977 109.408 23.0862C109.408 23.4328 109.393 23.715 109.363 23.9329C109.334 24.1508 109.279 24.3241 109.2 24.4528C109.121 24.5816 109.012 24.6707 108.873 24.7202C108.744 24.7697 108.576 24.7945 108.368 24.7945H99.4849ZM119.66 25.4036C118.739 25.4432 117.981 25.5224 117.387 25.6412C116.793 25.7601 116.322 25.9086 115.976 26.0869C115.629 26.2651 115.387 26.4682 115.248 26.6959C115.119 26.9237 115.055 27.1713 115.055 27.4387C115.055 27.9636 115.198 28.3349 115.486 28.5528C115.773 28.7608 116.194 28.8648 116.748 28.8648C117.342 28.8648 117.862 28.7608 118.308 28.5528C118.754 28.3448 119.204 28.0081 119.66 27.5427V25.4036ZM111.371 18.4068C112.302 17.5849 113.332 16.9758 114.461 16.5797C115.599 16.1736 116.818 15.9706 118.115 15.9706C119.046 15.9706 119.883 16.1241 120.625 16.4311C121.378 16.7282 122.012 17.1491 122.527 17.6938C123.052 18.2286 123.453 18.8674 123.73 19.6101C124.007 20.3529 124.146 21.1649 124.146 22.0463V31.6724H122.037C121.601 31.6724 121.269 31.6129 121.041 31.4941C120.823 31.3753 120.64 31.1277 120.492 30.7514L120.165 29.9046C119.779 30.2314 119.407 30.5186 119.051 30.7662C118.694 31.0138 118.323 31.2267 117.937 31.405C117.56 31.5733 117.154 31.6971 116.719 31.7763C116.293 31.8655 115.817 31.91 115.292 31.91C114.589 31.91 113.951 31.8209 113.376 31.6427C112.802 31.4545 112.312 31.1821 111.906 30.8256C111.509 30.4691 111.202 30.0284 110.985 29.5035C110.767 28.9688 110.658 28.3547 110.658 27.6615C110.658 27.1069 110.796 26.5474 111.074 25.9829C111.351 25.4085 111.831 24.8886 112.515 24.4231C113.198 23.9478 114.119 23.5516 115.278 23.2347C116.436 22.9178 117.897 22.7396 119.66 22.6999V22.0463C119.66 21.1451 119.472 20.4965 119.095 20.1003C118.729 19.6943 118.204 19.4913 117.521 19.4913C116.976 19.4913 116.53 19.5507 116.184 19.6695C115.837 19.7884 115.525 19.9221 115.248 20.0706C114.981 20.2192 114.718 20.3529 114.461 20.4717C114.203 20.5905 113.896 20.65 113.54 20.65C113.223 20.65 112.955 20.5707 112.737 20.4123C112.52 20.2538 112.341 20.0657 112.203 19.8478L111.371 18.4068ZM131.695 9.43443V21.8978H132.378C132.665 21.8978 132.883 21.8582 133.032 21.7789C133.18 21.6898 133.329 21.5462 133.477 21.3481L136.389 17.0105C136.567 16.7629 136.77 16.5797 136.998 16.4608C137.226 16.3321 137.518 16.2677 137.874 16.2677H142.093L138.112 21.7492C137.736 22.2444 137.29 22.6504 136.775 22.9673C137.003 23.1357 137.211 23.3338 137.399 23.5615C137.587 23.7794 137.765 24.027 137.934 24.3043L142.271 31.6724H138.112C137.765 31.6724 137.468 31.6179 137.221 31.509C136.973 31.3901 136.765 31.1871 136.597 30.8999L133.685 25.4481C133.547 25.2005 133.403 25.0421 133.254 24.9728C133.106 24.8935 132.883 24.8539 132.586 24.8539H131.695V31.6724H127.09V9.43443H131.695ZM151.633 25.4036C150.712 25.4432 149.954 25.5224 149.36 25.6412C148.766 25.7601 148.295 25.9086 147.949 26.0869C147.602 26.2651 147.36 26.4682 147.221 26.6959C147.092 26.9237 147.028 27.1713 147.028 27.4387C147.028 27.9636 147.171 28.3349 147.459 28.5528C147.746 28.7608 148.167 28.8648 148.721 28.8648C149.316 28.8648 149.835 28.7608 150.281 28.5528C150.727 28.3448 151.177 28.0081 151.633 27.5427V25.4036ZM143.344 18.4068C144.275 17.5849 145.305 16.9758 146.434 16.5797C147.573 16.1736 148.791 15.9706 150.088 15.9706C151.019 15.9706 151.856 16.1241 152.598 16.4311C153.351 16.7282 153.985 17.1491 154.5 17.6938C155.025 18.2286 155.426 18.8674 155.703 19.6101C155.98 20.3529 156.119 21.1649 156.119 22.0463V31.6724H154.01C153.574 31.6724 153.242 31.6129 153.014 31.4941C152.797 31.3753 152.613 31.1277 152.465 30.7514L152.138 29.9046C151.752 30.2314 151.38 30.5186 151.024 30.7662C150.667 31.0138 150.296 31.2267 149.91 31.405C149.533 31.5733 149.127 31.6971 148.692 31.7763C148.266 31.8655 147.79 31.91 147.266 31.91C146.562 31.91 145.924 31.8209 145.349 31.6427C144.775 31.4545 144.285 31.1821 143.879 30.8256C143.482 30.4691 143.175 30.0284 142.958 29.5035C142.74 28.9688 142.631 28.3547 142.631 27.6615C142.631 27.1069 142.769 26.5474 143.047 25.9829C143.324 25.4085 143.804 24.8886 144.488 24.4231C145.171 23.9478 146.092 23.5516 147.251 23.2347C148.409 22.9178 149.87 22.7396 151.633 22.6999V22.0463C151.633 21.1451 151.445 20.4965 151.068 20.1003C150.702 19.6943 150.177 19.4913 149.494 19.4913C148.949 19.4913 148.503 19.5507 148.157 19.6695C147.81 19.7884 147.498 19.9221 147.221 20.0706C146.954 20.2192 146.691 20.3529 146.434 20.4717C146.176 20.5905 145.869 20.65 145.513 20.65C145.196 20.65 144.928 20.5707 144.71 20.4123C144.493 20.2538 144.314 20.0657 144.176 19.8478L143.344 18.4068ZM163.668 27.4833C164.014 27.8596 164.391 28.127 164.797 28.2854C165.203 28.4439 165.629 28.5231 166.074 28.5231C166.5 28.5231 166.891 28.4389 167.248 28.2706C167.604 28.1022 167.911 27.8348 168.169 27.4684C168.436 27.0921 168.644 26.6068 168.793 26.0126C168.941 25.4184 169.016 24.6955 169.016 23.8438C169.016 23.0317 168.956 22.3484 168.837 21.7938C168.718 21.2392 168.55 20.7936 168.332 20.4568C168.124 20.1102 167.872 19.8626 167.575 19.7141C167.278 19.5655 166.946 19.4913 166.579 19.4913C165.906 19.4913 165.351 19.6151 164.916 19.8626C164.48 20.1102 164.064 20.4717 163.668 20.9471V27.4833ZM163.386 18.1692C163.99 17.5255 164.673 17.0006 165.436 16.5945C166.208 16.1786 167.124 15.9706 168.184 15.9706C168.986 15.9706 169.729 16.1489 170.412 16.5054C171.095 16.8619 171.685 17.3769 172.18 18.0503C172.675 18.7238 173.061 19.5507 173.338 20.5311C173.626 21.5016 173.769 22.6059 173.769 23.8438C173.769 25.0025 173.606 26.072 173.279 27.0525C172.962 28.0329 172.511 28.8846 171.927 29.6075C171.353 30.3305 170.66 30.895 169.847 31.301C169.045 31.707 168.154 31.91 167.174 31.91C166.371 31.91 165.698 31.7962 165.153 31.5684C164.609 31.3406 164.113 31.0336 163.668 30.6474V36.5597H159.063V16.2677H161.915C162.489 16.2677 162.866 16.5252 163.044 17.0402L163.386 18.1692ZM180.757 27.4833C181.103 27.8596 181.48 28.127 181.886 28.2854C182.292 28.4439 182.718 28.5231 183.163 28.5231C183.589 28.5231 183.98 28.4389 184.337 28.2706C184.693 28.1022 185 27.8348 185.258 27.4684C185.525 27.0921 185.733 26.6068 185.882 26.0126C186.03 25.4184 186.105 24.6955 186.105 23.8438C186.105 23.0317 186.045 22.3484 185.926 21.7938C185.808 21.2392 185.639 20.7936 185.421 20.4568C185.213 20.1102 184.961 19.8626 184.664 19.7141C184.367 19.5655 184.035 19.4913 183.668 19.4913C182.995 19.4913 182.44 19.6151 182.005 19.8626C181.569 20.1102 181.153 20.4717 180.757 20.9471V27.4833ZM180.475 18.1692C181.079 17.5255 181.762 17.0006 182.525 16.5945C183.297 16.1786 184.213 15.9706 185.273 15.9706C186.075 15.9706 186.818 16.1489 187.501 16.5054C188.184 16.8619 188.774 17.3769 189.269 18.0503C189.764 18.7238 190.15 19.5507 190.427 20.5311C190.715 21.5016 190.858 22.6059 190.858 23.8438C190.858 25.0025 190.695 26.072 190.368 27.0525C190.051 28.0329 189.6 28.8846 189.016 29.6075C188.442 30.3305 187.749 30.895 186.936 31.301C186.134 31.707 185.243 31.91 184.263 31.91C183.46 31.91 182.787 31.7962 182.242 31.5684C181.698 31.3406 181.202 31.0336 180.757 30.6474V36.5597H176.152V16.2677H179.004C179.578 16.2677 179.955 16.5252 180.133 17.0402L180.475 18.1692Z" fill="#3B4368"/>
<defs>
<linearGradient id="paint0_linear_139_137" x1="35.2242" y1="13.1399" x2="9.41452" y2="30.2991" gradientUnits="userSpaceOnUse">
<stop stop-color="#A238DF"/>
<stop offset="0.1404" stop-color="#9B35DB"/>
<stop offset="0.3499" stop-color="#862CCF"/>
<stop offset="0.6025" stop-color="#651DBD"/>
<stop offset="0.8864" stop-color="#3709A3"/>
<stop offset="1" stop-color="#230097"/>
</linearGradient>
<linearGradient id="paint1_linear_139_137" x1="55.1177" y1="17.2114" x2="27.0391" y2="26.1456" gradientUnits="userSpaceOnUse">
<stop offset="0.2183" stop-color="#A238DF"/>
<stop offset="0.328" stop-color="#9B35DB"/>
<stop offset="0.4918" stop-color="#862CCF"/>
<stop offset="0.6893" stop-color="#651DBD"/>
<stop offset="0.9112" stop-color="#3709A3"/>
<stop offset="1" stop-color="#230097"/>
</linearGradient>
<linearGradient id="paint2_linear_139_137" x1="42.8563" y1="-14.1115" x2="-6.06862" y2="35.5225" gradientUnits="userSpaceOnUse">
<stop stop-color="#A238DF"/>
<stop offset="0.1404" stop-color="#9B35DB"/>
<stop offset="0.3499" stop-color="#862CCF"/>
<stop offset="0.6025" stop-color="#651DBD"/>
<stop offset="0.8864" stop-color="#3709A3"/>
<stop offset="1" stop-color="#230097"/>
</linearGradient>
<linearGradient id="paint3_linear_139_137" x1="45.8654" y1="-0.290493" x2="-3.05954" y2="49.3435" gradientUnits="userSpaceOnUse">
<stop stop-color="#A238DF"/>
<stop offset="0.1404" stop-color="#9B35DB"/>
<stop offset="0.3499" stop-color="#862CCF"/>
<stop offset="0.6025" stop-color="#651DBD"/>
<stop offset="0.8864" stop-color="#3709A3"/>
<stop offset="1" stop-color="#230097"/>
</linearGradient>
</defs>
</svg>
