<svg width="28" height="27" viewBox="0 0 28 27" fill="none" xmlns="http://www.w3.org/2000/svg">
<path d="M27.7475 10.2126C27.7281 10.1352 27.7087 10.077 27.6893 10.0189C27.6893 9.99956 27.6699 9.96082 27.6699 9.94145C27.6505 9.90271 27.6505 9.88334 27.6311 9.84459C27.6311 9.82522 27.6117 9.80585 27.6117 9.78648C27.5923 9.72837 27.5535 9.68963 27.5341 9.63151C27.5341 9.63151 27.5341 9.63151 27.5341 9.61214C27.5147 9.59277 27.5147 9.5734 27.4953 9.55403C27.4759 9.53466 27.4565 9.49592 27.4565 9.47654C27.4371 9.45717 27.4176 9.41843 27.3982 9.39906C27.3788 9.37969 27.3788 9.36032 27.3594 9.34095C27.34 9.32158 27.3206 9.3022 27.3012 9.28283C27.3012 9.28283 27.3012 9.26346 27.2818 9.26346C27.2624 9.24409 27.243 9.20535 27.2042 9.18598L27.1848 9.16661L27.1654 9.14723C27.1654 9.14723 27.1654 9.14723 27.1848 9.16661C27.1848 9.16661 27.1848 9.16661 27.1654 9.14723C27.146 9.12786 27.146 9.12786 27.1266 9.10849C27.1266 9.10849 27.1266 9.10849 27.1072 9.10849L27.0878 9.08912L27.0684 9.06975C27.0684 9.06975 27.0684 9.06975 27.049 9.06975L27.0296 9.05038L27.049 9.06975C27.0296 9.06975 27.0296 9.05038 27.0102 9.05038L26.9908 9.03101C26.9714 9.01164 26.952 8.99227 26.9326 8.99227C26.9132 8.97289 26.8743 8.95352 26.8549 8.93415C26.8161 8.89541 26.7579 8.87604 26.7191 8.85667C26.6803 8.8373 26.6221 8.79856 26.5833 8.79856C26.5639 8.77918 26.5251 8.77918 26.5057 8.75981C26.4863 8.74044 26.4475 8.74044 26.4281 8.72107C26.4087 8.7017 26.3699 8.7017 26.3504 8.7017C26.2146 8.66296 26.0788 8.62422 25.9236 8.60484C23.8474 8.29491 21.7518 7.98497 19.6756 7.6944C19.1711 7.61692 18.8218 7.40383 18.6084 6.93893C18.3173 6.31905 18.0069 5.69918 17.6964 5.09867C17.5994 4.90496 17.5024 4.69188 17.4053 4.49817C16.8814 3.39401 16.3575 2.3286 15.8336 1.26319C15.8336 1.26319 15.8336 1.24382 15.8142 1.24382C15.8142 1.22445 15.7948 1.20508 15.7948 1.1857C15.7754 1.16633 15.7754 1.12759 15.756 1.10822C15.7366 1.08885 15.7172 1.06948 15.7172 1.03074C15.5814 0.798282 15.4262 0.604571 15.2515 0.468973C15.2321 0.449602 15.2321 0.449602 15.2321 0.449602C15.2127 0.430231 15.1933 0.41086 15.1739 0.391489C15.1351 0.372118 15.1157 0.352747 15.0769 0.333375L15.0575 0.314004C15.0187 0.294633 14.9799 0.275262 14.9605 0.255891C14.9605 0.255891 14.9411 0.255891 14.9411 0.23652C14.9217 0.217149 14.8829 0.197778 14.8635 0.197778C14.8053 0.178406 14.747 0.159035 14.7082 0.139664C14.5336 0.0815508 14.359 0.0428086 14.1649 0.0234375C14.0873 0.0234375 14.0291 0.0234375 13.9709 0.0234375C13.9515 0.0234375 13.9321 0.0234375 13.8933 0.0234375C13.8739 0.0234375 13.8739 0.0234375 13.8545 0.0234375C13.8157 0.0234375 13.7963 0.0234375 13.7769 0.0234375C13.7186 0.0234375 13.6604 0.0428086 13.6022 0.0428086H13.5828C13.5828 0.0428086 13.5828 0.0428086 13.5634 0.0428086C13.5246 0.0428086 13.4858 0.0621797 13.447 0.0621797C13.4276 0.0621797 13.4082 0.0621797 13.3888 0.0815509C13.3306 0.100922 13.2918 0.100922 13.2336 0.120293C13.2142 0.139664 13.1753 0.139664 13.1559 0.159035C13.0395 0.178406 13.0201 0.178406 13.0007 0.197778C12.9813 0.217149 12.9425 0.217149 12.9231 0.23652C12.9037 0.23652 12.9037 0.23652 12.9037 0.255891C12.8649 0.275262 12.8261 0.314004 12.7679 0.333375C12.5156 0.507715 12.3022 0.740169 12.1081 1.05011C12.0693 1.10822 12.0499 1.14696 12.0305 1.20508C12.0111 1.22445 12.0111 1.26319 11.9917 1.28256C11.4484 2.3286 10.9245 3.39401 10.4006 4.45942C9.99314 5.29238 9.58566 6.10597 9.17819 6.93893C8.96475 7.38446 8.63488 7.59755 8.14979 7.67503C6.03479 7.9656 3.90038 8.27553 1.78538 8.60484C1.66896 8.62422 1.53314 8.64359 1.43612 8.68233C1.41671 8.68233 1.37791 8.7017 1.3585 8.7017C1.3391 8.72107 1.30029 8.72107 1.28089 8.74044C1.26148 8.74044 1.22268 8.75981 1.20327 8.77918C1.14506 8.79855 1.10625 8.81793 1.06745 8.8373C1.02864 8.85667 0.970428 8.89541 0.931621 8.91478C0.912217 8.93415 0.87341 8.95352 0.854006 8.97289C0.834603 8.99227 0.815199 8.99227 0.795795 9.01164L0.776391 9.03101L0.756988 9.05038C0.756988 9.03101 0.776391 9.01164 0.776391 9.01164C0.776391 9.01164 0.756988 9.01164 0.756988 9.03101L0.737584 9.05038C0.737584 9.05038 0.737584 9.05038 0.71818 9.05038L0.698777 9.06975C0.679373 9.08912 0.679373 9.08912 0.659969 9.10849C0.640566 9.12786 0.621162 9.14723 0.601758 9.16661C0.582355 9.18598 0.562951 9.20535 0.543547 9.22472C0.524144 9.24409 0.50474 9.26346 0.485336 9.3022C0.465933 9.32158 0.446529 9.34095 0.427125 9.36032C0.388318 9.39906 0.368914 9.45717 0.330107 9.49592C0.310703 9.51529 0.291299 9.55403 0.291299 9.5734C0.271896 9.59277 0.271896 9.63151 0.252492 9.65088C0.233088 9.709 0.194281 9.74774 0.174877 9.80585C0.155474 9.86397 0.13607 9.92208 0.0972626 9.98019C0.0390515 10.1933 0.000244141 10.4451 0.000244141 10.6969C0.000244141 10.91 0.0390515 11.1037 0.0972626 11.2974C0.194281 11.5493 0.330107 11.8011 0.543547 12.0335C0.756988 12.2854 0.989832 12.5178 1.24208 12.7309C2.4063 13.8544 3.57052 14.9973 4.73474 16.1208C4.90938 16.2952 5.06461 16.4695 5.25864 16.6245C5.60791 16.9344 5.70493 17.3218 5.62731 17.7674C5.27805 19.7239 4.94818 21.661 4.61832 23.6175C4.54071 24.0824 4.44369 24.5666 4.57951 25.0316C4.69594 25.3996 4.88997 25.7095 5.12282 25.9614C5.18103 26.0195 5.25864 26.0776 5.31685 26.1357C5.31685 26.1357 5.31685 26.1357 5.33626 26.1357C5.37506 26.1744 5.41387 26.1938 5.45268 26.2132C5.47208 26.2326 5.49149 26.2326 5.51089 26.2519C5.5497 26.2713 5.5885 26.31 5.64672 26.3294C5.64672 26.3294 5.64672 26.3294 5.66612 26.3294C6.15121 26.5812 6.71392 26.62 7.27663 26.4456C7.39305 26.4069 7.52887 26.3488 7.6453 26.2907C9.2558 25.4577 10.8469 24.6248 12.438 23.7724C12.632 23.6756 12.8261 23.5787 13.0007 23.4625C13.0977 23.4237 13.1753 23.3656 13.2724 23.3269C13.4858 23.2107 13.6798 23.1526 13.8739 23.1526H13.9127C14.1261 23.1526 14.3202 23.2107 14.5336 23.3269C14.6112 23.3656 14.7082 23.4237 14.7858 23.4625C14.9799 23.5593 15.1739 23.6756 15.368 23.7724C15.6008 23.8887 15.8531 24.0243 16.0859 24.1405C17.5024 24.8766 18.8994 25.6321 20.3159 26.3488C20.3935 26.3875 20.4711 26.4263 20.5487 26.4456C21.092 26.6587 21.6548 26.6006 22.1592 26.3294C22.1592 26.3294 22.1593 26.3294 22.1787 26.3294C22.2757 26.2713 22.3727 26.2132 22.4697 26.1357C22.5473 26.0776 22.6055 26.0195 22.6831 25.9614C23.207 25.4771 23.4011 24.8378 23.2847 24.1017C22.9354 21.9903 22.5667 19.8788 22.1981 17.7868C22.1204 17.3218 22.2175 16.9538 22.5667 16.6245C22.5861 16.6051 22.5861 16.6051 22.6055 16.5857C22.7608 16.4308 22.9354 16.2758 23.0906 16.1208C24.2548 14.9973 25.4191 13.8544 26.5833 12.7309C26.6415 12.6728 26.6997 12.6147 26.7773 12.5372C27.1654 12.1691 27.5341 11.7817 27.7281 11.2781C27.7669 11.1618 27.8057 11.065 27.8251 10.9487V10.6776V10.2901C27.7863 10.2708 27.7669 10.2514 27.7475 10.2126Z" fill="#F3BC18"/>
</svg>
