<svg width="30" height="27" viewBox="0 0 30 27" fill="none" xmlns="http://www.w3.org/2000/svg">
<path d="M29.0102 9.93738C28.9904 9.87927 28.9705 9.82116 28.9507 9.76304C28.9309 9.70493 28.8912 9.66619 28.8714 9.60808C28.8516 9.5887 28.8516 9.54996 28.8318 9.53059C28.8119 9.51122 28.8119 9.49185 28.7921 9.45311C28.7524 9.41436 28.7326 9.35625 28.693 9.31751C28.6731 9.29814 28.6533 9.27877 28.6335 9.25939C28.6137 9.24002 28.5938 9.22065 28.574 9.18191C28.5542 9.16254 28.5344 9.14317 28.5145 9.1238C28.4947 9.10443 28.4749 9.08505 28.4551 9.06568L28.4352 9.04631L28.4154 9.02694C28.3956 9.00757 28.3758 9.00757 28.3758 8.9882C28.3559 8.96883 28.3361 8.96883 28.3163 8.94946C28.2965 8.93009 28.2568 8.91072 28.237 8.89134C28.1973 8.87197 28.1379 8.83323 28.0982 8.81386C28.0586 8.79449 27.9991 8.77512 27.9594 8.73637C27.9396 8.717 27.9 8.717 27.8801 8.69763C27.8603 8.67826 27.8207 8.67826 27.8008 8.65889C27.781 8.65889 27.7414 8.63952 27.7215 8.63952C27.6026 8.60078 27.4836 8.58141 27.3647 8.56203C25.2037 8.23273 23.0427 7.94216 20.8619 7.63222C20.3663 7.55474 20.0292 7.34165 19.8111 6.89612C19.3948 6.06316 18.9785 5.24957 18.5621 4.41662C17.9872 3.38995 17.4519 2.32453 16.9166 1.25912C16.9166 1.25912 16.9166 1.23975 16.8968 1.23975C16.8968 1.22038 16.877 1.20101 16.877 1.18164C16.6391 0.755474 16.3417 0.445536 15.9848 0.232453C15.9848 0.232453 15.965 0.232453 15.965 0.213082C15.9254 0.193711 15.9055 0.17434 15.8659 0.17434C15.6478 0.0968556 15.4099 0.0387422 15.1522 0C15.0729 0 15.0134 0 14.9341 0C14.8746 0 14.7953 0 14.716 0C14.4781 0.0387422 14.2204 0.0968556 14.0221 0.193711C13.9824 0.213082 13.9626 0.213082 13.923 0.232453C13.923 0.232453 13.9031 0.232453 13.9031 0.251825C13.5463 0.445536 13.2489 0.774845 13.011 1.20101C12.9912 1.22038 12.9912 1.25912 12.9713 1.27849C12.4361 2.32453 11.9008 3.38995 11.3655 4.45536C10.9491 5.28832 10.5328 6.1019 10.1165 6.93486C9.8984 7.3804 9.56136 7.59348 9.06573 7.67096C6.90475 7.96153 4.72394 8.27147 2.56296 8.60078C2.44401 8.62015 2.32505 8.63952 2.2061 8.67826C2.18628 8.67826 2.14662 8.69763 2.1268 8.69763C2.10697 8.69763 2.06732 8.717 2.0475 8.73637C2.02767 8.75575 1.98802 8.75575 1.96819 8.77512C1.90872 8.79449 1.86907 8.81386 1.82942 8.8526C1.78977 8.87197 1.73029 8.91071 1.69064 8.93009C1.67081 8.94946 1.63116 8.96883 1.61134 8.9882C1.59151 9.00757 1.57168 9.00757 1.55186 9.02694C1.53203 9.04631 1.51221 9.04631 1.51221 9.06568L1.49238 9.08506C1.47256 9.10443 1.47256 9.10443 1.45273 9.1238C1.43291 9.14317 1.41308 9.16254 1.39326 9.18191C1.37343 9.20128 1.3536 9.22065 1.33378 9.24002C1.31395 9.25939 1.29413 9.27877 1.2743 9.31751C1.25448 9.33688 1.23465 9.35625 1.21483 9.37562C1.17517 9.41436 1.15535 9.47248 1.1157 9.51122C1.09587 9.53059 1.07605 9.54996 1.07605 9.5887C1.05622 9.60808 1.05622 9.64682 1.0364 9.66619C1.01657 9.7243 0.97692 9.76304 0.957094 9.82116C0.937269 9.87927 0.917443 9.93738 0.897618 9.9955C0.778665 10.1892 0.739014 10.441 0.739014 10.6735C0.739014 10.8866 0.778665 11.0803 0.838141 11.274C1.0364 11.7776 1.41308 12.1651 1.80959 12.5331C1.86907 12.5912 1.94837 12.6493 2.00785 12.7075C3.19738 13.831 4.38691 14.9739 5.57644 16.0974C5.73504 16.2524 5.91347 16.4073 6.07207 16.5623C6.0919 16.5623 6.0919 16.5817 6.11173 16.601C6.46858 16.911 6.56771 17.2984 6.48841 17.7439C6.15138 19.7004 5.79452 21.6375 5.45748 23.594C5.37818 24.0589 5.27905 24.5238 5.41783 25.0081C5.53679 25.3762 5.73504 25.6861 5.97295 25.9379C6.03242 25.996 6.11172 26.0542 6.19103 26.1123C6.29015 26.1898 6.38928 26.2479 6.48841 26.306C6.48841 26.306 6.48841 26.306 6.50823 26.306C7.00387 26.5384 7.57881 26.5965 8.15375 26.4222C8.23305 26.4028 8.31236 26.3641 8.39166 26.3253C9.83892 25.6086 11.2664 24.8531 12.7136 24.117C12.9515 24.0008 13.1894 23.8652 13.4472 23.749C13.6454 23.6521 13.8437 23.5553 14.0221 23.4391C14.1014 23.4003 14.2005 23.3422 14.2798 23.3035C14.4979 23.1872 14.716 23.1291 14.9341 23.1291C15.1522 23.1291 15.3702 23.1872 15.5883 23.3035C15.6676 23.3422 15.7667 23.4003 15.846 23.4391C16.0443 23.5359 16.2426 23.6328 16.421 23.749C16.6589 23.8652 16.9166 24.0008 17.1545 24.117C18.6018 24.8531 20.0292 25.6086 21.4765 26.3253C21.5558 26.3641 21.6351 26.4028 21.7144 26.4222C22.2893 26.5965 22.8643 26.5578 23.3599 26.306C23.3599 26.306 23.3599 26.306 23.3797 26.306C23.4789 26.2479 23.578 26.1898 23.6771 26.1123C23.7564 26.0542 23.8159 25.996 23.8952 25.9379C24.1529 25.6861 24.3512 25.3762 24.4503 25.0081C24.5891 24.5238 24.49 24.0589 24.4107 23.594C24.0736 21.6375 23.7168 19.7004 23.3797 17.7439C23.3004 17.2984 23.3996 16.911 23.7564 16.601C23.7564 16.5817 23.7762 16.5817 23.7961 16.5623C23.9547 16.4073 24.1331 16.2524 24.2917 16.0974C25.4812 14.9739 26.6708 13.831 27.8603 12.7075C27.9198 12.6493 27.9991 12.5912 28.0586 12.5331C28.4551 12.1651 28.8318 11.7776 29.03 11.274C29.1093 11.0803 29.1291 10.8672 29.1291 10.6735C29.149 10.441 29.0895 10.1892 29.0102 9.93738ZM28.0189 10.8478C28.0189 10.8866 27.9991 10.9253 27.9793 10.9447C27.9793 10.9641 27.9594 10.9834 27.9594 11.0028C27.9594 11.0222 27.9396 11.0415 27.9198 11.0609C27.9 11.0997 27.8801 11.119 27.8603 11.1578C27.8603 11.1771 27.8405 11.1771 27.8405 11.1965C27.8405 11.2159 27.8207 11.2159 27.8207 11.2352C27.8008 11.2546 27.8008 11.274 27.781 11.274C27.7612 11.2934 27.7612 11.3127 27.7413 11.3127C27.7413 11.3321 27.7215 11.3321 27.7017 11.3515L27.6819 11.3708C27.662 11.3902 27.6224 11.429 27.6026 11.4483L27.5827 11.4677C27.444 11.6033 27.3052 11.7195 27.1664 11.8551C27.1268 11.8939 27.1069 11.9132 27.0673 11.952C25.8778 13.0755 24.708 14.199 23.5185 15.3226C23.4987 15.3419 23.459 15.3807 23.4392 15.4C23.3203 15.5163 23.2211 15.6131 23.1022 15.71C22.9039 15.9037 22.7453 16.0587 22.6264 16.233C22.3686 16.6204 22.2299 17.0272 22.2497 17.4921C22.2497 17.589 22.2695 17.7052 22.2695 17.8214C22.2695 17.8602 22.2893 17.8989 22.2893 17.9377C22.666 20.0297 23.0427 22.1412 23.3797 24.2333C23.3996 24.3108 23.3996 24.4076 23.3797 24.4851C23.3797 24.6401 23.3401 24.795 23.2608 24.9306C23.2608 24.95 23.241 24.95 23.241 24.9694C23.241 24.9694 23.241 24.9887 23.2211 24.9887C23.0824 25.2212 22.8841 25.3568 22.6264 25.4149H22.6065C22.329 25.4924 22.0514 25.4343 21.754 25.2793C19.8706 24.3108 17.9674 23.3422 16.1038 22.3543C15.7271 22.1606 15.3504 22.0443 14.9737 22.0443C14.9341 22.0443 14.8944 22.0443 14.8349 22.0443C14.4583 22.0637 14.0816 22.1606 13.7049 22.3543C11.8215 23.3422 9.93805 24.2914 8.05462 25.2793C7.75724 25.4343 7.47968 25.4924 7.20213 25.4149H7.1823C6.9444 25.3568 6.72632 25.2212 6.58754 24.9887C6.58754 24.9887 6.58754 24.9694 6.56771 24.9694C6.56771 24.95 6.54789 24.95 6.54789 24.9306C6.46858 24.795 6.42893 24.6401 6.42893 24.4851C6.42893 24.3882 6.42893 24.3108 6.42893 24.2333C6.78579 22.1412 7.14265 20.0297 7.51934 17.9377C7.51934 17.8989 7.53916 17.8602 7.53916 17.8214C7.55899 17.7052 7.55899 17.589 7.55899 17.4921C7.55899 17.0272 7.44003 16.601 7.1823 16.233C7.06335 16.078 6.90475 15.9037 6.70649 15.71C6.58754 15.6131 6.48841 15.4969 6.36946 15.4C6.34963 15.3807 6.30998 15.3419 6.29015 15.3226C5.10062 14.199 3.93092 13.0755 2.74139 11.952C2.70174 11.9132 2.68191 11.8939 2.64226 11.8551C2.50348 11.7195 2.3647 11.6033 2.22593 11.4677L2.2061 11.4483C2.18628 11.429 2.14662 11.3902 2.1268 11.3708L2.10697 11.3515C2.08715 11.3321 2.08715 11.3321 2.06732 11.3127C2.1268 11.3127 2.1268 11.3127 2.10697 11.2934C2.08715 11.274 2.08715 11.2546 2.06732 11.2546C2.06732 11.2352 2.0475 11.2352 2.0475 11.2159C2.0475 11.1965 2.02767 11.1965 2.02767 11.1771C2.00785 11.1384 1.98802 11.119 1.96819 11.0803C1.94837 11.0609 1.94837 11.0415 1.92854 11.0222C1.90872 11.0028 1.90872 10.9834 1.90872 10.9641C1.88889 10.9253 1.88889 10.8866 1.86907 10.8672C1.84924 10.751 1.82942 10.6347 1.86907 10.4991C1.86907 10.4604 1.88889 10.4023 1.90872 10.3635C1.90872 10.3442 1.90872 10.3442 1.92854 10.3248C1.92854 10.3054 1.92854 10.3054 1.94837 10.2861C1.94837 10.2667 1.96819 10.228 1.98802 10.2086C2.00785 10.1892 2.00785 10.1505 2.02767 10.1311C2.0475 10.1117 2.0475 10.0924 2.06732 10.0536C2.06732 10.0342 2.08715 10.0342 2.08715 10.0149C2.08715 9.9955 2.10697 9.9955 2.10697 9.97613C2.1268 9.93738 2.16645 9.91801 2.18628 9.89864C2.18628 9.89864 2.2061 9.87927 2.22593 9.87927C2.24575 9.87927 2.24575 9.8599 2.26558 9.8599C2.2854 9.8599 2.2854 9.84053 2.30523 9.84053C2.32505 9.84053 2.32505 9.82116 2.34488 9.82116C2.44401 9.76304 2.54313 9.70493 2.66209 9.68556C2.68191 9.68556 2.72156 9.66619 2.76121 9.66619C2.82069 9.64682 2.86034 9.64682 2.91982 9.62745C3.73266 9.51122 4.54551 9.39499 5.35836 9.27877C6.70649 9.08506 8.05462 8.89134 9.42258 8.69763C9.50189 8.67826 9.60101 8.67826 9.68032 8.63952C10.176 8.50392 10.5725 8.2521 10.8897 7.86467C10.9888 7.72908 11.0681 7.59348 11.1474 7.43851C12.099 5.54014 13.0507 3.66114 14.0221 1.76277C14.0816 1.64655 14.1411 1.54969 14.2204 1.45283C14.26 1.29787 14.4186 1.18164 14.6169 1.12352C14.6565 1.10415 14.6962 1.10415 14.7358 1.10415C14.7556 1.10415 14.7556 1.10415 14.7755 1.10415C14.7953 1.10415 14.8151 1.10415 14.8349 1.10415C14.8548 1.10415 14.8746 1.10415 14.8944 1.10415H14.9142C14.9341 1.10415 14.9539 1.10415 14.9737 1.10415H14.9936C15.0134 1.10415 15.0332 1.10415 15.053 1.10415C15.0729 1.10415 15.0927 1.10415 15.1125 1.10415C15.1323 1.10415 15.1323 1.10415 15.1522 1.10415C15.1918 1.10415 15.2315 1.12352 15.2711 1.12352C15.4495 1.18164 15.6081 1.27849 15.7271 1.45283C15.8064 1.54969 15.8659 1.64655 15.9253 1.76277C16.877 3.66114 17.8484 5.54014 18.8 7.43851C18.8793 7.59348 18.9587 7.72908 19.0578 7.86467C19.375 8.2521 19.7715 8.50392 20.2671 8.63952C20.3464 8.65889 20.4257 8.67826 20.5249 8.69763C21.873 8.89134 23.2211 9.08506 24.5891 9.27877C25.4019 9.39499 26.2148 9.49185 27.0276 9.62745C27.0871 9.62745 27.1268 9.64682 27.1862 9.66619C27.2259 9.66619 27.2457 9.68556 27.2854 9.68556C27.4043 9.7243 27.5233 9.76304 27.6026 9.82116C27.6224 9.82116 27.6224 9.84053 27.6422 9.84053C27.662 9.84053 27.662 9.8599 27.6819 9.8599C27.7017 9.8599 27.7017 9.87927 27.7215 9.87927C27.7414 9.87927 27.7414 9.89864 27.7612 9.89864C27.781 9.91801 27.8207 9.95676 27.8405 9.97613C27.8405 9.9955 27.8603 9.9955 27.8603 10.0149C27.8603 10.0342 27.8801 10.0342 27.8801 10.0536C27.9 10.073 27.9 10.0924 27.9198 10.1311C27.9396 10.1505 27.9396 10.1698 27.9594 10.2086C27.9793 10.228 27.9793 10.2667 27.9991 10.2861C27.9991 10.3054 28.0189 10.3054 28.0189 10.3248C28.0189 10.3442 28.0189 10.3442 28.0387 10.3635C28.0586 10.4023 28.0586 10.441 28.0784 10.4991C28.0387 10.6154 28.0387 10.7316 28.0189 10.8478Z" fill="#6D6D6D"/>
<path d="M1.53296 9.00648L1.55359 8.98633C1.53296 9.00648 1.51233 9.00648 1.51233 9.02664C1.51233 9.02664 1.51233 9.02664 1.53296 9.00648Z" fill="#6D6D6D"/>
<path d="M28.3776 9.02664C28.3569 9.00648 28.3363 9.00648 28.3363 8.98633L28.3569 9.00648C28.3776 9.02664 28.3776 9.02664 28.3776 9.02664Z" fill="#6D6D6D"/>
<path d="M2.00808 12.7255C1.75035 12.493 1.51245 12.2605 1.29437 12.0281C1.07628 11.7956 0.937506 11.5438 0.838379 11.292C1.03663 11.7956 1.41332 12.1831 1.80983 12.5511C1.88913 12.6092 1.94861 12.6673 2.00808 12.7255Z" fill="#6D6D6D"/>
<path d="M6.1117 16.6399C5.93328 16.4849 5.75485 16.3106 5.57642 16.1362C5.73502 16.2912 5.91345 16.4462 6.07205 16.6011C6.09188 16.6205 6.1117 16.6205 6.1117 16.6399Z" fill="#6D6D6D"/>
<path d="M6.50838 26.3456C6.32995 26.2487 6.15152 26.1325 5.99292 25.9775C6.0524 26.0357 6.1317 26.0938 6.211 26.1519C6.31013 26.2294 6.40926 26.2875 6.50838 26.3456Z" fill="#6D6D6D"/>
<path d="M6.34961 15.3589C6.36979 15.3786 6.41015 15.418 6.43033 15.4378C6.41015 15.3983 6.38997 15.3786 6.34961 15.3589Z" fill="#6D6D6D"/>
<path d="M6.76623 15.7509C6.64728 15.654 6.54815 15.5378 6.4292 15.4409C6.54815 15.5378 6.66711 15.654 6.76623 15.7509Z" fill="#6D6D6D"/>
<path d="M7.22208 25.454C6.98418 25.3959 6.7661 25.2603 6.62732 25.0278C6.6868 25.1247 6.78592 25.2215 6.88505 25.299C7.004 25.3765 7.10313 25.4346 7.22208 25.454Z" fill="#6D6D6D"/>
<path d="M7.5988 17.8608C7.55915 18.132 7.5195 18.4613 7.4402 18.8488C7.12299 20.6309 6.82561 22.4324 6.48858 24.2146C6.46875 24.3308 6.46875 24.4276 6.46875 24.5245C6.46875 24.4276 6.46875 24.3502 6.46875 24.2727C6.82561 22.1806 7.18247 20.0691 7.55915 17.9771C7.57898 17.9383 7.5988 17.8996 7.5988 17.8608Z" fill="#6D6D6D"/>
<path d="M7.61863 17.5311C7.61863 17.0662 7.49967 16.64 7.24194 16.272C7.53933 16.6594 7.65828 17.0081 7.61863 17.5311Z" fill="#6D6D6D"/>
<path d="M2.02767 11.1755C2.00785 11.1368 1.98802 11.1174 1.9682 11.0787C1.94837 11.0593 1.94837 11.0399 1.92855 11.0206C1.92855 11.0012 1.90872 10.9818 1.90872 10.9624C1.88889 10.9237 1.88889 10.885 1.86907 10.8656C1.84924 10.7881 1.84924 10.7106 1.84924 10.6138C1.84924 10.7881 1.90872 10.9818 2.02767 11.1755Z" fill="#6D6D6D"/>
<path d="M9.62103 8.63721C9.48226 8.67595 9.34348 8.69532 9.18487 8.71469C7.08337 9.00526 5.00169 9.29583 2.90019 9.60576C2.54333 9.66388 2.22612 9.76073 2.00804 10.09C1.94856 10.1869 1.90891 10.2838 1.86926 10.3806C1.86926 10.3612 1.86926 10.3612 1.88909 10.3419C1.88909 10.3225 1.88909 10.3225 1.90891 10.3031C1.90891 10.2838 1.90891 10.2838 1.92874 10.2644C1.92874 10.245 1.94856 10.2063 1.96839 10.1869C1.98822 10.1675 1.98822 10.1288 2.00804 10.1094C2.02787 10.09 2.02787 10.0707 2.04769 10.0319C2.04769 10.0126 2.06752 10.0126 2.06752 9.99319C2.06752 9.97381 2.08734 9.97381 2.08734 9.95444C2.10717 9.9157 2.14682 9.89633 2.16665 9.87696C2.16665 9.87696 2.18647 9.85759 2.2063 9.85759C2.2063 9.85759 2.22612 9.83822 2.24595 9.83822C2.26577 9.83822 2.26577 9.81885 2.2856 9.81885C2.30542 9.81885 2.30542 9.79947 2.32525 9.79947C2.42438 9.74136 2.5235 9.68325 2.64246 9.66388C2.66228 9.66388 2.70193 9.64451 2.74159 9.64451C2.80106 9.62513 2.84071 9.62513 2.90019 9.60576C3.71303 9.48954 4.52588 9.37331 5.33873 9.25708C6.68686 9.06337 8.03499 8.86966 9.40295 8.67595C9.44261 8.67595 9.52191 8.65658 9.62103 8.63721Z" fill="#6D6D6D"/>
<path d="M12.9715 1.25928C12.4362 2.32469 11.9009 3.3901 11.3656 4.45551C11.9009 3.3901 12.4362 2.32469 12.9715 1.25928Z" fill="#6D6D6D"/>
<path d="M13.4474 23.7876C11.8217 24.6399 10.1762 25.4729 8.55051 26.3058C8.43156 26.364 8.29278 26.4221 8.17383 26.4608C8.25313 26.4414 8.33243 26.4027 8.41173 26.364C9.859 25.6472 11.2864 24.8918 12.7337 24.1556C12.9716 24.0394 13.2095 23.9232 13.4474 23.7876Z" fill="#6D6D6D"/>
<path d="M14.1408 1.45312C14.121 1.4725 14.121 1.4725 14.1012 1.49187C14.0219 1.62747 13.9624 1.74369 13.9029 1.87929C12.9711 3.71955 12.0393 5.54043 11.1273 7.38069C11.048 7.55503 10.9489 7.71 10.83 7.84559C10.9291 7.71 11.0084 7.5744 11.0877 7.41943C12.0393 5.52106 12.9909 3.64206 13.9624 1.74369C14.002 1.64684 14.0615 1.54998 14.1408 1.45312Z" fill="#6D6D6D"/>
<path d="M14.9343 23.168C14.7162 23.168 14.518 23.2261 14.2999 23.3423C14.2008 23.3811 14.1215 23.4392 14.0223 23.4779C14.1016 23.4392 14.2008 23.3811 14.2801 23.3423C14.518 23.2261 14.7361 23.168 14.9343 23.168Z" fill="#6D6D6D"/>
<path d="M14.9342 0C14.8747 0 14.7954 0 14.7161 0C14.4782 0.0387422 14.2205 0.0968556 14.0222 0.193711C14.2998 0.0581134 14.5972 0 14.9342 0Z" fill="#6D6D6D"/>
<path d="M15.2715 1.12395C15.2316 1.10449 15.1918 1.10449 15.152 1.10449C15.1918 1.10449 15.2316 1.12395 15.2715 1.12395Z" fill="#6D6D6D"/>
<path d="M15.7469 1.45089C15.6279 1.29592 15.4693 1.1797 15.2909 1.12158C15.4693 1.1797 15.6081 1.29592 15.7469 1.45089Z" fill="#6D6D6D"/>
<path d="M16.877 1.18161C16.6391 0.755442 16.3417 0.445504 15.9849 0.232422C16.3615 0.445504 16.6589 0.774813 16.877 1.18161Z" fill="#6D6D6D"/>
<path d="M16.4411 23.788C16.2429 23.6911 16.0446 23.5943 15.8662 23.478C16.0446 23.5943 16.2429 23.6911 16.4411 23.788Z" fill="#6D6D6D"/>
<path d="M20.2673 8.63959C19.7519 8.52336 19.3554 8.25217 19.058 7.86475C19.3752 8.25217 19.7717 8.50399 20.2673 8.63959Z" fill="#6D6D6D"/>
<path d="M22.2896 17.8606C22.2698 17.7443 22.2698 17.6475 22.2698 17.5312C22.2698 17.6281 22.2698 17.7443 22.2896 17.8606Z" fill="#6D6D6D"/>
<path d="M23.3602 26.3457C22.8448 26.6169 22.2698 26.675 21.7147 26.4619C22.2897 26.6556 22.8844 26.5975 23.3602 26.3457Z" fill="#6D6D6D"/>
<path d="M22.6465 25.4726C22.3689 25.5501 22.0914 25.492 21.794 25.337C19.9106 24.3685 18.0073 23.3999 16.1437 22.412C15.767 22.2183 15.3904 22.1021 15.0137 22.1021C15.3904 22.1021 15.767 22.2183 16.1437 22.412C18.0073 23.3999 19.8907 24.3491 21.7742 25.3177C22.0914 25.4726 22.3888 25.5114 22.6465 25.4726Z" fill="#6D6D6D"/>
<path d="M23.1219 15.7485C22.9237 15.9422 22.7651 16.0972 22.6461 16.2716C22.7452 16.136 22.8444 16.0197 22.9832 15.8841C23.0228 15.826 23.0625 15.7873 23.1219 15.7485Z" fill="#6D6D6D"/>
<path d="M23.4194 24.5215C23.4194 24.6765 23.3797 24.8314 23.3004 24.967C23.3004 24.9476 23.3202 24.9476 23.3202 24.9283C23.3599 24.8121 23.3995 24.6765 23.4194 24.5215Z" fill="#6D6D6D"/>
<path d="M23.8953 25.977C24.1531 25.7252 24.3513 25.4153 24.4504 25.0472C24.5892 24.5629 24.4901 24.098 24.4108 23.6331C24.0738 21.6766 23.7169 19.7395 23.3799 17.783C23.3006 17.3375 23.3997 16.9501 23.7566 16.6401C23.4195 16.9694 23.3006 17.3375 23.3799 17.8024C23.7566 19.9139 24.1332 22.0253 24.4901 24.1174C24.6289 24.8729 24.4306 25.4927 23.8953 25.977Z" fill="#6D6D6D"/>
<path d="M27.6817 8.65796C27.5628 8.61922 27.4438 8.59985 27.3249 8.58048C25.1639 8.25117 23.0029 7.9606 20.8221 7.65066C20.3265 7.57318 19.9894 7.3601 19.7713 6.91456C19.355 6.0816 18.9387 5.26802 18.5223 4.43506C18.6215 4.62877 18.7206 4.84185 18.8197 5.03556C19.1369 5.65544 19.4541 6.25594 19.7515 6.87582C19.9696 7.34073 20.3265 7.55381 20.8419 7.63129C22.9831 7.92186 25.1044 8.2318 27.2257 8.54174C27.3843 8.58048 27.5429 8.61922 27.6817 8.65796Z" fill="#6D6D6D"/>
<path d="M27.5827 11.4883C27.4439 11.6239 27.3052 11.7401 27.1664 11.8757C27.3052 11.7401 27.4439 11.6239 27.5827 11.4883Z" fill="#6D6D6D"/>
<path d="M28.3563 9.00634C28.3768 9.00634 28.3768 9.02636 28.3972 9.02636C28.3768 9.00634 28.3563 9.00634 28.3563 8.98633C28.3358 9.00634 28.3563 9.00634 28.3563 9.00634Z" fill="#6D6D6D"/>
<path d="M28.4154 9.06397C28.4154 9.04443 28.3954 9.04443 28.4154 9.06397C28.3954 9.04443 28.4154 9.04443 28.4154 9.06397Z" fill="#6D6D6D"/>
<path d="M28.4949 9.14111C28.5155 9.16127 28.5155 9.16127 28.5361 9.18143C28.5361 9.16127 28.5155 9.16127 28.4949 9.14111C28.5155 9.14111 28.4949 9.14111 28.4949 9.14111Z" fill="#6D6D6D"/>
<path d="M29.1491 10.3034V10.6714C29.1491 10.4196 29.1094 10.1872 29.0103 9.91596C28.9905 9.85784 28.9707 9.79973 28.9508 9.74162C28.931 9.6835 28.8914 9.64476 28.8715 9.58665C28.8517 9.56728 28.8517 9.52854 28.8319 9.50916C28.8121 9.48979 28.8121 9.47042 28.7922 9.43168C28.7526 9.39294 28.7328 9.33482 28.6931 9.29608C28.6733 9.27671 28.6534 9.25734 28.6336 9.23797C28.6138 9.2186 28.594 9.19923 28.5741 9.16048L28.5543 9.14111C28.8121 9.41231 28.9905 9.76099 29.1094 10.1678C29.1094 10.2453 29.1293 10.2646 29.1491 10.3034Z" fill="#6D6D6D"/>
<path d="M29.1491 10.6719V10.9431C29.1292 11.0593 29.0896 11.1755 29.0499 11.2724C29.1094 11.098 29.1491 10.885 29.1491 10.6719Z" fill="#6D6D6D"/>
</svg>
