<svg width="38" height="38" viewBox="0 0 38 38" fill="none" xmlns="http://www.w3.org/2000/svg">
<g clip-path="url(#clip0_373_1010)">
<path d="M18.9807 38C13.222 38 7.47614 38 1.7174 38C0.787739 38 0.232523 37.699 0.0517556 37.0634C-0.0128043 36.8627 -0.0128043 36.6174 0.0388436 36.4056C0.490763 34.5435 0.942682 32.6814 1.44625 30.8304C2.4663 27.0171 6.36571 24.1626 10.9107 24.0957C16.3079 24.0065 21.7051 24.0065 27.1024 24.0957C31.8669 24.1738 35.7405 27.1397 36.7218 31.243C37.1091 32.8932 37.5223 34.5323 37.9355 36.1714C38.2325 37.3533 37.6385 38 36.244 38C30.4853 38 24.7265 38 18.9807 38ZM24.8557 26.638C20.9433 26.638 17.0568 26.638 13.1703 26.638C13.1703 29.5816 13.1703 32.503 13.1703 35.4466C17.0697 35.4466 20.9433 35.4466 24.8557 35.4466C24.8557 32.503 24.8557 29.5705 24.8557 26.638ZM27.8512 26.6714C27.8512 29.6262 27.8512 32.5253 27.8512 35.4355C30.1754 35.4355 32.4608 35.4355 34.7979 35.4355C34.4105 33.9637 34.1136 32.5141 33.6229 31.1092C32.7707 28.645 30.7694 27.2289 27.8512 26.6714ZM10.2006 26.7383C7.99262 26.8833 5.56517 28.3997 4.7388 30.3956C4.06738 32.0124 3.70585 33.7295 3.18937 35.4355C5.60391 35.4355 7.88933 35.4355 10.2006 35.4355C10.2006 32.5141 10.2006 29.6262 10.2006 26.7383Z" fill="white"/>
<path d="M17.6636 10.1356C15.0167 10.1356 12.3826 10.1356 9.73568 10.1356C8.58651 10.1356 7.99256 9.63383 8.00547 8.6526C8.01839 7.51528 7.928 6.35565 8.14751 5.24063C8.74146 2.16316 11.7112 0.0334667 15.3395 0.0111662C19.665 -0.0111343 24.0034 1.59646e-05 28.3289 0.0111662C29.4523 0.0111662 30.0204 0.512927 30.0204 1.483C30.0204 3.04403 30.0204 4.59392 30.0204 6.15495C30.0075 8.50765 28.1223 10.1356 25.3979 10.1356C22.8155 10.1467 20.246 10.1356 17.6636 10.1356ZM11.014 7.58218C11.1173 7.59333 11.2206 7.60448 11.3368 7.60448C16.0496 7.60448 20.7754 7.60448 25.4883 7.60448C26.4954 7.60448 27.0765 7.10272 27.0894 6.233C27.1023 5.10683 27.0894 3.98065 27.0894 2.85448C27.0894 2.76528 27.0636 2.67607 27.0506 2.56457C26.9215 2.55342 26.8311 2.55342 26.7408 2.55342C22.9575 2.55342 19.1743 2.55342 15.3911 2.56457C14.965 2.56457 14.5131 2.60917 14.1128 2.72068C11.6208 3.41199 10.6653 5.20718 11.014 7.58218Z" fill="white"/>
<path d="M27.6963 12.5217C27.8512 13.9378 27.9545 15.287 27.6575 16.625C27.1669 18.9554 25.5787 20.483 22.9576 21.1297C20.1815 21.8099 17.3796 21.8099 14.6422 21.0071C12.1115 20.2712 10.7299 18.6655 10.3167 16.4132C10.0843 15.142 10.1747 13.8598 10.3296 12.5217C11.298 12.6221 12.2406 12.7113 13.2478 12.8116C13.2219 13.1573 13.1574 13.4695 13.1703 13.7817C13.1961 14.5845 13.1703 15.3985 13.2994 16.1902C13.5189 17.4724 14.4357 18.2976 15.856 18.6432C17.9606 19.1561 20.0911 19.1561 22.1958 18.6321C23.9518 18.1972 24.8298 17.0376 24.8944 15.2089C24.9202 14.4284 24.8944 13.6591 24.8944 12.8116C25.7595 12.7336 26.7021 12.6332 27.6963 12.5217Z" fill="white"/>
</g>
<defs>
<clipPath id="clip0_373_1010">
<rect width="38" height="38" fill="white"/>
</clipPath>
</defs>
</svg>
