<svg width="89" height="89" viewBox="0 0 89 89" fill="none" xmlns="http://www.w3.org/2000/svg">
<g clip-path="url(#clip0_373_1016)">
<path d="M44.4549 88.9999C30.9673 88.9999 17.51 88.9999 4.0224 88.9999C1.84503 88.9999 0.544662 88.2948 0.121285 86.8063C-0.0299215 86.3362 -0.0299215 85.7617 0.0910433 85.2655C1.14949 80.9043 2.20793 76.5431 3.38734 72.208C5.77639 63.2766 14.9092 56.5912 25.5541 56.4345C38.195 56.2256 50.8358 56.2256 63.4766 56.4345C74.6356 56.6173 83.708 63.5639 86.0063 73.1742C86.9136 77.0393 87.8813 80.8782 88.849 84.7171C89.5446 87.4852 88.1535 88.9999 84.8874 88.9999C71.3998 88.9999 57.9122 88.9999 44.4549 88.9999ZM58.2147 62.3887C49.0516 62.3887 39.949 62.3887 30.8464 62.3887C30.8464 69.2831 30.8464 76.1252 30.8464 83.0196C39.9792 83.0196 49.0516 83.0196 58.2147 83.0196C58.2147 76.1252 58.2147 69.257 58.2147 62.3887ZM65.2306 62.4671C65.2306 69.3876 65.2306 76.1775 65.2306 82.9935C70.674 82.9935 76.0267 82.9935 81.5004 82.9935C80.5932 79.5463 79.8976 76.1513 78.7484 72.8609C76.7525 67.0894 72.0651 63.7728 65.2306 62.4671ZM23.8909 62.6238C18.7196 62.9633 13.0343 66.5149 11.0988 71.1895C9.5263 74.9762 8.67955 78.9979 7.4699 82.9935C13.125 82.9935 18.4777 82.9935 23.8909 82.9935C23.8909 76.1513 23.8909 69.3876 23.8909 62.6238Z" fill="#F8F8F8"/>
<path d="M41.37 23.7385C35.1706 23.7385 29.0013 23.7385 22.8019 23.7385C20.1104 23.7385 18.7193 22.5633 18.7496 20.2652C18.7798 17.6014 18.5681 14.8855 19.0822 12.274C20.4733 5.06621 27.4288 0.0782347 35.9266 0.0260047C46.0574 -0.0262254 56.2184 -0.000110378 66.3493 0.0260047C68.9802 0.0260047 70.3109 1.20118 70.3109 3.47319C70.3109 7.1293 70.3109 10.7593 70.3109 14.4154C70.2806 19.9257 65.8654 23.7385 59.4845 23.7385C53.4362 23.7646 47.4183 23.7385 41.37 23.7385ZM25.7958 17.7581C26.0377 17.7842 26.2796 17.8103 26.5518 17.8103C37.5899 17.8103 48.6581 17.8103 59.6962 17.8103C62.055 17.8103 63.4159 16.6352 63.4461 14.5982C63.4763 11.9606 63.4461 9.32296 63.4461 6.68534C63.4461 6.47642 63.3856 6.2675 63.3554 6.00635C63.053 5.98023 62.8413 5.98023 62.6296 5.98023C53.7689 5.98023 44.9082 5.98023 36.0476 6.00635C35.0496 6.00635 33.9912 6.11081 33.0537 6.37196C27.2171 7.99109 24.9793 12.1956 25.7958 17.7581Z" fill="#F8F8F8"/>
<path d="M64.8675 29.3271C65.2304 32.6438 65.4723 35.8037 64.7768 38.9375C63.6276 44.3955 59.9079 47.9733 53.7689 49.488C47.2671 51.081 40.7047 51.081 34.2936 49.2007C28.3663 47.4771 25.1305 43.7166 24.1628 38.4413C23.6184 35.4642 23.8301 32.461 24.193 29.3271C26.4611 29.5622 28.6687 29.7711 31.0275 30.0061C30.967 30.8157 30.8158 31.5469 30.8461 32.2782C30.9066 34.1584 30.8461 36.0648 31.1485 37.919C31.6626 40.9222 33.8097 42.8548 37.1363 43.6643C42.0656 44.8656 47.0554 44.8656 51.9847 43.6382C56.0975 42.6197 58.1539 39.9038 58.3051 35.6209C58.3656 33.7928 58.3051 31.9909 58.3051 30.0061C60.3313 29.8233 62.5389 29.5883 64.8675 29.3271Z" fill="#F8F8F8"/>
</g>
<defs>
<clipPath id="clip0_373_1016">
<rect width="89" height="89" fill="white"/>
</clipPath>
</defs>
</svg>
