<svg width="35" height="33" viewBox="0 0 35 33" fill="none" xmlns="http://www.w3.org/2000/svg">
<path d="M17.5003 29.8365C20.8571 29.8365 23.9323 28.603 26.286 26.5732C29.1494 24.1043 30.9693 20.4529 30.9693 16.3675C30.9693 8.92623 24.9415 2.89844 17.5003 2.89844C10.059 2.89844 4.03125 8.92623 4.03125 16.3675C4.03125 20.6328 6.01552 24.4415 9.11 26.9049C11.4091 28.7379 14.3337 29.8365 17.5003 29.8365Z" fill="#C669FF" stroke="#1F2027" stroke-width="3"/>
<path d="M25.7466 26.0394C23.6484 27.8428 20.9257 28.9376 17.9432 28.9376C15.1292 28.9376 12.5328 27.9621 10.4907 26.3341C10.4696 26.2429 10.4766 26.1516 10.5258 26.0604C11.2977 24.4394 12.5538 23.4008 14.2941 22.9657C14.4275 22.9306 14.5678 22.9166 14.7012 22.8815C14.9678 22.8254 15.1994 22.9025 15.4169 23.064C16.2941 23.6815 17.2696 23.9552 18.3432 23.9131C19.1643 23.878 19.9572 23.6815 20.6169 23.1903C21.1081 22.8254 21.5853 22.8534 22.1116 23.0008C22.4274 23.092 22.7221 23.1973 23.0028 23.3236C23.466 23.5341 23.88 23.8008 24.2589 24.1236C24.7432 24.5376 25.1572 25.0359 25.5081 25.6183C25.6274 25.8078 25.7116 25.9341 25.7466 26.0394Z" fill="white"/>
<path d="M26.7359 12.1875C26.7078 12.2787 26.6447 12.3629 26.5675 12.4261C26.5043 12.4752 26.4342 12.5103 26.357 12.5453C25.5008 12.9734 24.6447 13.4015 23.7816 13.8295C23.4938 13.9769 23.1991 14.1173 22.9114 14.2646C21.3746 15.0295 19.8377 15.7944 18.3009 16.5664C18.1746 16.6295 18.0623 16.6576 17.943 16.6576C17.8237 16.6576 17.6974 16.6225 17.5711 16.5593C16.1325 15.8436 14.701 15.1208 13.2624 14.412C12.0343 13.8015 10.8063 13.191 9.57821 12.5804C9.38172 12.4822 9.2133 12.3699 9.12207 12.1664V11.8857C9.22733 11.6752 9.40277 11.5629 9.61329 11.4576C12.2729 10.1384 14.9255 8.81908 17.5781 7.49278C17.7044 7.42962 17.8307 7.39453 17.95 7.39453C18.0764 7.39453 18.1957 7.42962 18.329 7.49278C21.0097 8.83311 23.6903 10.1664 26.371 11.4997C26.4412 11.5348 26.5184 11.5699 26.5815 11.619C26.7429 11.7594 26.8061 11.991 26.7359 12.1875Z" fill="white"/>
<path d="M27.0092 19.9039C27.0092 20.1495 26.8548 20.3109 26.6092 20.3109C26.3706 20.3109 26.125 20.3109 25.8864 20.3109C25.6408 20.3109 25.3882 20.3109 25.1426 20.3109C24.8969 20.3109 24.7355 20.1565 24.7355 19.9109C24.7355 19.6653 24.7285 19.4197 24.7355 19.174C24.7496 18.6969 24.9741 18.346 25.4092 18.1425C25.4864 18.1074 25.5004 18.0583 25.5004 17.9881C25.5004 16.76 25.5004 15.539 25.4934 14.3109C25.4934 14.3039 25.4934 14.3039 25.4934 14.2969C25.5075 14.2899 25.5145 14.2829 25.5285 14.2829C25.7741 14.1636 26.0127 14.0373 26.2583 13.918V18.1004C26.5039 18.1986 26.7004 18.346 26.8408 18.5705C26.9601 18.76 27.0162 18.9635 27.0162 19.1811C27.0092 19.4197 27.0092 19.6583 27.0092 19.9039Z" fill="white"/>
<path d="M23.5089 18.1258C23.1861 19.6416 22.2177 20.996 20.7862 21.7679C18.8002 22.8346 16.8143 22.7293 14.9617 21.4381C13.474 20.3995 12.688 18.9188 12.6529 17.1083C12.6459 16.5469 12.702 16.0276 12.8284 15.5364C14.3512 16.2943 15.7125 16.975 17.0388 17.6346C17.3406 17.782 17.6423 17.8592 17.9441 17.8592C18.2458 17.8592 18.5476 17.789 18.8353 17.6416C20.3441 16.8838 21.8669 16.1259 23.3686 15.375C23.4177 15.5504 23.4668 15.7259 23.5019 15.9083C23.516 15.9785 23.53 16.0417 23.544 16.1118C23.6633 16.7925 23.6423 17.4732 23.5089 18.1258Z" fill="white"/>
</svg>
