<svg width="14" height="14" viewBox="0 0 14 14" fill="none" xmlns="http://www.w3.org/2000/svg">
<path fill-rule="evenodd" clip-rule="evenodd" d="M7 1.27273C4.14847 1.27273 2 3.35559 2 5.72727V6.79739C2.06587 6.79109 2.13258 6.78788 2.2 6.78788H4.6C4.93137 6.78788 5.2 7.07279 5.2 7.42424V13.3636C5.2 13.7151 4.93137 14 4.6 14H2.2C0.984974 14 0 12.9553 0 11.6667V9.12121C0 8.39663 0.311399 7.74919 0.8 7.32122V5.72727C0.8 2.47569 3.66594 0 7 0C10.3341 0 13.2 2.47569 13.2 5.72727V7.32122C13.6886 7.74919 14 8.39663 14 9.12121V11.6667C14 12.9553 13.015 14 11.8 14H9.4C9.06863 14 8.8 13.7151 8.8 13.3636V7.42424C8.8 7.07279 9.06863 6.78788 9.4 6.78788H11.8C11.8674 6.78788 11.9341 6.79109 12 6.79739V5.72727C12 3.35559 9.85153 1.27273 7 1.27273ZM2.2 8.06061C1.64772 8.06061 1.2 8.53546 1.2 9.12121V11.6667C1.2 12.2524 1.64772 12.7273 2.2 12.7273H4V8.06061H2.2ZM12.8 9.12121C12.8 8.53546 12.3523 8.06061 11.8 8.06061H10V12.7273H11.8C12.3523 12.7273 12.8 12.2524 12.8 11.6667V9.12121Z" fill="#5B5B5B"/>
</svg>
