<svg width="15" height="15" viewBox="0 0 15 15" fill="none" xmlns="http://www.w3.org/2000/svg">
<path fill-rule="evenodd" clip-rule="evenodd" d="M7.6377 1.87429C4.78617 1.87429 2.6377 3.95715 2.6377 6.32884V7.39895C2.70357 7.39266 2.77028 7.38944 2.8377 7.38944H5.2377C5.56907 7.38944 5.8377 7.67435 5.8377 8.0258V13.9652C5.8377 14.3167 5.56907 14.6016 5.2377 14.6016H2.8377C1.62267 14.6016 0.637695 13.5569 0.637695 12.2682V9.72277C0.637695 8.9982 0.949094 8.35075 1.4377 7.92278V6.32884C1.4377 3.07725 4.30363 0.601562 7.6377 0.601562C10.9718 0.601562 13.8377 3.07725 13.8377 6.32884V7.92278C14.3263 8.35075 14.6377 8.9982 14.6377 9.72277V12.2682C14.6377 13.5569 13.6527 14.6016 12.4377 14.6016H10.0377C9.70632 14.6016 9.4377 14.3167 9.4377 13.9652V8.0258C9.4377 7.67435 9.70632 7.38944 10.0377 7.38944H12.4377C12.5051 7.38944 12.5718 7.39266 12.6377 7.39895V6.32884C12.6377 3.95715 10.4892 1.87429 7.6377 1.87429ZM2.8377 8.66217C2.28541 8.66217 1.8377 9.13702 1.8377 9.72277V12.2682C1.8377 12.854 2.28541 13.3288 2.8377 13.3288H4.6377V8.66217H2.8377ZM13.4377 9.72277C13.4377 9.13702 12.99 8.66217 12.4377 8.66217H10.6377V13.3288H12.4377C12.99 13.3288 13.4377 12.854 13.4377 12.2682V9.72277Z" fill="#651DBD"/>
</svg>
