<svg width="16" height="17" viewBox="0 0 16 17" fill="none" xmlns="http://www.w3.org/2000/svg">
<path d="M15.3254 10.7365C14.6238 12.9128 12.6204 14.4785 10.347 14.6479C10.0558 14.6697 9.76297 14.6757 9.47124 14.6887C9.4707 14.6849 9.4707 14.6811 9.4707 14.6779C9.31395 14.6779 9.1572 14.6855 9.00099 14.6762C8.56613 14.6506 8.28256 14.8467 8.10241 15.2388C7.81831 15.8586 7.33173 16.2441 6.67426 16.4151C6.21599 16.5344 5.76697 16.4925 5.33645 16.3084C2.43606 15.0683 0.68244 12.9014 0.138174 9.78893C-0.138313 8.20903 -0.0120432 6.64602 0.627469 5.16469C1.54075 3.04944 3.14415 1.7108 5.36693 1.11773C7.1113 0.652088 8.85894 0.680952 10.5837 1.18526C13.1238 1.9281 14.7278 3.60548 15.3988 6.1684C15.7989 7.6971 15.813 9.22472 15.3254 10.7365Z" fill="url(#paint0_radial_3095_10857)"/>
<path d="M12.3342 6.46717L11.2584 7.00933C10.1406 7.57226 8.9504 8.17214 7.76569 8.77479L7.74031 8.78818C7.72924 8.78218 7.71631 8.77525 7.70477 8.76971C6.18686 7.99758 4.63803 7.21945 3.13904 6.46579C4.97632 5.53942 6.38624 4.82686 7.70339 4.16002L7.70708 4.15817C7.72647 4.14894 7.74908 4.14894 7.76846 4.15817L7.77031 4.1591C8.57749 4.56964 9.3976 4.98341 10.1028 5.339L10.5791 5.57959C11.1643 5.87468 11.749 6.17024 12.3342 6.46717Z" fill="white"/>
<path d="M10.7609 8.93462C10.7572 9.0884 10.7503 9.23664 10.7291 9.37841C10.6889 9.65411 10.5394 9.90348 10.262 10.1598C9.88268 10.502 9.40917 10.7306 8.81474 10.8603C7.81234 11.0774 6.90224 11.0113 6.03229 10.6567C5.57539 10.4706 5.23618 10.224 4.99343 9.90071C4.8282 9.68181 4.74652 9.47678 4.73683 9.25234C4.72944 9.09764 4.73129 8.94293 4.73452 8.77992L4.73683 8.65893V8.64923C4.73313 8.57626 4.73129 8.50284 4.73221 8.42803L5.00127 8.56287C5.69815 8.91292 6.41857 9.27451 7.12238 9.63286C7.53082 9.84529 7.94479 9.84529 8.35231 9.63425C9.16642 9.21909 9.98237 8.8104 10.7591 8.42249C10.7582 8.44742 10.7577 8.47282 10.7559 8.4973L10.7609 8.93462Z" fill="white"/>
<path d="M12.7868 10.8941V11.4728C12.7868 11.5305 12.7748 11.5804 12.7517 11.6192C12.7023 11.7023 12.611 11.7222 12.5459 11.7245H11.3852C11.3173 11.7245 11.226 11.7069 11.1747 11.621C11.1521 11.5836 11.1387 11.5351 11.1373 11.4802C11.1373 11.4155 11.1364 11.3504 11.136 11.2853C11.1346 11.1574 11.1327 11.0248 11.1373 10.8974C11.1489 10.5423 11.3132 10.2883 11.6279 10.1405C11.7032 10.1031 11.7359 10.0527 11.7392 9.97655L11.7405 9.95669L11.7396 9.95438V9.94976C11.7396 9.30971 11.7396 8.66642 11.7373 8.02452C11.7419 8.00697 11.7512 7.99312 11.795 7.97049C11.9238 7.89983 12.0493 7.83333 12.1836 7.76453V10.0786L12.2307 10.0975C12.4171 10.1728 12.5574 10.2873 12.6589 10.4476C12.7439 10.5783 12.7868 10.7288 12.7868 10.8941Z" fill="white"/>
<defs>
<radialGradient id="paint0_radial_3095_10857" cx="0" cy="0" r="1" gradientUnits="userSpaceOnUse" gradientTransform="translate(2.3543 2.3564) rotate(37.4551) scale(18.7833 18.7832)">
<stop offset="0.097216" stop-color="#D550B4"/>
<stop offset="0.45625" stop-color="#B140C2"/>
<stop offset="0.875659" stop-color="#6338DD"/>
</radialGradient>
</defs>
</svg>
