<svg width="89" height="83" viewBox="0 0 89 83" fill="none" xmlns="http://www.w3.org/2000/svg">
<g clip-path="url(#clip0_373_1003)">
<path d="M68.6681 9.20519e-06C74.062 9.20519e-06 79.4839 9.20519e-06 84.8778 9.20519e-06C87.3652 9.20519e-06 88.7067 1.31407 88.7067 3.77443C88.7067 10.177 88.7067 16.6075 88.7067 23.01C88.7067 25.4424 87.3932 26.7565 84.9617 26.7565C76.8289 26.7565 68.724 26.7565 60.5911 26.7844C59.9763 26.7844 59.3055 27.0081 58.7745 27.3436C56.0915 29.0771 53.4085 30.8664 50.7535 32.6558C49.412 33.5505 48.0705 33.7741 46.6731 32.8515C45.3875 32.0127 44.9683 30.6707 45.3875 28.8813C46.3657 24.8273 47.3718 20.7733 48.35 16.6914C48.4618 16.1881 48.5456 15.6569 48.5456 15.1536C48.5735 11.3512 48.5456 7.54886 48.5456 3.74648C48.5456 1.25815 49.8591 -0.0559082 52.3465 -0.0559082C57.7963 9.20519e-06 63.2182 9.20519e-06 68.6681 9.20519e-06ZM53.7998 22.3111C53.9116 22.339 53.9954 22.367 54.1072 22.4229C54.5264 22.1433 54.9736 21.8637 55.3649 21.5562C56.7343 20.4658 58.2435 20.0464 60.0042 20.0744C66.9353 20.1582 73.8664 20.1023 80.7975 20.1023C81.1608 20.1023 81.5521 20.1023 81.9433 20.1023C81.9433 15.573 81.9433 11.1835 81.9433 6.76602C73.0279 6.76602 64.1685 6.76602 55.2531 6.76602C55.1413 12.0223 55.7562 17.2785 53.7998 22.3111Z" fill="#F8F8F8"/>
<path d="M18.4177 61.9286C18.4457 63.746 16.9365 65.2837 15.1199 65.3116C13.3032 65.3396 11.7661 63.8578 11.7102 62.0405C11.6543 60.1672 13.1915 58.6295 15.036 58.6016C16.8806 58.6016 18.3898 60.1113 18.4177 61.9286Z" fill="#F8F8F8"/>
<path d="M15.0639 82.4223C15.0639 79.1511 15.0639 75.852 15.0639 72.5808C15.0639 69.8968 13.7783 68.6386 11.0674 68.6386C10.3407 68.6386 9.61409 68.6386 8.8595 68.6386C7.23852 68.6386 6.67956 68.0795 6.67956 66.4299C6.67956 59.5521 6.67956 52.6742 6.67956 45.8243C6.67956 44.0629 7.21057 43.5317 8.99924 43.5317C22.2745 43.5317 35.5777 43.5317 48.853 43.5317C49.1325 43.5317 49.4399 43.5317 49.7194 43.5317C49.4399 43.8672 49.1324 44.035 48.825 44.2027C43.8503 46.8588 38.8476 49.4869 33.8729 52.115C32.5873 52.7861 31.8047 53.7646 31.8047 55.2464C31.8047 62.4877 31.8047 69.757 31.8047 76.9983C31.8047 78.2564 32.3916 79.207 33.4537 79.8501C35.7174 81.2201 38.4843 79.5985 38.4843 76.8026C38.5122 70.6517 38.5122 64.5287 38.4563 58.3778C38.4563 57.4831 38.7358 57.0358 39.5184 56.6444C45.8625 53.3173 52.2067 49.9343 58.5509 46.6072C60.0321 45.8243 61.2059 44.8178 61.6811 43.1403C62.5754 39.8412 60.1719 36.7937 56.6784 36.7937C46.7848 36.7657 36.8633 36.7937 26.9697 36.7937C26.5505 36.7937 26.1313 36.7937 25.7121 36.7937C35.6895 35.1441 41.5027 26.6447 40.9717 18.0893C40.4406 9.39415 33.4257 2.3206 24.706 1.67755C15.8465 1.06246 7.90927 7.10154 6.20444 15.9924C5.86907 17.8377 5.84112 19.8507 6.1206 21.696C6.37213 23.5692 6.95904 25.4424 7.82542 27.12C8.66386 28.7975 9.86562 30.3911 11.2071 31.7332C12.5486 33.0472 14.1696 34.1656 15.8744 35.0323C17.5234 35.871 19.3679 36.2625 21.0168 36.8216C16.8806 36.8216 12.6045 36.7937 8.30054 36.8216C4.47167 36.8496 1.25766 39.4498 0.279485 43.1403C0.22359 43.3919 0.111798 43.6715 0.0279541 43.9231C0.0279541 52.0032 0.0279541 60.1112 0.0279541 68.1913C0.391277 69.1139 0.642808 70.1205 1.08998 70.9872C2.48737 73.5873 4.835 74.9853 8.30054 75.3487C8.30054 77.7252 8.30054 80.1297 8.30054 82.618H15.0639C15.0639 82.5621 15.0639 82.5062 15.0639 82.4223ZM12.5486 19.2636C12.5486 13.2245 17.4395 8.38764 23.4763 8.38764C29.4292 8.38764 34.3201 13.3084 34.3201 19.2636C34.2921 25.3027 29.4292 30.1675 23.3924 30.1675C17.4395 30.1395 12.5486 25.2188 12.5486 19.2636Z" fill="#F8F8F8"/>
</g>
<defs>
<clipPath id="clip0_373_1003">
<rect width="88.7067" height="82.646" fill="white"/>
</clipPath>
</defs>
</svg>
