<svg width="90" height="30" viewBox="0 0 90 30" fill="none" xmlns="http://www.w3.org/2000/svg">
<rect width="90" height="30" rx="15" fill="#FF6565" fill-opacity="0.1"/>
<path d="M20.5 16.6016C20.5 18.9609 19.3828 20.1406 17.1484 20.1406C15.0078 20.1406 13.9375 19.0059 13.9375 16.7363V11.5977H15.332V16.4492C15.332 18.0977 15.9727 18.9219 17.2539 18.9219C18.4883 18.9219 19.1055 18.127 19.1055 16.5371V11.5977H20.5V16.6016ZM27.666 20H26.3066V16.6191C26.3066 15.498 25.9102 14.9375 25.1172 14.9375C24.7031 14.9375 24.3613 15.0938 24.0918 15.4062C23.8223 15.7148 23.6875 16.1055 23.6875 16.5781V20H22.3223V14H23.6875V14.9961H23.7109C24.1602 14.2383 24.8086 13.8594 25.6562 13.8594C26.3086 13.8594 26.8066 14.0723 27.1504 14.498C27.4941 14.9199 27.666 15.5312 27.666 16.332V20ZM30.7129 19.1328H30.6895V20H29.3301V11.1172H30.6895V15.0547H30.7129C31.1777 14.2578 31.8574 13.8594 32.752 13.8594C33.5098 13.8594 34.1016 14.1289 34.5273 14.668C34.957 15.2031 35.1719 15.9219 35.1719 16.8242C35.1719 17.8281 34.9316 18.6328 34.4512 19.2383C33.9707 19.8398 33.3145 20.1406 32.4824 20.1406C31.7012 20.1406 31.1113 19.8047 30.7129 19.1328ZM30.6777 16.748V17.4922C30.6777 17.9297 30.8164 18.3008 31.0938 18.6055C31.375 18.9102 31.7305 19.0625 32.1602 19.0625C32.6641 19.0625 33.0586 18.8672 33.3438 18.4766C33.6328 18.082 33.7773 17.5332 33.7773 16.8301C33.7773 16.2402 33.6426 15.7793 33.373 15.4473C33.1074 15.1113 32.7461 14.9434 32.2891 14.9434C31.8047 14.9434 31.4141 15.1152 31.1172 15.459C30.8242 15.8027 30.6777 16.2324 30.6777 16.748ZM37.9258 20H36.5605V11.1172H37.9258V20ZM42.3613 20.1406C41.4355 20.1406 40.6953 19.8613 40.1406 19.3027C39.5898 18.7402 39.3145 17.9961 39.3145 17.0703C39.3145 16.0625 39.6016 15.2754 40.1758 14.709C40.7539 14.1426 41.5312 13.8594 42.5078 13.8594C43.4453 13.8594 44.1758 14.1348 44.6992 14.6855C45.2227 15.2363 45.4844 16 45.4844 16.9766C45.4844 17.9336 45.2012 18.7012 44.6348 19.2793C44.0723 19.8535 43.3145 20.1406 42.3613 20.1406ZM42.4258 14.9434C41.8945 14.9434 41.4746 15.1289 41.166 15.5C40.8574 15.8711 40.7031 16.3828 40.7031 17.0352C40.7031 17.6641 40.8594 18.1602 41.1719 18.5234C41.4844 18.8828 41.9023 19.0625 42.4258 19.0625C42.9609 19.0625 43.3711 18.8848 43.6562 18.5293C43.9453 18.1738 44.0898 17.668 44.0898 17.0117C44.0898 16.3516 43.9453 15.8418 43.6562 15.4824C43.3711 15.123 42.9609 14.9434 42.4258 14.9434ZM51.168 19.7246C50.6875 20.002 50.1191 20.1406 49.4629 20.1406C48.5723 20.1406 47.8535 19.8633 47.3066 19.3086C46.7598 18.75 46.4863 18.0273 46.4863 17.1406C46.4863 16.1523 46.7793 15.3594 47.3652 14.7617C47.9551 14.1602 48.7422 13.8594 49.7266 13.8594C50.2734 13.8594 50.7559 13.9551 51.1738 14.1465V15.4121C50.7559 15.0996 50.3105 14.9434 49.8379 14.9434C49.2637 14.9434 48.793 15.1387 48.4258 15.5293C48.0586 15.916 47.875 16.4238 47.875 17.0527C47.875 17.6738 48.0469 18.1641 48.3906 18.5234C48.7383 18.8828 49.2031 19.0625 49.7852 19.0625C50.2734 19.0625 50.7344 18.8887 51.168 18.541V19.7246ZM57.9648 20H56.2422L53.9102 17.1172H53.8867V20H52.5215V11.1172H53.8867V16.748H53.9102L56.1133 14H57.748L55.2695 16.8945L57.9648 20Z" fill="#C83737"/>
<rect x="62" y="3" width="24.9495" height="24.9495" rx="12.4747" fill="white"/>
<mask id="mask0_533_17" style="mask-type:alpha" maskUnits="userSpaceOnUse" x="70" y="14" width="10" height="9">
<rect x="70" y="14.094" width="9.68515" height="8.03696" fill="#C4C4C4"/>
</mask>
<g mask="url(#mask0_533_17)">
<g clip-path="url(#clip0_533_17)">
<path d="M70 21.4734C70 19.2269 70 16.9803 70 14.7337C70.1522 14.2405 70.4992 14.0822 70.9924 14.0883C72.7519 14.1005 74.5175 14.0944 76.277 14.0944C76.3318 14.0944 76.3805 14.0944 76.4475 14.0944C76.4475 14.0335 76.4475 13.9848 76.4475 13.9361C76.4475 13.4856 76.4475 13.0411 76.4475 12.5906C76.4536 12.0122 76.5693 11.4582 76.825 10.9346C77.5312 9.48558 79.2116 8.66975 80.7824 9.01679C82.4262 9.37599 83.583 10.7885 83.6256 12.4688C83.6378 13.0411 83.236 13.4795 82.6697 13.5039C82.1583 13.5221 81.7139 13.102 81.6834 12.5541C81.6773 12.4506 81.6713 12.3532 81.653 12.2497C81.5373 11.446 80.7397 10.8189 79.93 10.892C79.0229 10.9711 78.3958 11.653 78.3836 12.5663C78.3775 13.0351 78.3836 13.5039 78.3836 13.9787C78.3836 14.0153 78.3897 14.0518 78.3958 14.1005C78.5236 14.1005 78.6393 14.1005 78.755 14.1005C79.2725 14.1066 79.5952 14.4171 79.6012 14.9407C79.6073 17.0594 79.6073 19.1842 79.6012 21.303C79.6012 21.8205 79.2725 22.1431 78.755 22.1431C76.1187 22.1431 73.4825 22.1431 70.8524 22.1431C70.5601 22.1431 70.3105 22.0457 70.1461 21.7961C70.0791 21.6865 70.0487 21.5769 70 21.4734ZM74.0426 18.9042C74.0487 19.1112 74.0426 19.3182 74.0487 19.5313C74.0609 19.8357 74.274 20.1036 74.5601 20.1949C75.0655 20.3593 75.5525 20.0001 75.5647 19.4521C75.5708 19.0686 75.5647 18.6789 75.5708 18.2953C75.5708 18.2466 75.5891 18.1797 75.6256 18.1431C75.9239 17.857 76.0639 17.51 76.0274 17.0899C75.9665 16.3775 75.2177 15.8357 74.5236 16.0244C74.0487 16.1523 73.7321 16.4567 73.6164 16.9377C73.5008 17.4004 73.6408 17.8022 73.9817 18.1371C74.0183 18.1736 74.0426 18.2406 74.0487 18.2953C74.0426 18.4963 74.0426 18.6972 74.0426 18.9042Z" fill="#FF6565"/>
</g>
</g>
<g clip-path="url(#clip1_533_17)">
<mask id="mask1_533_17" style="mask-type:alpha" maskUnits="userSpaceOnUse" x="64" y="9" width="15" height="6">
<rect x="64.7812" y="9" width="13.6317" height="5.14306" fill="#C4C4C4"/>
</mask>
<g mask="url(#mask1_533_17)">
<path d="M64.7871 21.5357C64.7871 19.2891 64.7871 17.0425 64.7871 14.7959C64.9393 14.3028 65.2863 14.1445 65.7795 14.1506C67.539 14.1628 69.3046 14.1567 71.0641 14.1567C71.1189 14.1567 71.1676 14.1567 71.2346 14.1567C71.2346 14.0958 71.2346 14.0471 71.2346 13.9984C71.2346 13.5478 71.2346 13.1034 71.2346 12.6529C71.2407 12.0745 71.3564 11.5204 71.6121 10.9969C72.3183 9.54784 73.9987 8.73201 75.5695 9.07904C77.2133 9.43825 78.3701 10.8507 78.4127 12.5311C78.4249 13.1034 78.0231 13.5418 77.4568 13.5661C76.9454 13.5844 76.501 13.1643 76.4705 12.6163C76.4645 12.5128 76.4584 12.4154 76.4401 12.3119C76.3244 11.5083 75.5269 10.8812 74.7171 10.9542C73.81 11.0334 73.1829 11.7153 73.1707 12.6285C73.1646 13.0973 73.1707 13.5661 73.1707 14.041C73.1707 14.0775 73.1768 14.1141 73.1829 14.1628C73.3107 14.1628 73.4264 14.1628 73.5421 14.1628C74.0596 14.1689 74.3823 14.4794 74.3883 15.003C74.3944 17.1217 74.3944 19.2465 74.3883 21.3652C74.3883 21.8827 74.0596 22.2054 73.5421 22.2054C70.9058 22.2054 68.2696 22.2054 65.6395 22.2054C65.3472 22.2054 65.0976 22.108 64.9332 21.8584C64.8663 21.7488 64.8358 21.6392 64.7871 21.5357ZM68.8297 18.9664C68.8358 19.1734 68.8297 19.3804 68.8358 19.5935C68.848 19.8979 69.0611 20.1658 69.3472 20.2571C69.8526 20.4215 70.3396 20.0623 70.3518 19.5144C70.3579 19.1308 70.3518 18.7412 70.3579 18.3576C70.3579 18.3089 70.3762 18.2419 70.4127 18.2054C70.711 17.9192 70.851 17.5722 70.8145 17.1521C70.7536 16.4398 70.0048 15.8979 69.3107 16.0867C68.8358 16.2145 68.5192 16.5189 68.4036 16.9999C68.2879 17.4626 68.4279 17.8644 68.7689 18.1993C68.8054 18.2358 68.8297 18.3028 68.8358 18.3576C68.8297 18.5585 68.8297 18.7594 68.8297 18.9664Z" fill="#FF6565"/>
<g clip-path="url(#clip2_533_17)">
<mask id="mask2_533_17" style="mask-type:alpha" maskUnits="userSpaceOnUse" x="71" y="9" width="14" height="6">
<rect width="13.6317" height="5.14306" transform="matrix(-1 0 0 1 84.8584 9)" fill="#C4C4C4"/>
</mask>
<g mask="url(#mask2_533_17)">
<path d="M84.8525 21.5357C84.8525 19.2891 84.8525 17.0425 84.8525 14.7959C84.7003 14.3028 84.3533 14.1445 83.8601 14.1506C82.1006 14.1628 80.335 14.1567 78.5755 14.1567C78.5207 14.1567 78.472 14.1567 78.405 14.1567C78.405 14.0958 78.405 14.0471 78.405 13.9984C78.405 13.5478 78.405 13.1034 78.405 12.6529C78.3989 12.0745 78.2833 11.5204 78.0276 10.9969C77.3213 9.54784 75.641 8.73201 74.0702 9.07904C72.4263 9.43825 71.2696 10.8507 71.2269 12.5311C71.2148 13.1034 71.6166 13.5418 72.1828 13.5661C72.6942 13.5844 73.1387 13.1643 73.1691 12.6163C73.1752 12.5128 73.1813 12.4154 73.1995 12.3119C73.3152 11.5083 74.1128 10.8812 74.9225 10.9542C75.8297 11.0334 76.4568 11.7153 76.469 12.6285C76.475 13.0973 76.469 13.5661 76.469 14.041C76.469 14.0775 76.4629 14.1141 76.4568 14.1628C76.3289 14.1628 76.2133 14.1628 76.0976 14.1628C75.5801 14.1689 75.2574 14.4794 75.2513 15.003C75.2452 17.1217 75.2452 19.2465 75.2513 21.3652C75.2513 21.8827 75.5801 22.2054 76.0976 22.2054C78.7338 22.2054 81.37 22.2054 84.0002 22.2054C84.2924 22.2054 84.542 22.108 84.7064 21.8584C84.7734 21.7488 84.8038 21.6392 84.8525 21.5357ZM80.8099 18.9664C80.8038 19.1734 80.8099 19.3804 80.8038 19.5935C80.7916 19.8979 80.5786 20.1658 80.2924 20.2571C79.7871 20.4215 79.3 20.0623 79.2878 19.5144C79.2818 19.1308 79.2878 18.7412 79.2818 18.3576C79.2818 18.3089 79.2635 18.2419 79.227 18.2054C78.9286 17.9192 78.7886 17.5722 78.8251 17.1521C78.886 16.4398 79.6349 15.8979 80.3289 16.0867C80.8038 16.2145 81.1204 16.5189 81.2361 16.9999C81.3518 17.4626 81.2117 17.8644 80.8708 18.1993C80.8343 18.2358 80.8099 18.3028 80.8038 18.3576C80.8099 18.5585 80.8099 18.7594 80.8099 18.9664Z" fill="#FF6565"/>
</g>
</g>
</g>
</g>
<defs>
<clipPath id="clip0_533_17">
<rect width="9.68515" height="13.1933" fill="white" transform="translate(70 8.93774)"/>
</clipPath>
<clipPath id="clip1_533_17">
<rect width="7.26581" height="5.12638" fill="white" transform="translate(71.1528 9)"/>
</clipPath>
<clipPath id="clip2_533_17">
<rect width="7.47432" height="5.12638" fill="white" transform="matrix(-1 0 0 1 78.6953 9)"/>
</clipPath>
</defs>
</svg>
