<svg width="19" height="19" viewBox="0 0 19 19" fill="none" xmlns="http://www.w3.org/2000/svg">
<path d="M9.11722 18.9308C8.00366 18.5154 7.58608 17.6847 7.65568 16.5079C7.72528 14.7774 7.65568 13.116 7.65568 11.3162C7.44689 11.3162 7.30769 11.3162 7.0989 11.3162C5.42857 11.3162 3.75824 11.3162 2.08791 11.3162C0.835165 11.3162 0 10.4855 0 9.3779C0 8.27032 0.835165 7.50886 2.08791 7.50886C3.75824 7.50886 5.35897 7.50886 7.0293 7.50886C7.1685 7.50886 7.37729 7.50886 7.58608 7.50886C7.58608 7.30118 7.58608 7.09351 7.58608 6.95506C7.58608 5.29369 7.58608 3.63233 7.58608 1.97095C7.58608 0.58648 8.83883 -0.31343 10.0916 0.101913C10.8571 0.378808 11.3443 1.07104 11.3443 2.04018C11.3443 3.70155 11.3443 5.29369 11.3443 6.95506C11.3443 7.16273 11.3443 7.30118 11.3443 7.57808C11.5531 7.57808 11.6923 7.57808 11.9011 7.57808C13.5714 7.57808 15.2418 7.57808 16.9121 7.57808C18.1648 7.57808 19 8.33954 19 9.51634C19 10.6239 18.1648 11.3854 16.9121 11.3854C15.2418 11.3854 13.641 11.3854 11.9707 11.3854C11.8315 11.3854 11.6227 11.3854 11.4139 11.3854C11.4139 11.5931 11.4139 11.7315 11.4139 11.9392C11.4139 13.4621 11.3443 15.0542 11.4139 16.5772C11.4835 17.754 11.0659 18.5847 9.95238 19C9.67399 18.9308 9.3956 18.9308 9.11722 18.9308Z" fill="#F9F9F9"/>
</svg>
