<svg width="17" height="9" viewBox="0 0 17 9" fill="none" xmlns="http://www.w3.org/2000/svg">
<g clip-path="url(#clip0_375_1956)">
<path d="M17 7.22446C16.9181 7.51968 16.7588 7.76979 16.4631 7.9297C16.1309 8.11011 15.7805 8.14291 15.4347 7.98711C15.057 7.8149 14.6884 7.61808 14.3199 7.42537C13.7283 7.12196 13.1413 6.81444 12.5498 6.51512C12.4451 6.46182 12.4042 6.40852 12.4042 6.29781C12.4087 5.09645 12.4087 3.89508 12.4042 2.69371C12.4042 2.583 12.4451 2.5256 12.5498 2.4723C13.4371 2.01717 14.3335 1.57435 15.2026 1.08642C15.9671 0.659998 16.8589 1.04132 16.9818 1.73836C16.9863 1.75066 16.9909 1.76296 17 1.77936C17 3.59166 17 5.40806 17 7.22446Z" fill="#496CE7"/>
<path d="M6.74889 8.99995C5.7072 8.99995 4.66177 9.00405 3.62009 8.99995C2.8407 8.99585 2.23743 8.48742 2.06881 7.69608C2.03883 7.55667 2.02759 7.40906 2.02759 7.26556C2.02384 5.42045 2.02384 3.57535 2.02759 1.73025C2.02759 0.737992 2.67958 0.00815196 3.59011 0.00405173C5.69971 -4.84943e-05 7.80931 -4.84943e-05 9.9189 0.00405173C10.8257 0.00815196 11.4739 0.709291 11.4777 1.70155C11.4889 3.56715 11.4889 5.42865 11.4777 7.29426C11.4739 8.29061 10.807 8.99175 9.88892 8.99585C8.84349 9.00405 7.79432 8.99995 6.74889 8.99995Z" fill="#496CE7"/>
</g>
<defs>
<clipPath id="clip0_375_1956">
<rect width="17" height="9" fill="white"/>
</clipPath>
</defs>
</svg>
