<svg width="36" height="24" viewBox="0 0 36 24" fill="none" xmlns="http://www.w3.org/2000/svg">
<path d="M23.9934 16.95C23.9934 18.08 23.9934 19.14 23.9934 20.2C23.9934 22.46 22.4638 24 20.2144 24C14.7259 24 9.24744 24 3.75896 24C1.55957 24 0 22.45 0 20.25C0 14.75 0 9.25 0 3.75C0 1.55 1.54957 0 3.74896 0C9.24744 0 14.7459 0 20.2444 0C22.4538 0 23.9934 1.55 23.9934 3.75C23.9934 4.71 23.9934 5.67 23.9934 6.64C23.9934 6.76 23.9934 6.88 23.9934 7.06C24.4232 6.77 24.7931 6.53 25.163 6.28C26.8626 5.14 28.5721 4.01 30.2616 2.85C31.4313 2.05 32.661 1.83 33.9306 2.5C35.2802 3.21 35.98 4.39 35.99 5.91C36.01 9.41 36 12.91 35.99 16.41C35.99 17.2 36.02 17.99 35.9101 18.76C35.6801 20.39 34.3505 21.64 32.7309 21.85C31.8912 21.96 31.1314 21.71 30.4316 21.24C28.4121 19.88 26.3927 18.52 24.3633 17.17C24.2633 17.11 24.1633 17.05 23.9934 16.95ZM12.0167 2.4C9.27743 2.4 6.54819 2.4 3.80894 2.4C2.8692 2.4 2.39934 2.86 2.39934 3.8C2.39934 9.27 2.39934 14.75 2.39934 20.22C2.39934 21.13 2.86921 21.6 3.78895 21.6C9.25744 21.6 14.7359 21.6 20.2044 21.6C21.1241 21.6 21.594 21.14 21.594 20.22C21.594 14.75 21.594 9.27 21.594 3.8C21.594 2.86 21.1341 2.4 20.1844 2.4C17.4652 2.4 14.7459 2.4 12.0167 2.4ZM33.5907 12.04C33.5907 10.8 33.5907 9.57 33.5907 8.33C33.5907 7.53 33.6007 6.73 33.5907 5.93C33.5807 5.36 33.3308 4.92 32.8309 4.64C32.371 4.38 31.9811 4.59 31.5912 4.86C29.1519 6.51 26.7026 8.15 24.2533 9.78C24.0733 9.9 23.9834 10.03 23.9934 10.26C24.0034 11.42 24.0034 12.58 23.9934 13.74C23.9934 13.97 24.0733 14.1 24.2633 14.22C25.0531 14.74 25.8428 15.27 26.6326 15.8C28.3421 16.95 30.0517 18.1 31.7612 19.24C32.2711 19.58 32.7009 19.56 33.1208 19.16C33.4707 18.83 33.6107 18.42 33.6107 17.95C33.5907 15.99 33.5907 14.01 33.5907 12.04Z" fill="#7F57C2"/>
</svg>
